<?xml version="1.0" encoding="UTF-8" standalone="no"?>
<!DOCTYPE svg PUBLIC "-//W3C//DTD SVG 1.1//EN" "http://www.w3.org/Graphics/SVG/1.1/DTD/svg11.dtd">
<svg width="100%" height="100%" viewBox="0 0 184 242" version="1.1" xmlns="http://www.w3.org/2000/svg" xmlns:xlink="http://www.w3.org/1999/xlink" xml:space="preserve" xmlns:serif="http://www.serif.com/" style="fill-rule:evenodd;clip-rule:evenodd;stroke-linecap:round;stroke-linejoin:round;stroke-miterlimit:1.5;">
    <g transform="matrix(1,0,0,1,-713.448,-424.299)">
        <g transform="matrix(0.812869,0,0,0.812869,278.809,351.738)">
            <g id="R-Pattern">
                <g transform="matrix(0.264535,0,0,0.25,524.112,7.1202)">
                    <rect x="42.558" y="502.834" width="168.921" height="168.921" style="fill:rgb(242,224,98);stroke:black;stroke-width:5.22px;"/>
                </g>
                <g transform="matrix(0.264535,0,0,0.25,524.112,49.3504)">
                    <rect x="42.558" y="502.834" width="168.921" height="168.921" style="fill:rgb(242,224,98);stroke:black;stroke-width:5.22px;"/>
                </g>
                <g transform="matrix(0.264535,0,0,0.25,524.112,91.5806)">
                    <rect x="42.558" y="502.834" width="168.921" height="168.921" style="fill:rgb(242,224,98);stroke:black;stroke-width:5.22px;"/>
                </g>
                <g transform="matrix(0.264535,0,0,0.25,524.119,135.016)">
                    <rect x="42.558" y="502.834" width="168.921" height="168.921" style="fill:rgb(242,224,98);stroke:black;stroke-width:5.22px;"/>
                </g>
                <g transform="matrix(0.264535,0,0,0.25,568.797,-35.11)">
                    <rect x="42.558" y="502.834" width="168.921" height="168.921" style="fill:rgb(242,224,98);stroke:black;stroke-width:5.22px;"/>
                </g>
                <g transform="matrix(0.264535,0,0,0.25,524.119,218.271)">
                    <rect x="42.558" y="502.834" width="168.921" height="168.921" style="fill:rgb(112,156,248);stroke:black;stroke-width:5.22px;"/>
                </g>
                <g transform="matrix(0.264535,0,0,0.25,613.482,-35.11)">
                    <rect x="42.558" y="502.834" width="168.921" height="168.921" style="fill:rgb(242,224,98);stroke:black;stroke-width:5.22px;"/>
                </g>
                <g transform="matrix(0.264535,0,0,0.25,659,-35.11)">
                    <rect x="42.558" y="502.834" width="168.921" height="168.921" style="fill:rgb(242,224,98);stroke:black;stroke-width:5.22px;"/>
                </g>
                <g transform="matrix(0.264535,0,0,0.25,703.686,-35.11)">
                    <rect x="42.558" y="502.834" width="168.921" height="168.921" style="fill:rgb(242,224,98);stroke:black;stroke-width:5.22px;"/>
                </g>
                <g transform="matrix(0.264535,0,0,0.25,524.119,177.246)">
                    <rect x="42.558" y="502.834" width="168.921" height="168.921" style="fill:rgb(242,224,98);stroke:black;stroke-width:5.22px;"/>
                </g>
                <g transform="matrix(0.264535,0,0,0.25,524.119,-35.7716)">
                    <rect x="42.558" y="502.834" width="168.921" height="168.921" style="fill:rgb(232,109,66);stroke:black;stroke-width:5.22px;"/>
                </g>
                <g transform="matrix(1.23021,0,0,1.23021,-345.838,-427.809)">
                    <g transform="matrix(16,0,0,16,743.286,443.774)">
                    </g>
                    <text x="726.388px" y="443.774px" style="font-family:'ArialMT', 'Arial', sans-serif;font-size:16px;">x2</text>
                </g>
            </g>
        </g>
    </g>
</svg>
