<?xml version="1.0" encoding="UTF-8" standalone="no"?>
<!DOCTYPE svg PUBLIC "-//W3C//DTD SVG 1.1//EN" "http://www.w3.org/Graphics/SVG/1.1/DTD/svg11.dtd">
<svg width="100%" height="100%" viewBox="0 0 184 208" version="1.1" xmlns="http://www.w3.org/2000/svg" xmlns:xlink="http://www.w3.org/1999/xlink" xml:space="preserve" xmlns:serif="http://www.serif.com/" style="fill-rule:evenodd;clip-rule:evenodd;stroke-linecap:round;stroke-linejoin:round;stroke-miterlimit:1.5;">
    <g transform="matrix(1,0,0,1,-676.367,-128.998)">
        <g transform="matrix(0.812869,0,0,0.812869,242.632,21.5713)">
            <g id="A-Pattern">
                <g transform="matrix(0.264535,0,0,0.25,522.998,49.3504)">
                    <rect x="42.558" y="502.834" width="168.921" height="168.921" style="fill:rgb(242,224,98);stroke:black;stroke-width:5.22px;"/>
                </g>
                <g transform="matrix(0.264535,0,0,0.25,522.998,91.5806)">
                    <rect x="42.558" y="502.834" width="168.921" height="168.921" style="fill:rgb(242,224,98);stroke:black;stroke-width:5.22px;"/>
                </g>
                <g transform="matrix(0.264535,0,0,0.25,522.998,176.041)">
                    <rect x="42.558" y="502.834" width="168.921" height="168.921" style="fill:rgb(242,224,98);stroke:black;stroke-width:5.22px;"/>
                </g>
                <g transform="matrix(0.264535,0,0,0.25,522.998,133.811)">
                    <rect x="42.558" y="502.834" width="168.921" height="168.921" style="fill:rgb(242,224,98);stroke:black;stroke-width:5.22px;"/>
                </g>
                <g transform="matrix(0.264535,0,0,0.25,567.684,7.1202)">
                    <rect x="42.558" y="502.834" width="168.921" height="168.921" style="fill:rgb(242,224,98);stroke:black;stroke-width:5.22px;"/>
                </g>
                <g transform="matrix(0.264535,0,0,0.25,612.369,7.1202)">
                    <rect x="42.558" y="502.834" width="168.921" height="168.921" style="fill:rgb(232,109,66);stroke:black;stroke-width:5.22px;"/>
                </g>
                <g transform="matrix(0.264535,0,0,0.25,567.684,49.3504)">
                    <rect x="42.558" y="502.834" width="168.921" height="168.921" style="fill:rgb(242,224,98);stroke:black;stroke-width:5.22px;"/>
                </g>
                <g transform="matrix(0.264535,0,0,0.25,567.684,133.811)">
                    <rect x="42.558" y="502.834" width="168.921" height="168.921" style="fill:rgb(242,224,98);stroke:black;stroke-width:5.22px;"/>
                </g>
                <g transform="matrix(0.264535,0,0,0.25,613.482,133.811)">
                    <rect x="42.558" y="502.834" width="168.921" height="168.921" style="fill:rgb(232,109,66);stroke:black;stroke-width:5.22px;"/>
                </g>
                <g transform="matrix(0.264535,0,0,0.25,658.168,133.811)">
                    <rect x="42.558" y="502.834" width="168.921" height="168.921" style="fill:rgb(242,224,98);stroke:black;stroke-width:5.22px;"/>
                </g>
                <g transform="matrix(0.264535,0,0,0.25,702.673,176.656)">
                    <rect x="42.558" y="502.834" width="168.921" height="168.921" style="fill:rgb(242,224,98);stroke:black;stroke-width:5.22px;"/>
                </g>
                <g transform="matrix(0.264535,0,0,0.25,702.673,218.886)">
                    <rect x="42.558" y="502.834" width="168.921" height="168.921" style="fill:rgb(232,109,66);stroke:black;stroke-width:5.22px;"/>
                </g>
                <g transform="matrix(1.23021,0,0,1.23021,-306.567,-16.5624)">
                    <g transform="matrix(24,0,0,24,860.912,319.362)">
                    </g>
                    <text x="835.564px" y="319.362px" style="font-family:'ArialMT', 'Arial', sans-serif;font-size:24px;">x2</text>
                </g>
                <g transform="matrix(0.264535,0,0,0.25,702.673,134.426)">
                    <rect x="42.558" y="502.834" width="168.921" height="168.921" style="fill:rgb(242,224,98);stroke:black;stroke-width:5.22px;"/>
                </g>
                <g transform="matrix(0.264535,0,0,0.25,702.673,92.1957)">
                    <rect x="42.558" y="502.834" width="168.921" height="168.921" style="fill:rgb(242,224,98);stroke:black;stroke-width:5.22px;"/>
                </g>
                <g transform="matrix(0.264535,0,0,0.25,702.673,49.9443)">
                    <rect x="42.558" y="502.834" width="168.921" height="168.921" style="fill:rgb(242,224,98);stroke:black;stroke-width:5.22px;"/>
                </g>
                <g transform="matrix(0.264535,0,0,0.25,657.987,49.9443)">
                    <rect x="42.558" y="502.834" width="168.921" height="168.921" style="fill:rgb(242,224,98);stroke:black;stroke-width:5.22px;"/>
                </g>
                <g transform="matrix(0.264535,0,0,0.25,657.987,7.71416)">
                    <rect x="42.558" y="502.834" width="168.921" height="168.921" style="fill:rgb(242,224,98);stroke:black;stroke-width:5.22px;"/>
                </g>
                <g transform="matrix(0.264535,0,0,0.25,522.998,218.271)">
                    <rect x="42.558" y="502.834" width="168.921" height="168.921" style="fill:rgb(112,156,248);stroke:black;stroke-width:5.22px;"/>
                </g>
            </g>
        </g>
    </g>
</svg>
