<?xml version="1.0" encoding="UTF-8" standalone="no"?>
<!DOCTYPE svg PUBLIC "-//W3C//DTD SVG 1.1//EN" "http://www.w3.org/Graphics/SVG/1.1/DTD/svg11.dtd">
<svg width="100%" height="100%" viewBox="0 0 184 208" version="1.1" xmlns="http://www.w3.org/2000/svg" xmlns:xlink="http://www.w3.org/1999/xlink" xml:space="preserve" xmlns:serif="http://www.serif.com/" style="fill-rule:evenodd;clip-rule:evenodd;stroke-linecap:round;stroke-linejoin:round;stroke-miterlimit:1.5;">
    <g transform="matrix(1,0,0,1,-418.834,-451.638)">
        <g transform="matrix(0.812869,0,0,0.812869,-17.701,344.212)">
            <g id="T-Pattern">
                <g transform="matrix(0.264535,0,0,0.25,571.842,8.35746)">
                    <rect x="42.558" y="502.834" width="168.921" height="168.921" style="fill:rgb(242,224,98);stroke:black;stroke-width:5.22px;"/>
                </g>
                <g transform="matrix(0.264535,0,0,0.25,616.528,49.3504)">
                    <rect x="42.558" y="502.834" width="168.921" height="168.921" style="fill:rgb(242,224,98);stroke:black;stroke-width:5.22px;"/>
                </g>
                <g transform="matrix(0.264535,0,0,0.25,661.213,8.35746)">
                    <rect x="42.558" y="502.834" width="168.921" height="168.921" style="fill:rgb(242,224,98);stroke:black;stroke-width:5.22px;"/>
                </g>
                <g transform="matrix(0.264535,0,0,0.25,526.443,8.35746)">
                    <rect x="42.558" y="502.834" width="168.921" height="168.921" style="fill:rgb(112,156,248);stroke:black;stroke-width:5.22px;"/>
                </g>
                <g transform="matrix(0.264535,0,0,0.25,616.528,7.1202)">
                    <rect x="42.558" y="502.834" width="168.921" height="168.921" style="fill:rgb(242,224,98);stroke:black;stroke-width:5.22px;"/>
                </g>
                <g transform="matrix(0.264535,0,0,0.25,616.528,91.5806)">
                    <rect x="42.558" y="502.834" width="168.921" height="168.921" style="fill:rgb(242,224,98);stroke:black;stroke-width:5.22px;"/>
                </g>
                <g transform="matrix(0.264535,0,0,0.25,616.528,133.811)">
                    <rect x="42.558" y="502.834" width="168.921" height="168.921" style="fill:rgb(242,224,98);stroke:black;stroke-width:5.22px;"/>
                </g>
                <g transform="matrix(0.264535,0,0,0.25,616.528,176.041)">
                    <rect x="42.558" y="502.834" width="168.921" height="168.921" style="fill:rgb(242,224,98);stroke:black;stroke-width:5.22px;"/>
                </g>
                <g transform="matrix(0.264535,0,0,0.25,616.528,218.271)">
                    <rect x="42.558" y="502.834" width="168.921" height="168.921" style="fill:rgb(242,224,98);stroke:black;stroke-width:5.22px;"/>
                </g>
                <g transform="matrix(0.264535,0,0,0.25,705.859,7.1202)">
                    <rect x="42.558" y="502.834" width="168.921" height="168.921" style="fill:rgb(242,224,98);stroke:black;stroke-width:5.22px;"/>
                </g>
            </g>
        </g>
    </g>
</svg>
