<?xml version="1.0" encoding="UTF-8" standalone="no"?>
<!DOCTYPE svg PUBLIC "-//W3C//DTD SVG 1.1//EN" "http://www.w3.org/Graphics/SVG/1.1/DTD/svg11.dtd">
<svg width="100%" height="100%" viewBox="0 0 282 208" version="1.1" xmlns="http://www.w3.org/2000/svg" xmlns:xlink="http://www.w3.org/1999/xlink" xml:space="preserve" xmlns:serif="http://www.serif.com/" style="fill-rule:evenodd;clip-rule:evenodd;stroke-linecap:round;stroke-linejoin:round;stroke-miterlimit:1.5;">
    <g transform="matrix(1,0,0,1,-58.9479,-343.434)">
        <g transform="matrix(0.698655,0,0,0.698655,5.65644,98.2062)">
            <g id="Horned">
                <g transform="matrix(0.264535,0,0,0.25,155.059,479.62)">
                    <rect x="42.558" y="502.834" width="168.921" height="168.921" style="fill:rgb(242,224,98);stroke:black;stroke-width:6.07px;"/>
                </g>
                <g transform="matrix(0.264535,0,0,0.25,199.744,479.62)">
                    <rect x="42.558" y="502.834" width="168.921" height="168.921" style="fill:rgb(242,224,98);stroke:black;stroke-width:6.07px;"/>
                </g>
                <g transform="matrix(0.264535,0,0,0.25,244.43,479.62)">
                    <rect x="42.558" y="502.834" width="168.921" height="168.921" style="fill:rgb(112,156,248);stroke:black;stroke-width:6.07px;"/>
                </g>
                <g transform="matrix(0.264535,0,0,0.25,289.115,479.62)">
                    <rect x="42.558" y="502.834" width="168.921" height="168.921" style="fill:rgb(242,224,98);stroke:black;stroke-width:6.07px;"/>
                </g>
                <g transform="matrix(0.264535,0,0,0.25,333.801,479.62)">
                    <rect x="42.558" y="502.834" width="168.921" height="168.921" style="fill:rgb(242,224,98);stroke:black;stroke-width:6.07px;"/>
                </g>
                <g transform="matrix(0.264535,0,0,0.25,333.801,437.39)">
                    <rect x="42.558" y="502.834" width="168.921" height="168.921" style="fill:rgb(242,224,98);stroke:black;stroke-width:6.07px;"/>
                </g>
                <g transform="matrix(0.264535,0,0,0.25,333.801,395.16)">
                    <rect x="42.558" y="502.834" width="168.921" height="168.921" style="fill:rgb(242,224,98);stroke:black;stroke-width:6.07px;"/>
                </g>
                <g transform="matrix(0.264535,0,0,0.25,333.801,352.93)">
                    <rect x="42.558" y="502.834" width="168.921" height="168.921" style="fill:rgb(242,224,98);stroke:black;stroke-width:6.07px;"/>
                </g>
                <g transform="matrix(0.264535,0,0,0.25,333.801,310.699)">
                    <rect x="42.558" y="502.834" width="168.921" height="168.921" style="fill:rgb(242,224,98);stroke:black;stroke-width:6.07px;"/>
                </g>
                <g transform="matrix(0.264535,0,0,0.25,378.301,310.533)">
                    <rect x="42.558" y="502.834" width="168.921" height="168.921" style="fill:rgb(242,224,98);stroke:black;stroke-width:6.07px;"/>
                </g>
                <g transform="matrix(0.264535,0,0,0.25,422.986,310.533)">
                    <rect x="42.558" y="502.834" width="168.921" height="168.921" style="fill:rgb(242,224,98);stroke:black;stroke-width:6.07px;"/>
                </g>
                <g transform="matrix(0.264535,0,0,0.25,422.986,268.303)">
                    <rect x="42.558" y="502.834" width="168.921" height="168.921" style="fill:rgb(242,224,98);stroke:black;stroke-width:6.07px;"/>
                </g>
                <g transform="matrix(0.264535,0,0,0.25,422.986,226.072)">
                    <rect x="42.558" y="502.834" width="168.921" height="168.921" style="fill:rgb(232,109,66);stroke:black;stroke-width:6.07px;"/>
                </g>
                <g transform="matrix(-0.264535,0,0,0.25,177.687,310.533)">
                    <rect x="42.558" y="502.834" width="168.921" height="168.921" style="fill:rgb(242,224,98);stroke:black;stroke-width:6.07px;"/>
                </g>
                <g transform="matrix(-0.264535,0,0,0.25,133.002,310.533)">
                    <rect x="42.558" y="502.834" width="168.921" height="168.921" style="fill:rgb(242,224,98);stroke:black;stroke-width:6.07px;"/>
                </g>
                <g transform="matrix(-0.264535,0,0,0.25,133.002,268.303)">
                    <rect x="42.558" y="502.834" width="168.921" height="168.921" style="fill:rgb(242,224,98);stroke:black;stroke-width:6.07px;"/>
                </g>
                <g transform="matrix(-0.264535,0,0,0.25,133.002,226.072)">
                    <rect x="42.558" y="502.834" width="168.921" height="168.921" style="fill:rgb(232,109,66);stroke:black;stroke-width:6.07px;"/>
                </g>
                <g transform="matrix(1,0,0,1,-2.21931,5.2717)">
                    <g transform="matrix(24,0,0,24,474.064,376.249)">
                    </g>
                    <text x="444.708px" y="376.249px" style="font-family:'ArialMT', 'Arial', sans-serif;font-size:24px;">X2</text>
                </g>
                <g transform="matrix(1,0,0,1,-2.40472,9.2717)">
                    <g transform="matrix(24,0,0,24,117.064,372.249)">
                    </g>
                    <text x="87.708px" y="372.249px" style="font-family:'ArialMT', 'Arial', sans-serif;font-size:24px;">X2</text>
                </g>
                <g transform="matrix(0.264535,0,0,0.25,289.115,310.699)">
                    <rect x="42.558" y="502.834" width="168.921" height="168.921" style="fill:rgb(232,109,66);stroke:black;stroke-width:6.07px;"/>
                </g>
                <g transform="matrix(0.264535,0,0,0.25,244.43,310.699)">
                    <rect x="42.558" y="502.834" width="168.921" height="168.921" style="fill:rgb(232,109,66);stroke:black;stroke-width:6.07px;"/>
                </g>
                <g transform="matrix(0.264535,0,0,0.25,199.744,310.699)">
                    <rect x="42.558" y="502.834" width="168.921" height="168.921" style="fill:rgb(232,109,66);stroke:black;stroke-width:6.07px;"/>
                </g>
                <g transform="matrix(0.264535,0,0,0.25,155.059,310.699)">
                    <rect x="42.558" y="502.834" width="168.921" height="168.921" style="fill:rgb(242,224,98);stroke:black;stroke-width:6.07px;"/>
                </g>
                <g transform="matrix(0.264535,0,0,0.25,155.059,352.93)">
                    <rect x="42.558" y="502.834" width="168.921" height="168.921" style="fill:rgb(242,224,98);stroke:black;stroke-width:6.07px;"/>
                </g>
                <g transform="matrix(0.264535,0,0,0.25,155.059,395.16)">
                    <rect x="42.558" y="502.834" width="168.921" height="168.921" style="fill:rgb(242,224,98);stroke:black;stroke-width:6.07px;"/>
                </g>
                <g transform="matrix(0.264535,0,0,0.25,155.059,437.39)">
                    <rect x="42.558" y="502.834" width="168.921" height="168.921" style="fill:rgb(242,224,98);stroke:black;stroke-width:6.07px;"/>
                </g>
            </g>
        </g>
    </g>
</svg>
