<?xml version="1.0" encoding="UTF-8" standalone="no"?>
<!DOCTYPE svg PUBLIC "-//W3C//DTD SVG 1.1//EN" "http://www.w3.org/Graphics/SVG/1.1/DTD/svg11.dtd">
<svg width="100%" height="100%" viewBox="0 0 225 213" version="1.1" xmlns="http://www.w3.org/2000/svg" xmlns:xlink="http://www.w3.org/1999/xlink" xml:space="preserve" xmlns:serif="http://www.serif.com/" style="fill-rule:evenodd;clip-rule:evenodd;stroke-linecap:round;stroke-linejoin:round;stroke-miterlimit:1.5;">
    <g transform="matrix(1,0,0,1,-74.88,-91.3621)">
        <g id="Standard-Board" serif:id="Standard Board">
            <g transform="matrix(0.264535,0,0,0.25,64.1679,135.12)">
                <rect x="42.558" y="502.834" width="168.921" height="168.921" style="fill:rgb(112,156,248);stroke:black;stroke-width:4.24px;"/>
            </g>
            <g transform="matrix(0.264535,0,0,0.25,108.853,135.12)">
                <rect x="42.558" y="502.834" width="168.921" height="168.921" style="fill:rgb(242,224,98);stroke:black;stroke-width:4.24px;"/>
            </g>
            <g transform="matrix(0.264535,0,0,0.25,153.539,135.12)">
                <rect x="42.558" y="502.834" width="168.921" height="168.921" style="fill:rgb(242,224,98);stroke:black;stroke-width:4.24px;"/>
            </g>
            <g transform="matrix(0.264535,0,0,0.25,198.224,135.12)">
                <rect x="42.558" y="502.834" width="168.921" height="168.921" style="fill:rgb(242,224,98);stroke:black;stroke-width:4.24px;"/>
            </g>
            <g transform="matrix(0.264535,0,0,0.25,242.91,135.12)">
                <rect x="42.558" y="502.834" width="168.921" height="168.921" style="fill:rgb(232,109,66);stroke:black;stroke-width:4.24px;"/>
            </g>
            <g transform="matrix(0.264535,0,0,0.25,242.91,92.89)">
                <rect x="42.558" y="502.834" width="168.921" height="168.921" style="fill:rgb(242,224,98);stroke:black;stroke-width:4.24px;"/>
            </g>
            <g transform="matrix(0.264535,0,0,0.25,242.91,50.6598)">
                <rect x="42.558" y="502.834" width="168.921" height="168.921" style="fill:rgb(242,224,98);stroke:black;stroke-width:4.24px;"/>
            </g>
            <g transform="matrix(0.264535,0,0,0.25,242.91,8.42966)">
                <rect x="42.558" y="502.834" width="168.921" height="168.921" style="fill:rgb(242,224,98);stroke:black;stroke-width:4.24px;"/>
            </g>
            <g transform="matrix(0.264535,0,0,0.25,242.91,-33.8005)">
                <rect x="42.558" y="502.834" width="168.921" height="168.921" style="fill:rgb(232,109,66);stroke:black;stroke-width:4.24px;"/>
            </g>
            <g transform="matrix(0.264535,0,0,0.25,198.224,-33.8005)">
                <rect x="42.558" y="502.834" width="168.921" height="168.921" style="fill:rgb(242,224,98);stroke:black;stroke-width:4.24px;"/>
            </g>
            <g transform="matrix(0.264535,0,0,0.25,153.539,-33.8005)">
                <rect x="42.558" y="502.834" width="168.921" height="168.921" style="fill:rgb(242,224,98);stroke:black;stroke-width:4.24px;"/>
            </g>
            <g transform="matrix(0.264535,0,0,0.25,108.853,-33.8005)">
                <rect x="42.558" y="502.834" width="168.921" height="168.921" style="fill:rgb(242,224,98);stroke:black;stroke-width:4.24px;"/>
            </g>
            <g transform="matrix(0.264535,0,0,0.25,64.1679,-33.8005)">
                <rect x="42.558" y="502.834" width="168.921" height="168.921" style="fill:rgb(232,109,66);stroke:black;stroke-width:4.24px;"/>
            </g>
            <g transform="matrix(0.264535,0,0,0.25,64.1679,8.42966)">
                <rect x="42.558" y="502.834" width="168.921" height="168.921" style="fill:rgb(242,224,98);stroke:black;stroke-width:4.24px;"/>
            </g>
            <g transform="matrix(0.264535,0,0,0.25,64.1679,50.6598)">
                <rect x="42.558" y="502.834" width="168.921" height="168.921" style="fill:rgb(242,224,98);stroke:black;stroke-width:4.24px;"/>
            </g>
            <g transform="matrix(0.264535,0,0,0.25,64.1679,92.89)">
                <rect x="42.558" y="502.834" width="168.921" height="168.921" style="fill:rgb(242,224,98);stroke:black;stroke-width:4.24px;"/>
            </g>
            <g transform="matrix(0.264535,0,0,0.25,64.1679,92.89)">
                <rect x="42.558" y="502.834" width="168.921" height="168.921" style="fill:rgb(242,224,98);stroke:black;stroke-width:4.24px;"/>
            </g>
        </g>
    </g>
</svg>
