<?xml version="1.0" encoding="UTF-8" standalone="no"?>
<!DOCTYPE svg PUBLIC "-//W3C//DTD SVG 1.1//EN" "http://www.w3.org/Graphics/SVG/1.1/DTD/svg11.dtd">
<svg width="100%" height="100%" viewBox="0 0 147 242" version="1.1" xmlns="http://www.w3.org/2000/svg" xmlns:xlink="http://www.w3.org/1999/xlink" xml:space="preserve" xmlns:serif="http://www.serif.com/" style="fill-rule:evenodd;clip-rule:evenodd;stroke-linecap:round;stroke-linejoin:round;stroke-miterlimit:1.5;">
    <g transform="matrix(1,0,0,1,-405.605,-104.837)">
        <g transform="matrix(0.812869,0,0,0.812869,-29.0343,31.7379)">
            <g id="S-Pattern">
                <g transform="matrix(0.264535,0,0,0.25,524.112,7.1202)">
                    <rect x="42.558" y="502.834" width="168.921" height="168.921" style="fill:rgb(242,224,98);stroke:black;stroke-width:5.22px;"/>
                </g>
                <g transform="matrix(0.264535,0,0,0.25,524.112,49.3504)">
                    <rect x="42.558" y="502.834" width="168.921" height="168.921" style="fill:rgb(242,224,98);stroke:black;stroke-width:5.22px;"/>
                </g>
                <g transform="matrix(0.264535,0,0,0.25,524.112,91.5806)">
                    <rect x="42.558" y="502.834" width="168.921" height="168.921" style="fill:rgb(242,224,98);stroke:black;stroke-width:5.22px;"/>
                </g>
                <g transform="matrix(0.264535,0,0,0.25,568.797,91.5806)">
                    <rect x="42.558" y="502.834" width="168.921" height="168.921" style="fill:rgb(242,224,98);stroke:black;stroke-width:5.22px;"/>
                </g>
                <g transform="matrix(0.264535,0,0,0.25,568.797,-35.11)">
                    <rect x="42.558" y="502.834" width="168.921" height="168.921" style="fill:rgb(242,224,98);stroke:black;stroke-width:5.22px;"/>
                </g>
                <g transform="matrix(0.264535,0,0,0.25,658.168,-35.11)">
                    <rect x="42.558" y="502.834" width="168.921" height="168.921" style="fill:rgb(112,156,248);stroke:black;stroke-width:5.22px;"/>
                </g>
                <g transform="matrix(0.264535,0,0,0.25,613.482,-35.11)">
                    <rect x="42.558" y="502.834" width="168.921" height="168.921" style="fill:rgb(242,224,98);stroke:black;stroke-width:5.22px;"/>
                </g>
                <g transform="matrix(0.264535,0,0,0.25,524.112,-35.11)">
                    <rect x="42.558" y="502.834" width="168.921" height="168.921" style="fill:rgb(242,224,98);stroke:black;stroke-width:5.22px;"/>
                </g>
                <g transform="matrix(0.264535,0,0,0.25,613.482,91.5806)">
                    <rect x="42.558" y="502.834" width="168.921" height="168.921" style="fill:rgb(242,224,98);stroke:black;stroke-width:5.22px;"/>
                </g>
                <g transform="matrix(0.264535,0,0,0.25,658.168,91.5806)">
                    <rect x="42.558" y="502.834" width="168.921" height="168.921" style="fill:rgb(242,224,98);stroke:black;stroke-width:5.22px;"/>
                </g>
                <g transform="matrix(0.264535,0,0,0.25,658.168,133.811)">
                    <rect x="42.558" y="502.834" width="168.921" height="168.921" style="fill:rgb(242,224,98);stroke:black;stroke-width:5.22px;"/>
                </g>
                <g transform="matrix(0.264535,0,0,0.25,658.168,176.041)">
                    <rect x="42.558" y="502.834" width="168.921" height="168.921" style="fill:rgb(242,224,98);stroke:black;stroke-width:5.22px;"/>
                </g>
                <g transform="matrix(0.264535,0,0,0.25,658.168,218.271)">
                    <rect x="42.558" y="502.834" width="168.921" height="168.921" style="fill:rgb(242,224,98);stroke:black;stroke-width:5.22px;"/>
                </g>
                <g transform="matrix(0.264535,0,0,0.25,613.482,218.271)">
                    <rect x="42.558" y="502.834" width="168.921" height="168.921" style="fill:rgb(242,224,98);stroke:black;stroke-width:5.22px;"/>
                </g>
                <g transform="matrix(0.264535,0,0,0.25,568.797,218.271)">
                    <rect x="42.558" y="502.834" width="168.921" height="168.921" style="fill:rgb(242,224,98);stroke:black;stroke-width:5.22px;"/>
                </g>
                <g transform="matrix(0.264535,0,0,0.25,524.112,218.271)">
                    <rect x="42.558" y="502.834" width="168.921" height="168.921" style="fill:rgb(232,109,66);stroke:black;stroke-width:5.22px;"/>
                </g>
                <g transform="matrix(1,0,0,1,-4.88142,8.87616)">
                    <g transform="matrix(24,0,0,24,575.812,364.843)">
                    </g>
                    <text x="550.465px" y="364.843px" style="font-family:'ArialMT', 'Arial', sans-serif;font-size:24px;">x2</text>
                </g>
            </g>
        </g>
    </g>
</svg>
