<?xml version="1.0" encoding="UTF-8" standalone="no"?>
<!DOCTYPE svg PUBLIC "-//W3C//DTD SVG 1.1//EN" "http://www.w3.org/Graphics/SVG/1.1/DTD/svg11.dtd">
<svg width="100%" height="100%" viewBox="0 0 225 249" version="1.1" xmlns="http://www.w3.org/2000/svg" xmlns:xlink="http://www.w3.org/1999/xlink" xml:space="preserve" xmlns:serif="http://www.serif.com/" style="fill-rule:evenodd;clip-rule:evenodd;stroke-linecap:round;stroke-linejoin:round;stroke-miterlimit:1.5;">
    <g transform="matrix(1,0,0,1,-298.431,-233.65)">
        <path d="M405.512,257.843C406.177,255.448 408.358,253.79 410.844,253.79C413.33,253.79 415.511,255.448 416.176,257.843C423.614,284.615 436.201,329.923 436.201,329.923C436.201,329.923 478.995,329.923 502.775,329.923C505.16,329.923 507.292,331.411 508.115,333.65C508.938,335.889 508.277,338.404 506.459,339.949C487.381,356.16 451.872,386.333 451.872,386.333C451.872,386.333 462.847,425.836 470.356,452.866C471.282,456.201 469.924,459.75 467.007,461.614C464.091,463.478 460.3,463.221 457.662,460.979C438.081,444.34 410.844,421.196 410.844,421.196C410.844,421.196 386.071,442.247 366.792,458.629C363.782,461.187 359.454,461.481 356.125,459.353C352.797,457.226 351.246,453.175 352.304,449.369C359.751,422.561 369.816,386.333 369.816,386.333C369.816,386.333 335.018,356.764 315.81,340.442C313.903,338.822 313.209,336.183 314.072,333.834C314.936,331.484 317.173,329.923 319.676,329.923C343.595,329.923 385.487,329.923 385.487,329.923C385.487,329.923 398.074,284.615 405.512,257.843Z" style="fill:rgb(255,186,40);stroke:black;stroke-width:10px;"/>
    </g>
</svg>
