<?xml version="1.0" encoding="UTF-8" standalone="no"?>
<!DOCTYPE svg PUBLIC "-//W3C//DTD SVG 1.1//EN" "http://www.w3.org/Graphics/SVG/1.1/DTD/svg11.dtd">
<svg width="100%" height="100%" viewBox="0 0 220 217" version="1.1" xmlns="http://www.w3.org/2000/svg" xmlns:xlink="http://www.w3.org/1999/xlink" xml:space="preserve" xmlns:serif="http://www.serif.com/" style="fill-rule:evenodd;clip-rule:evenodd;stroke-linejoin:round;stroke-miterlimit:2;">
    <g transform="matrix(1,0,0,1,-400.041,-239.632)">
        <rect x="400.041" y="239.632" width="219.008" height="216.061" style="fill:white;"/>
        <g transform="matrix(0.671756,0,0,0.706294,-101.941,-40.7811)">
            <path d="M818.905,409.535L833.348,458.055L880.084,458.055L842.274,488.043L856.716,536.564L818.905,506.576L781.095,536.564L795.537,488.043L757.726,458.055L804.463,458.055L818.905,409.535Z" style="fill:rgb(188,188,188);"/>
        </g>
        <g transform="matrix(0.671756,0,0,0.706294,-101.941,58.4107)">
            <path d="M818.905,409.535L833.348,458.055L880.084,458.055L842.274,488.043L856.716,536.564L818.905,506.576L781.095,536.564L795.537,488.043L757.726,458.055L804.463,458.055L818.905,409.535Z" style="fill:rgb(188,188,188);"/>
        </g>
        <g transform="matrix(0.671756,0,0,0.706294,2.99295,58.4107)">
            <path d="M818.905,409.535L833.348,458.055L880.084,458.055L842.274,488.043L856.716,536.564L818.905,506.576L781.095,536.564L795.537,488.043L757.726,458.055L804.463,458.055L818.905,409.535Z" style="fill:rgb(188,188,188);"/>
        </g>
        <g transform="matrix(0.671756,0,0,0.706294,2.99295,-40.7811)">
            <path d="M818.905,409.535L833.348,458.055L880.084,458.055L842.274,488.043L856.716,536.564L818.905,506.576L781.095,536.564L795.537,488.043L757.726,458.055L804.463,458.055L818.905,409.535Z" style="fill:rgb(188,188,188);"/>
        </g>
    </g>
</svg>
