<?xml version="1.0" encoding="UTF-8" standalone="no"?><!DOCTYPE svg PUBLIC "-//W3C//DTD SVG 1.1//EN" "http://www.w3.org/Graphics/SVG/1.1/DTD/svg11.dtd"><svg width="100%" height="100%" viewBox="0 0 1102 1024" version="1.1" xmlns="http://www.w3.org/2000/svg" xmlns:xlink="http://www.w3.org/1999/xlink" xml:space="preserve" xmlns:serif="http://www.serif.com/" style="fill-rule:evenodd;clip-rule:evenodd;stroke-linecap:round;stroke-linejoin:round;stroke-miterlimit:1.5;"><ellipse cx="550.637" cy="511.748" rx="529.861" ry="490.972" style="fill:#bbe7bd;stroke:#118b16;stroke-width:41.55px;"/><ellipse cx="550.637" cy="511.748" rx="529.861" ry="490.972" style="fill:none;stroke:#e41b25;stroke-width:41.55px;"/><ellipse cx="518.969" cy="381.657" rx="309.359" ry="304.414" style="fill:#118b16;"/><ellipse cx="688.864" cy="313.832" rx="20.65" ry="31.25" style="fill:#bbe7bd;"/><path d="M455.427,234.586l212.788,646.547l-425.576,0l212.788,-646.547Z" style="fill:#118b16;"/><path d="M555.715,484.027l272.613,-70.078l-0.993,143.91l-271.62,-73.832Z" style="fill:#bbe7bd;"/><path d="M996.56,298.475l-143.428,64.839l3.256,33.328l143.429,-64.839l-3.257,-33.328Z" style="fill:#118b16;"/><path d="M999.534,477.326l-146.402,4.811l0.242,34.053l146.401,-4.811l-0.241,-34.053Z" style="fill:#118b16;"/><path d="M978.16,643.716l-123.914,-45.235l-2.664,33.761l123.914,45.236l2.664,-33.762Z" style="fill:#118b16;"/><path d="M877.63,129.599l-707.335,720.721l30.199,29.638l707.335,-720.721l-30.199,-29.638Z" style="fill:#e01a1a;stroke:#e41b25;stroke-width:41.55px;"/></svg>