<?xml version="1.0" encoding="UTF-8" standalone="no"?>
<!DOCTYPE svg PUBLIC "-//W3C//DTD SVG 1.1//EN" "http://www.w3.org/Graphics/SVG/1.1/DTD/svg11.dtd">
<svg width="100%" height="100%" viewBox="0 0 215 93" version="1.1" xmlns="http://www.w3.org/2000/svg" xmlns:xlink="http://www.w3.org/1999/xlink" xml:space="preserve" xmlns:serif="http://www.serif.com/" style="fill-rule:evenodd;clip-rule:evenodd;stroke-linecap:round;stroke-linejoin:round;stroke-miterlimit:1.5;">
    <g transform="matrix(1,0,0,1,-569.398,-378.138)">
        <g transform="matrix(2.58392e-17,-0.427518,0.356287,2.14099e-17,450.417,659.612)">
            <path d="M549.75,340.963L651.5,507.963L448,507.963L549.75,340.963Z" style="fill:rgb(225,30,30);stroke:black;stroke-width:12.71px;"/>
        </g>
        <g transform="matrix(1,0,0,1,-6.24263,48.435)">
            <path d="M663.96,347.147C664.024,344.747 664.032,342.347 663.984,339.947C663.936,337.547 664.024,335.147 664.248,332.747C664.28,332.299 664.392,331.963 664.584,331.739C664.776,331.515 665.016,331.371 665.304,331.307C665.592,331.243 665.912,331.211 666.264,331.211C666.616,331.211 666.984,331.195 667.368,331.163C668.712,331.131 670.024,331.115 671.304,331.115L675.24,331.115C675.784,331.115 676.16,331.187 676.368,331.331C676.576,331.475 676.68,331.819 676.68,332.363C676.68,337.835 676.64,343.011 676.56,347.891C676.48,352.771 676.392,357.611 676.296,362.411C676.296,365.515 675.704,367.835 674.52,369.371C673.336,370.907 671.368,371.771 668.616,371.963C665.128,372.027 661.872,372.027 658.848,371.963C655.824,371.899 652.84,371.947 649.896,372.107C649.352,372.107 648.912,372.059 648.576,371.963C648.24,371.867 647.992,371.723 647.832,371.531C647.672,371.339 647.568,371.099 647.52,370.811C647.472,370.523 647.448,370.187 647.448,369.803C647.512,368.267 647.512,366.795 647.448,365.387C647.384,363.979 647.384,362.507 647.448,360.971C647.48,360.299 647.624,359.851 647.88,359.627C648.136,359.403 648.632,359.275 649.368,359.243C650.936,359.179 652.544,359.155 654.192,359.171C655.84,359.187 657.448,359.163 659.016,359.099C659.784,359.067 660.504,358.931 661.176,358.691C661.848,358.451 662.408,358.011 662.856,357.371C662.92,357.275 662.992,357.147 663.072,356.987C663.152,356.827 663.24,356.619 663.336,356.363C661.768,356.299 660.24,356.323 658.752,356.435C657.264,356.547 655.768,356.603 654.264,356.603L652.992,356.603C652.496,356.603 651.984,356.595 651.456,356.579C650.928,356.563 650.416,356.531 649.92,356.483C649.424,356.435 649.016,356.379 648.696,356.315C648.056,356.251 647.528,355.923 647.112,355.331C646.696,354.739 646.456,354.027 646.392,353.195C646.264,352.043 646.176,350.899 646.128,349.763C646.08,348.627 646.024,347.499 645.96,346.379C645.96,345.515 645.952,344.643 645.936,343.763C645.92,342.883 645.904,341.947 645.888,340.955C645.872,339.963 645.864,338.899 645.864,337.763L645.864,332.939C645.864,332.619 645.912,332.339 646.008,332.099C646.104,331.859 646.256,331.667 646.464,331.523C646.672,331.379 646.984,331.307 647.4,331.307C648.2,331.307 649.088,331.299 650.064,331.283C651.04,331.267 652.032,331.259 653.04,331.259C654.048,331.259 655.032,331.267 655.992,331.283C656.952,331.299 657.832,331.307 658.632,331.307C658.824,331.307 659.016,331.299 659.208,331.283C659.4,331.267 659.576,331.275 659.736,331.307C660.376,331.371 660.8,331.531 661.008,331.787C661.216,332.043 661.304,332.507 661.272,333.179C661.208,334.523 661.152,335.867 661.104,337.211C661.056,338.555 661,339.915 660.936,341.291C660.904,341.963 660.872,342.643 660.84,343.331C660.808,344.019 660.824,344.683 660.888,345.323C660.92,345.867 661.024,346.275 661.2,346.547C661.376,346.819 661.6,347.003 661.872,347.099C662.144,347.195 662.464,347.235 662.832,347.219C663.2,347.203 663.576,347.179 663.96,347.147Z" style="fill:white;stroke:black;stroke-width:2px;stroke-linecap:butt;stroke-miterlimit:2;"/>
            <path d="M709.464,367.403C708.536,369.067 707.352,370.219 705.912,370.859C704.472,371.499 702.888,371.867 701.16,371.963C699.048,372.123 696.92,372.163 694.776,372.083C692.632,372.003 690.472,371.995 688.296,372.059C686.92,372.091 685.696,371.803 684.624,371.195C683.552,370.587 682.632,369.795 681.864,368.819C681.096,367.843 680.496,366.763 680.064,365.579C679.632,364.395 679.368,363.227 679.272,362.075C678.952,359.099 678.792,356.147 678.792,353.219C678.792,350.291 678.872,347.339 679.032,344.363C679.096,342.539 679.36,340.795 679.824,339.131C680.288,337.467 681.128,335.899 682.344,334.427C682.952,333.659 683.688,333.067 684.552,332.651C685.416,332.235 686.328,331.923 687.288,331.715C688.248,331.507 689.224,331.371 690.216,331.307C691.208,331.243 692.136,331.179 693,331.115C694.28,331.019 695.544,330.979 696.792,330.995C698.04,331.011 699.32,331.019 700.632,331.019C702.04,331.019 703.336,331.243 704.52,331.691C705.704,332.139 706.728,332.771 707.592,333.587C708.456,334.403 709.144,335.395 709.656,336.563C710.168,337.731 710.472,339.019 710.568,340.427C710.824,344.043 711,347.539 711.096,350.915C711.192,354.291 711.112,357.771 710.856,361.355C710.792,362.475 710.664,363.531 710.472,364.523C710.28,365.515 709.944,366.475 709.464,367.403ZM698.424,345.947C698.296,344.827 697.92,344.059 697.296,343.643C696.672,343.227 696,343.091 695.28,343.235C694.56,343.379 693.912,343.771 693.336,344.411C692.76,345.051 692.472,345.851 692.472,346.811C692.504,348.283 692.52,349.747 692.52,351.203C692.52,352.659 692.536,354.155 692.568,355.691C692.568,357.259 692.88,358.387 693.504,359.075C694.128,359.763 694.808,360.091 695.544,360.059C696.28,360.027 696.96,359.667 697.584,358.979C698.208,358.291 698.52,357.339 698.52,356.123C698.552,354.491 698.56,352.795 698.544,351.035C698.528,349.275 698.488,347.579 698.424,345.947Z" style="fill:white;stroke:black;stroke-width:2px;stroke-linecap:butt;stroke-miterlimit:2;"/>
            <path d="M727.896,354.059C727.896,355.179 728.056,356.235 728.376,357.227C729.016,358.827 730.232,359.579 732.024,359.483C732.664,359.419 733.232,359.139 733.728,358.643C734.224,358.147 734.568,357.515 734.76,356.747C734.824,356.491 734.88,356.227 734.928,355.955C734.976,355.683 735,355.419 735,355.163C735.096,351.547 735.048,348.011 734.856,344.555C734.664,341.099 734.536,337.595 734.472,334.043C734.312,332.027 735.208,331.003 737.16,330.971C738.184,330.907 739.232,330.851 740.304,330.803C741.376,330.755 742.44,330.731 743.496,330.731C744.072,330.731 744.632,330.723 745.176,330.707C745.72,330.691 746.216,330.731 746.664,330.827C747.112,330.923 747.48,331.107 747.768,331.379C748.056,331.651 748.248,332.075 748.344,332.651C748.92,336.427 749.28,340.323 749.424,344.339C749.568,348.355 749.464,352.267 749.112,356.075C749.016,357.547 748.84,358.891 748.584,360.107C748.328,361.323 747.952,362.443 747.456,363.467C746.96,364.491 746.312,365.443 745.512,366.323C744.712,367.203 743.72,368.043 742.536,368.843C740.168,370.283 737.72,371.227 735.192,371.675C732.664,372.123 730.04,372.123 727.32,371.675C726.264,371.515 725.2,371.323 724.128,371.099C723.056,370.875 722.056,370.555 721.128,370.139C718.92,369.179 717.192,367.875 715.944,366.227C714.696,364.579 713.944,362.555 713.688,360.155C713.592,359.355 713.504,358.563 713.424,357.779C713.344,356.995 713.304,356.203 713.304,355.403C713.336,353.003 713.392,350.611 713.472,348.227C713.552,345.843 713.624,343.451 713.688,341.051C713.72,339.931 713.752,338.827 713.784,337.739C713.816,336.651 713.864,335.547 713.928,334.427L713.928,333.659C713.928,333.403 713.976,333.163 714.072,332.939C714.264,332.203 714.512,331.715 714.816,331.475C715.12,331.235 715.576,331.131 716.184,331.163C717.752,331.227 719.32,331.259 720.888,331.259C722.456,331.259 724.024,331.275 725.592,331.307C727.224,331.307 728.056,332.091 728.088,333.659C728.248,337.179 728.264,340.619 728.136,343.979C728.008,347.339 727.928,350.699 727.896,354.059Z" style="fill:white;stroke:black;stroke-width:2px;stroke-linecap:butt;stroke-miterlimit:2;"/>
            <path d="M777.912,359.003C779.192,359.547 780.016,360.299 780.384,361.259C780.752,362.219 780.936,363.275 780.936,364.427C780.936,365.355 780.96,366.187 781.008,366.923C781.056,367.659 781.08,368.475 781.08,369.371C781.048,370.267 780.896,370.907 780.624,371.291C780.352,371.675 779.8,371.883 778.968,371.915C776.056,372.011 773.08,372.011 770.04,371.915C769.208,371.883 768.552,371.739 768.072,371.483C767.592,371.227 767.32,370.683 767.256,369.851C767.16,368.923 767.136,367.931 767.184,366.875C767.232,365.819 767.224,364.827 767.16,363.899C767.16,362.875 766.928,362.187 766.464,361.835C766,361.483 765.288,361.419 764.328,361.643C764.36,362.347 764.392,362.963 764.424,363.491C764.456,364.019 764.488,364.651 764.52,365.387C764.584,366.539 764.584,367.755 764.52,369.035C764.456,369.835 764.216,370.467 763.8,370.931C763.384,371.395 762.76,371.659 761.928,371.723C760.584,371.819 759.248,371.875 757.92,371.891C756.592,371.907 755.24,371.867 753.864,371.771C753,371.739 752.384,371.515 752.016,371.099C751.648,370.683 751.464,370.011 751.464,369.083C751.528,364.955 751.56,360.939 751.56,357.035C751.56,353.131 751.576,349.115 751.608,344.987L751.608,334.187C751.608,333.227 751.808,332.539 752.208,332.123C752.608,331.707 753.272,331.483 754.2,331.451C756.088,331.355 757.944,331.283 759.768,331.235C761.592,331.187 763.432,331.131 765.288,331.067L768.096,331.067C769.04,331.067 769.992,331.083 770.952,331.115C772.072,331.115 773.152,331.267 774.192,331.571C775.232,331.875 776.232,332.299 777.192,332.843C778.088,333.387 778.808,334.027 779.352,334.763C779.896,335.499 780.36,336.299 780.744,337.163C781.192,338.187 781.568,339.467 781.872,341.003C782.176,342.539 782.376,344.131 782.472,345.779C782.568,347.427 782.552,349.011 782.424,350.531C782.296,352.051 782.024,353.291 781.608,354.251C780.84,355.947 779.608,357.531 777.912,359.003ZM765.528,350.747C766.648,351.355 767.552,351.435 768.24,350.987C768.928,350.539 769.288,349.659 769.32,348.347C769.352,347.579 769.352,346.779 769.32,345.947C769.288,345.115 769.208,344.283 769.08,343.451C768.824,341.723 767.816,341.035 766.056,341.387C765.64,341.451 765.336,341.571 765.144,341.747C764.952,341.923 764.872,342.235 764.904,342.683C765,344.027 765.104,345.371 765.216,346.715C765.328,348.059 765.432,349.403 765.528,350.747Z" style="fill:white;stroke:black;stroke-width:2px;stroke-linecap:butt;stroke-miterlimit:2;"/>
            <path d="M670.872,400.235C670.936,403.179 671,406.091 671.064,408.971C671.128,411.851 671.176,414.763 671.208,417.707C671.208,419.147 670.92,420.155 670.344,420.731C669.768,421.307 668.76,421.595 667.32,421.595C664.568,421.595 661.832,421.499 659.112,421.307C658.824,421.307 658.544,421.283 658.272,421.235C658,421.187 657.72,421.131 657.432,421.067C656.888,420.907 656.504,420.691 656.28,420.419C656.056,420.147 655.944,419.739 655.944,419.195C655.912,418.747 655.904,418.291 655.92,417.827C655.936,417.363 655.944,416.907 655.944,416.459L655.944,395.531L652.824,395.531C652.184,395.531 651.536,395.539 650.88,395.555C650.224,395.571 649.544,395.547 648.84,395.483C647.976,395.355 647.32,395.059 646.872,394.595C646.424,394.131 646.168,393.435 646.104,392.507C646.04,391.003 646.008,389.499 646.008,387.995C646.008,386.491 646.024,384.971 646.056,383.435C646.088,382.347 646.352,381.587 646.848,381.155C647.344,380.723 648.12,380.523 649.176,380.555C653.368,380.587 657.536,380.611 661.68,380.627C665.824,380.643 669.992,380.683 674.184,380.747C674.632,380.747 675.096,380.731 675.576,380.699C676.056,380.667 676.52,380.635 676.968,380.603C677.768,380.539 678.408,380.683 678.888,381.035C679.368,381.387 679.64,381.947 679.704,382.715C679.8,383.227 679.832,383.763 679.8,384.323C679.768,384.883 679.752,385.435 679.752,385.979C679.72,387.099 679.688,388.195 679.656,389.267C679.624,390.339 679.56,391.403 679.464,392.459C679.368,393.387 679.16,393.971 678.84,394.211C678.52,394.451 677.88,394.587 676.92,394.619C675.96,394.651 674.984,394.699 673.992,394.763C673,394.827 671.96,394.891 670.872,394.955L670.872,400.235Z" style="fill:white;stroke:black;stroke-width:2px;stroke-linecap:butt;stroke-miterlimit:2;"/>
            <path d="M696.36,403.547C696.36,404.667 696.52,405.723 696.84,406.715C697.48,408.315 698.696,409.067 700.488,408.971C701.128,408.907 701.696,408.627 702.192,408.131C702.688,407.635 703.032,407.003 703.224,406.235C703.288,405.979 703.344,405.715 703.392,405.443C703.44,405.171 703.464,404.907 703.464,404.651C703.56,401.035 703.512,397.499 703.32,394.043C703.128,390.587 703,387.083 702.936,383.531C702.776,381.515 703.672,380.491 705.624,380.459C706.648,380.395 707.696,380.339 708.768,380.291C709.84,380.243 710.904,380.219 711.96,380.219C712.536,380.219 713.096,380.211 713.64,380.195C714.184,380.179 714.68,380.219 715.128,380.315C715.576,380.411 715.944,380.595 716.232,380.867C716.52,381.139 716.712,381.563 716.808,382.139C717.384,385.915 717.744,389.811 717.888,393.827C718.032,397.843 717.928,401.755 717.576,405.563C717.48,407.035 717.304,408.379 717.048,409.595C716.792,410.811 716.416,411.931 715.92,412.955C715.424,413.979 714.776,414.931 713.976,415.811C713.176,416.691 712.184,417.531 711,418.331C708.632,419.771 706.184,420.715 703.656,421.163C701.128,421.611 698.504,421.611 695.784,421.163C694.728,421.003 693.664,420.811 692.592,420.587C691.52,420.363 690.52,420.043 689.592,419.627C687.384,418.667 685.656,417.363 684.408,415.715C683.16,414.067 682.408,412.043 682.152,409.643C682.056,408.843 681.968,408.051 681.888,407.267C681.808,406.483 681.768,405.691 681.768,404.891C681.8,402.491 681.856,400.099 681.936,397.715C682.016,395.331 682.088,392.939 682.152,390.539C682.184,389.419 682.216,388.315 682.248,387.227C682.28,386.139 682.328,385.035 682.392,383.915L682.392,383.147C682.392,382.891 682.44,382.651 682.536,382.427C682.728,381.691 682.976,381.203 683.28,380.963C683.584,380.723 684.04,380.619 684.648,380.651C686.216,380.715 687.784,380.747 689.352,380.747C690.92,380.747 692.488,380.763 694.056,380.795C695.688,380.795 696.52,381.579 696.552,383.147C696.712,386.667 696.728,390.107 696.6,393.467C696.472,396.827 696.392,400.187 696.36,403.547Z" style="fill:white;stroke:black;stroke-width:2px;stroke-linecap:butt;stroke-miterlimit:2;"/>
            <path d="M746.376,408.491C747.656,409.035 748.48,409.787 748.848,410.747C749.216,411.707 749.4,412.763 749.4,413.915C749.4,414.843 749.424,415.675 749.472,416.411C749.52,417.147 749.544,417.963 749.544,418.859C749.512,419.755 749.36,420.395 749.088,420.779C748.816,421.163 748.264,421.371 747.432,421.403C744.52,421.499 741.544,421.499 738.504,421.403C737.672,421.371 737.016,421.227 736.536,420.971C736.056,420.715 735.784,420.171 735.72,419.339C735.624,418.411 735.6,417.419 735.648,416.363C735.696,415.307 735.688,414.315 735.624,413.387C735.624,412.363 735.392,411.675 734.928,411.323C734.464,410.971 733.752,410.907 732.792,411.131C732.824,411.835 732.856,412.451 732.888,412.979C732.92,413.507 732.952,414.139 732.984,414.875C733.048,416.027 733.048,417.243 732.984,418.523C732.92,419.323 732.68,419.955 732.264,420.419C731.848,420.883 731.224,421.147 730.392,421.211C729.048,421.307 727.712,421.363 726.384,421.379C725.056,421.395 723.704,421.355 722.328,421.259C721.464,421.227 720.848,421.003 720.48,420.587C720.112,420.171 719.928,419.499 719.928,418.571C719.992,414.443 720.024,410.427 720.024,406.523C720.024,402.619 720.04,398.603 720.072,394.475L720.072,383.675C720.072,382.715 720.272,382.027 720.672,381.611C721.072,381.195 721.736,380.971 722.664,380.939C724.552,380.843 726.408,380.771 728.232,380.723C730.056,380.675 731.896,380.619 733.752,380.555L736.56,380.555C737.504,380.555 738.456,380.571 739.416,380.603C740.536,380.603 741.616,380.755 742.656,381.059C743.696,381.363 744.696,381.787 745.656,382.331C746.552,382.875 747.272,383.515 747.816,384.251C748.36,384.987 748.824,385.787 749.208,386.651C749.656,387.675 750.032,388.955 750.336,390.491C750.64,392.027 750.84,393.619 750.936,395.267C751.032,396.915 751.016,398.499 750.888,400.019C750.76,401.539 750.488,402.779 750.072,403.739C749.304,405.435 748.072,407.019 746.376,408.491ZM733.992,400.235C735.112,400.843 736.016,400.923 736.704,400.475C737.392,400.027 737.752,399.147 737.784,397.835C737.816,397.067 737.816,396.267 737.784,395.435C737.752,394.603 737.672,393.771 737.544,392.939C737.288,391.211 736.28,390.523 734.52,390.875C734.104,390.939 733.8,391.059 733.608,391.235C733.416,391.411 733.336,391.723 733.368,392.171C733.464,393.515 733.568,394.859 733.68,396.203C733.792,397.547 733.896,398.891 733.992,400.235Z" style="fill:white;stroke:black;stroke-width:2px;stroke-linecap:butt;stroke-miterlimit:2;"/>
            <path d="M767.544,406.955C767.544,409.035 767.552,411.099 767.568,413.147C767.584,415.195 767.576,417.227 767.544,419.243C767.544,420.043 767.408,420.547 767.136,420.755C766.864,420.963 766.328,421.083 765.528,421.115C764.12,421.179 762.712,421.219 761.304,421.235C759.896,421.251 758.456,421.291 756.984,421.355C756.312,421.387 755.76,421.371 755.328,421.307C754.896,421.243 754.552,421.107 754.296,420.899C754.04,420.691 753.856,420.387 753.744,419.987C753.632,419.587 753.576,419.067 753.576,418.427C753.512,415.931 753.456,413.483 753.408,411.083C753.36,408.683 753.32,406.283 753.288,403.883C753.224,400.491 753.168,397.123 753.12,393.779C753.072,390.435 753.016,387.051 752.952,383.627C752.952,383.371 752.96,383.091 752.976,382.787C752.992,382.483 753.032,382.155 753.096,381.803C753.224,380.939 753.752,380.539 754.68,380.603C756.44,380.635 758.184,380.675 759.912,380.723C761.64,380.771 763.384,380.763 765.144,380.699C765.944,380.699 766.568,380.851 767.016,381.155C767.464,381.459 767.848,381.947 768.168,382.619C769.192,385.179 770.248,387.699 771.336,390.179C772.424,392.659 773.496,395.147 774.552,397.643C774.648,397.963 774.776,398.243 774.936,398.483C775.096,398.723 775.32,398.971 775.608,399.227C775.512,398.299 775.44,397.387 775.392,396.491C775.344,395.595 775.288,394.683 775.224,393.755C775.096,392.027 774.992,390.283 774.912,388.523C774.832,386.763 774.728,384.987 774.6,383.195C774.6,383.003 774.592,382.811 774.576,382.619C774.56,382.427 774.584,382.235 774.648,382.043C774.744,381.659 774.904,381.331 775.128,381.059C775.352,380.787 775.704,380.651 776.184,380.651C778.008,380.619 779.848,380.587 781.704,380.555C783.56,380.523 785.4,380.507 787.224,380.507C787.96,380.507 788.464,380.659 788.736,380.963C789.008,381.267 789.144,381.819 789.144,382.619C789.144,384.507 789.12,386.379 789.072,388.235C789.024,390.091 789,391.979 789,393.899C788.936,394.731 788.936,395.547 789,396.347C789.064,397.147 789.096,397.963 789.096,398.795C789.128,404.523 789.128,410.267 789.096,416.027C789.096,416.667 789.056,417.299 788.976,417.923C788.896,418.547 788.824,419.179 788.76,419.819C788.664,420.363 788.496,420.739 788.256,420.947C788.016,421.155 787.592,421.291 786.984,421.355C786.472,421.419 785.96,421.443 785.448,421.427C784.936,421.411 784.424,421.403 783.912,421.403L775.272,421.403C774.792,421.403 774.416,421.387 774.144,421.355C773.872,421.323 773.648,421.243 773.472,421.115C773.296,420.987 773.144,420.803 773.016,420.563C772.888,420.323 772.728,419.995 772.536,419.579C771.8,417.659 771.08,415.763 770.376,413.891C769.672,412.019 768.968,410.123 768.264,408.203C768.2,408.011 768.104,407.819 767.976,407.627C767.848,407.435 767.704,407.211 767.544,406.955Z" style="fill:white;stroke:black;stroke-width:2px;stroke-linecap:butt;stroke-miterlimit:2;"/>
        </g>
    </g>
</svg>
