<?xml version="1.0" encoding="UTF-8" standalone="no"?>
<!DOCTYPE svg PUBLIC "-//W3C//DTD SVG 1.1//EN" "http://www.w3.org/Graphics/SVG/1.1/DTD/svg11.dtd">
<svg width="100%" height="100%" viewBox="0 0 273 248" version="1.1" xmlns="http://www.w3.org/2000/svg" xmlns:xlink="http://www.w3.org/1999/xlink" xml:space="preserve" xmlns:serif="http://www.serif.com/" style="fill-rule:evenodd;clip-rule:evenodd;stroke-linejoin:round;stroke-miterlimit:2;">
    <g transform="matrix(1,0,0,1,-380.385,-260.866)">
        <g transform="matrix(0.764045,0,0,0.669588,-84.8561,198.072)">
            <rect x="608.918" y="93.78" width="356" height="370" style="fill:rgb(244,196,198);"/>
        </g>
        <g transform="matrix(0.0411049,0,0,0.669588,355.388,198.072)">
            <rect x="608.918" y="93.78" width="356" height="370" style="fill:rgb(201,77,67);"/>
        </g>
        <g transform="matrix(0.0402616,0,0,0.669586,614.536,198.072)">
            <rect x="608.918" y="93.78" width="356" height="370" style="fill:rgb(201,77,67);"/>
        </g>
        <g transform="matrix(2.65212e-18,0.0428054,-0.697387,4.26647e-17,717.652,467.309)">
            <rect x="608.918" y="93.78" width="356" height="370" style="fill:rgb(201,77,67);"/>
        </g>
        <g transform="matrix(2.548e-18,0.0411049,-0.697387,4.26662e-17,717.652,235.836)">
            <rect x="608.918" y="93.78" width="356" height="370" style="fill:rgb(201,77,67);"/>
        </g>
        <g transform="matrix(0.336088,-0.194564,0.213882,0.369458,378.072,293.669)">
            <rect x="122.631" y="234.488" width="168.667" height="238" style="fill:rgb(8,8,8);fill-opacity:0.5;"/>
        </g>
        <g transform="matrix(0.336088,-0.194564,0.213882,0.369458,378.072,284.357)">
            <rect x="122.631" y="234.488" width="168.667" height="238" style="fill:rgb(201,77,67);"/>
        </g>
        <g transform="matrix(1,0,0,1,497.908,392.557)">
            <g transform="matrix(56,0,0,56,0,0)">
                <path d="M0.011,-0.5L0.121,-0.5L0.226,-0.334L0.331,-0.5L0.441,-0.5L0.274,-0.261L0.455,-0L0.346,-0L0.226,-0.189L0.106,-0L-0.003,-0L0.178,-0.261L0.011,-0.5Z" style="fill:rgb(244,196,198);fill-rule:nonzero;"/>
            </g>
            <g transform="matrix(56,0,0,56,25.3203,0)">
                <path d="M0.466,-0.088L0.466,-0L0.047,-0L0.047,-0.094C0.047,-0.129 0.051,-0.159 0.06,-0.184C0.068,-0.209 0.08,-0.231 0.096,-0.25C0.113,-0.27 0.132,-0.288 0.156,-0.303C0.179,-0.319 0.205,-0.334 0.235,-0.35C0.258,-0.363 0.278,-0.374 0.295,-0.384C0.312,-0.394 0.325,-0.406 0.336,-0.418C0.346,-0.43 0.354,-0.444 0.359,-0.46C0.364,-0.477 0.366,-0.498 0.366,-0.523C0.366,-0.555 0.358,-0.578 0.342,-0.592C0.326,-0.606 0.304,-0.613 0.275,-0.613L0.254,-0.613C0.242,-0.613 0.229,-0.612 0.218,-0.61C0.206,-0.608 0.195,-0.603 0.186,-0.597C0.176,-0.591 0.167,-0.582 0.16,-0.57C0.153,-0.559 0.148,-0.543 0.145,-0.525L0.048,-0.543C0.059,-0.597 0.082,-0.637 0.116,-0.662C0.15,-0.688 0.195,-0.7 0.251,-0.7L0.275,-0.7C0.336,-0.7 0.383,-0.685 0.416,-0.655C0.448,-0.624 0.464,-0.582 0.464,-0.527C0.464,-0.49 0.459,-0.458 0.449,-0.433C0.439,-0.408 0.425,-0.386 0.409,-0.368C0.392,-0.35 0.373,-0.335 0.351,-0.322C0.329,-0.309 0.307,-0.296 0.283,-0.283C0.256,-0.269 0.233,-0.255 0.215,-0.241C0.197,-0.228 0.183,-0.215 0.173,-0.2C0.162,-0.186 0.155,-0.171 0.151,-0.155C0.147,-0.138 0.145,-0.119 0.145,-0.097L0.145,-0.088L0.466,-0.088Z" style="fill:rgb(244,196,198);fill-rule:nonzero;"/>
            </g>
        </g>
    </g>
</svg>
