<?xml version="1.0" encoding="UTF-8" standalone="no"?><!DOCTYPE svg PUBLIC "-//W3C//DTD SVG 1.1//EN" "http://www.w3.org/Graphics/SVG/1.1/DTD/svg11.dtd"><svg width="100%" height="100%" viewBox="0 0 4621 7946" version="1.1" xmlns="http://www.w3.org/2000/svg" xmlns:xlink="http://www.w3.org/1999/xlink" xml:space="preserve" xmlns:serif="http://www.serif.com/" style="fill-rule:evenodd;clip-rule:evenodd;stroke-linejoin:round;stroke-miterlimit:2;"><g><rect x="0" y="0" width="4620.62" height="7945.42" style="fill:#fff;"/><path d="M1237.81,4790.71c0,270 112.5,498.334 337.5,685c225,186.667 460.834,280 707.5,280c333.334,0 600,-110 800,-330c200,-220 300,-503.333 300,-850c0,-483.333 -139.166,-921.666 -417.5,-1315c-278.333,-393.333 -635.833,-590 -1072.5,-590l-125,5l-50,150c106.667,33.334 213.334,65 320,95c353.334,173.334 580,581.667 680,1225c-60,-90 -134.166,-162.5 -222.5,-217.5c-88.333,-55 -194.166,-82.5 -317.5,-82.5c-240,0 -456.666,87.5 -650,262.5c-193.333,175 -290,402.5 -290,682.5Zm1050,-660c93.334,0 188.334,30.834 285,92.5c96.667,61.667 151.667,118.334 165,170c13.334,51.667 21.667,94.167 25,127.5c3.334,33.334 5,71.667 5,115c0,583.334 -161.666,875 -485,875c-120,0 -214.166,-63.333 -282.5,-190c-68.333,-126.666 -102.5,-281.666 -102.5,-465c0,-210 21.667,-383.333 65,-520c43.334,-136.666 151.667,-205 325,-205Z" style="fill:#ff69db;fill-rule:nonzero;"/></g></svg>