<?xml version="1.0" encoding="UTF-8" standalone="no"?><!DOCTYPE svg PUBLIC "-//W3C//DTD SVG 1.1//EN" "http://www.w3.org/Graphics/SVG/1.1/DTD/svg11.dtd"><svg width="100%" height="100%" viewBox="0 0 1109 1907" version="1.1" xmlns="http://www.w3.org/2000/svg" xmlns:xlink="http://www.w3.org/1999/xlink" xml:space="preserve" xmlns:serif="http://www.serif.com/" style="fill-rule:evenodd;clip-rule:evenodd;stroke-linejoin:round;stroke-miterlimit:2;"><g><rect x="0" y="0" width="1108.95" height="1906.9" style="fill:#fff;"/><path d="M426.076,991.371c57.6,-12 103.4,-35.2 137.4,-69.6c34,-34.4 51,-68 51,-100.8c-0,-32.8 -10,-61.4 -30,-85.8c-20,-24.4 -49.2,-36.6 -87.6,-36.6c-27.2,0 -52.8,6.6 -76.8,19.8c-24,13.2 -45.2,26.6 -63.6,40.2l-32.4,-24c43.2,-33.6 81.4,-58 114.6,-73.2c33.2,-15.2 73,-22.8 119.4,-22.8c61.6,0 111.6,14.6 150,43.8c38.4,29.2 57.6,69 57.6,119.4c-0,37.6 -16.4,73.6 -49.2,108c-32.8,34.4 -71.2,58 -115.2,70.8c53.6,8.8 98.2,27.6 133.8,56.4c35.6,28.8 53.4,68 53.4,117.6c-0,75.2 -41.2,132.2 -123.6,171c-82.4,38.8 -180.8,58.2 -295.2,58.2l-49.2,0l12,-50.4l49.2,2.4c84,0 146.6,-16.6 187.8,-49.8c41.2,-33.2 61.8,-77 61.8,-131.4c-0,-39.2 -20,-68.6 -60,-88.2c-40,-19.6 -88.4,-29.4 -145.2,-29.4l-0,-45.6Z" style="fill:#de1d68;fill-rule:nonzero;"/></g></svg>