<?xml version="1.0" encoding="UTF-8" standalone="no"?><!DOCTYPE svg PUBLIC "-//W3C//DTD SVG 1.1//EN" "http://www.w3.org/Graphics/SVG/1.1/DTD/svg11.dtd"><svg width="100%" height="100%" viewBox="0 0 4621 7946" version="1.1" xmlns="http://www.w3.org/2000/svg" xmlns:xlink="http://www.w3.org/1999/xlink" xml:space="preserve" xmlns:serif="http://www.serif.com/" style="fill-rule:evenodd;clip-rule:evenodd;stroke-linejoin:round;stroke-miterlimit:2;"><g><rect x="0" y="0" width="4620.62" height="7945.42" style="fill:#fff;"/><path d="M2845.31,4130.71c-240,-50 -430.833,-146.667 -572.5,-290c-141.666,-143.334 -212.5,-283.334 -212.5,-420c0,-136.667 41.667,-255.834 125,-357.5c83.334,-101.667 205,-152.5 365,-152.5c113.334,-0 220,27.5 320,82.5c100,55 188.334,110.833 265,167.5l135,-100c-180,-140 -339.166,-241.667 -477.5,-305c-138.333,-63.334 -304.166,-95 -497.5,-95c-256.666,-0 -465,60.833 -625,182.5c-160,121.666 -240,287.5 -240,497.5c0,156.666 68.334,306.666 205,450c136.667,143.333 296.667,241.666 480,295c-223.333,36.666 -409.166,114.999 -557.5,235c-148.333,120 -222.5,283.333 -222.5,489.999c0,313.334 171.667,550.834 515,712.501c343.334,161.666 753.334,242.5 1230,242.5l205,-0l-50,-210.001l-205,10.001c-350,-0 -610.833,-69.167 -782.5,-207.5c-171.666,-138.334 -257.5,-320.834 -257.5,-547.501c0,-163.333 83.334,-285.833 250,-367.499c166.667,-81.667 368.334,-122.501 605,-122.501l0,-189.999Z" style="fill:#de1d68;fill-rule:nonzero;"/></g></svg>