<?xml version="1.0" encoding="UTF-8" standalone="no"?><!DOCTYPE svg PUBLIC "-//W3C//DTD SVG 1.1//EN" "http://www.w3.org/Graphics/SVG/1.1/DTD/svg11.dtd"><svg width="100%" height="100%" viewBox="0 0 1109 1907" version="1.1" xmlns="http://www.w3.org/2000/svg" xmlns:xlink="http://www.w3.org/1999/xlink" xml:space="preserve" xmlns:serif="http://www.serif.com/" style="fill-rule:evenodd;clip-rule:evenodd;stroke-linejoin:round;stroke-miterlimit:2;"><g><rect x="0" y="0" width="1108.95" height="1906.9" style="fill:#fff;"/><path d="M297.076,872.571c-0,-64.8 27,-119.6 81,-164.4c54,-44.8 110.2,-67.2 168.6,-67.2c80.8,0 145.2,26.4 193.2,79.2c48,52.8 72,120.8 72,204c-0,115.2 -33.6,220.2 -100.8,315c-67.2,94.8 -152.8,142.2 -256.8,142.2l-30,-1.2l-12,-37.2c76.8,-24.8 132,-57.8 165.6,-99c33.6,-41.2 58.4,-113.4 74.4,-216.6c-14.4,21.6 -32.2,39 -53.4,52.2c-21.2,13.2 -47,19.8 -77.4,19.8c-57.6,0 -109.4,-21 -155.4,-63c-46,-42 -69,-96.6 -69,-163.8Zm252,158.4c22.4,0 45,-7.4 67.8,-22.2c22.8,-14.8 35.8,-28 39,-39.6c3.2,-11.6 5.4,-20.4 6.6,-26.4c1.2,-6 1.8,-17 1.8,-33c-0,-140 -39.2,-210 -117.6,-210c-28.8,0 -51.4,15.2 -67.8,45.6c-16.4,30.4 -24.6,67.6 -24.6,111.6c-0,51.2 5.4,93 16.2,125.4c10.8,32.4 37,48.6 78.6,48.6Z" style="fill:#159222;fill-rule:nonzero;"/></g></svg>