<?xml version="1.0" encoding="UTF-8" standalone="no"?><!DOCTYPE svg PUBLIC "-//W3C//DTD SVG 1.1//EN" "http://www.w3.org/Graphics/SVG/1.1/DTD/svg11.dtd"><svg width="100%" height="100%" viewBox="0 0 4621 7946" version="1.1" xmlns="http://www.w3.org/2000/svg" xmlns:xlink="http://www.w3.org/1999/xlink" xml:space="preserve" xmlns:serif="http://www.serif.com/" style="fill-rule:evenodd;clip-rule:evenodd;stroke-linejoin:round;stroke-miterlimit:2;"><g><rect x="0" y="0" width="4620.62" height="7945.42" style="fill:#fff;"/><path d="M3382.81,3635.71c0,-270 -112.5,-498.334 -337.5,-685c-225,-186.667 -459.166,-280.001 -702.5,-280.001c-336.666,0.001 -605,110.001 -805,330.001c-200,219.999 -300,503.333 -300,850c0,480 140,917.5 420,1312.5c280,395 636.667,592.5 1070,592.5l125,-5l50,-155c-320,-103.334 -550,-240.834 -690,-412.5c-140,-171.667 -243.333,-472.501 -310,-902.5c60,90 134.167,162.5 222.5,217.5c88.334,55 195.834,82.5 322.5,82.5c240,-0 455.834,-87.5 647.5,-262.5c191.667,-175 287.5,-402.5 287.5,-682.5Zm-1050,660c-93.333,-0 -187.5,-30.834 -282.5,-92.5c-95,-61.667 -149.166,-116.667 -162.5,-165c-13.333,-48.334 -22.5,-85 -27.5,-110c-5,-25 -7.5,-70.834 -7.5,-137.5c0,-583.334 163.334,-875 490,-875c120,-0 214.167,63.333 282.5,190c68.334,126.666 102.5,281.666 102.5,465c0,213.333 -22.5,387.5 -67.5,522.5c-45,135 -154.166,202.5 -327.5,202.5Z" style="fill:#159222;fill-rule:nonzero;"/></g></svg>