<?xml version="1.0" encoding="UTF-8" standalone="no"?><!DOCTYPE svg PUBLIC "-//W3C//DTD SVG 1.1//EN" "http://www.w3.org/Graphics/SVG/1.1/DTD/svg11.dtd"><svg width="100%" height="100%" viewBox="0 0 1109 1907" version="1.1" xmlns="http://www.w3.org/2000/svg" xmlns:xlink="http://www.w3.org/1999/xlink" xml:space="preserve" xmlns:serif="http://www.serif.com/" style="fill-rule:evenodd;clip-rule:evenodd;stroke-linejoin:round;stroke-miterlimit:2;"><g><rect x="0" y="0" width="1108.95" height="1906.9" style="fill:#fff;"/><path d="M788.476,1154.66c-0,75.2 -43.2,130.8 -129.6,166.8c-100,40.8 -198.8,58.4 -296.4,52.8l-42,-2.4l2.4,-50.4l30,0c99.2,0 166,-8.8 200.4,-26.4c49.6,-24.8 74.4,-66 74.4,-123.6c-0,-36 -15.8,-66 -47.4,-90c-31.6,-24 -67.8,-36 -108.6,-36c-48.8,0 -98.4,4 -148.8,12l2.4,-410.4l426,0l-54,128.4l-309.6,0l-0,198c66.4,-7.2 113.2,-10.8 140.4,-10.8c68.8,0 129.4,15.8 181.8,47.4c52.4,31.6 78.6,79.8 78.6,144.6Z" style="fill:#3f64c6;fill-rule:nonzero;"/></g></svg>