<?xml version="1.0" encoding="UTF-8" standalone="no"?><!DOCTYPE svg PUBLIC "-//W3C//DTD SVG 1.1//EN" "http://www.w3.org/Graphics/SVG/1.1/DTD/svg11.dtd"><svg width="100%" height="100%" viewBox="0 0 1109 1907" version="1.1" xmlns="http://www.w3.org/2000/svg" xmlns:xlink="http://www.w3.org/1999/xlink" xml:space="preserve" xmlns:serif="http://www.serif.com/" style="fill-rule:evenodd;clip-rule:evenodd;stroke-linejoin:round;stroke-miterlimit:2;"><g><rect x="0" y="0" width="1108.95" height="1906.9" style="fill:#fff;"/><path d="M811.876,1149.77c-0,64.8 -27,119.6 -81,164.4c-54,44.8 -110.6,67.2 -169.8,67.2c-80,0 -144,-26.4 -192,-79.2c-48,-52.8 -72,-120.8 -72,-204c-0,-116 33.4,-221.2 100.2,-315.6c66.8,-94.4 152.6,-141.6 257.4,-141.6l30,1.2l12,36c-25.6,8 -51.2,15.6 -76.8,22.8c-84.8,41.6 -139.2,139.6 -163.2,294c14.4,-21.6 32.2,-39 53.4,-52.2c21.2,-13.2 46.6,-19.8 76.2,-19.8c57.6,0 109.6,21 156,63c46.4,42 69.6,96.6 69.6,163.8Zm-252,-158.4c-22.4,0 -45.2,7.4 -68.4,22.2c-23.2,14.8 -36.4,28.4 -39.6,40.8c-3.2,12.4 -5.2,22.6 -6,30.6c-0.8,8 -1.2,17.2 -1.2,27.6c-0,140 38.8,210 116.4,210c28.8,0 51.4,-15.2 67.8,-45.6c16.4,-30.4 24.6,-67.6 24.6,-111.6c-0,-50.4 -5.2,-92 -15.6,-124.8c-10.4,-32.8 -36.4,-49.2 -78,-49.2Z" style="fill:#ff69db;fill-rule:nonzero;"/></g></svg>