<?xml version="1.0" encoding="UTF-8" standalone="no"?><!DOCTYPE svg PUBLIC "-//W3C//DTD SVG 1.1//EN" "http://www.w3.org/Graphics/SVG/1.1/DTD/svg11.dtd"><svg width="100%" height="100%" viewBox="0 0 4621 7946" version="1.1" xmlns="http://www.w3.org/2000/svg" xmlns:xlink="http://www.w3.org/1999/xlink" xml:space="preserve" xmlns:serif="http://www.serif.com/" style="fill-rule:evenodd;clip-rule:evenodd;stroke-linejoin:round;stroke-miterlimit:2;"><g><rect x="0" y="0" width="4620.62" height="7945.42" style="fill:#fff;"/><path d="M1335.31,4811.08c0,313.334 180,545 540,695c416.667,170 828.334,243.334 1235,220l175,-10l-10,-210l-125,0c-413.333,0 -691.666,-36.666 -835,-110c-206.666,-103.333 -310,-275 -310,-515c0,-150 65.834,-275 197.5,-375c131.667,-100 282.5,-150 452.5,-150c203.334,0 410,16.667 620,50l-10,-1710l-1775,0l225,535l1290,0l0,825c-276.666,-30 -471.666,-45 -585,-45c-286.666,0 -539.166,65.834 -757.5,197.5c-218.333,131.667 -327.5,332.5 -327.5,602.5Z" style="fill:#3f64c6;fill-rule:nonzero;"/></g></svg>