<?xml version="1.0" encoding="UTF-8" standalone="no"?><!DOCTYPE svg PUBLIC "-//W3C//DTD SVG 1.1//EN" "http://www.w3.org/Graphics/SVG/1.1/DTD/svg11.dtd"><svg width="100%" height="100%" viewBox="0 0 1109 1907" version="1.1" xmlns="http://www.w3.org/2000/svg" xmlns:xlink="http://www.w3.org/1999/xlink" xml:space="preserve" xmlns:serif="http://www.serif.com/" style="fill-rule:evenodd;clip-rule:evenodd;stroke-linejoin:round;stroke-miterlimit:2;"><g><rect x="0" y="0" width="1108.95" height="1906.9" style="fill:#fff;"/><path d="M689.476,984.771c30.4,-15.2 54.8,-36.8 73.2,-64.8c18.4,-28 27.6,-58.8 27.6,-92.4c-0,-26.4 -6.4,-51 -19.2,-73.8c-12.8,-22.8 -30.6,-42.6 -53.4,-59.4c-22.8,-16.8 -48.4,-29.8 -76.8,-39c-28.4,-9.2 -57.4,-13.8 -87,-13.8c-29.6,0 -58.6,4.6 -87,13.8c-28.4,9.2 -53.6,22.2 -75.6,39c-22,16.8 -39.6,36.6 -52.8,59.4c-13.2,22.8 -19.8,47.4 -19.8,73.8c-0,32.8 9,63.4 27,91.8c18,28.4 42.2,51 72.6,67.8c-40,16.8 -70.4,41.4 -91.2,73.8c-20.8,32.4 -31.2,70.6 -31.2,114.6c-0,31.2 7.2,59.6 21.6,85.2c14.4,25.6 34,47.4 58.8,65.4c24.8,18 52.6,31.6 83.4,40.8c30.8,9.2 62.2,13.8 94.2,13.8c32,0 63.6,-4.6 94.8,-13.8c31.2,-9.2 59.2,-22.8 84,-40.8c24.8,-18 44.4,-39.8 58.8,-65.4c14.4,-25.6 21.6,-54 21.6,-85.2c-0,-44 -10.6,-82.4 -31.8,-115.2c-21.2,-32.8 -51.8,-58 -91.8,-75.6Zm-241.2,190.8c-0,-40.8 9.2,-77 27.6,-108.6c18.4,-31.6 44.4,-47.4 78,-47.4c33.6,0 59.8,15.8 78.6,47.4c18.8,31.6 28.2,67.8 28.2,108.6c-0,38.4 -9.6,72.4 -28.8,102c-19.2,29.6 -45.2,44.4 -78,44.4c-32,0 -57.6,-14.6 -76.8,-43.8c-19.2,-29.2 -28.8,-63.4 -28.8,-102.6Zm187.2,-334.8c-0,30.4 -7.2,58.2 -21.6,83.4c-14.4,25.2 -34.4,37.8 -60,37.8c-24.8,0 -44.4,-12.6 -58.8,-37.8c-14.4,-25.2 -21.6,-53 -21.6,-83.4c-0,-40 6.4,-73.4 19.2,-100.2c12.8,-26.8 33.2,-40.2 61.2,-40.2c28.8,0 49.6,13.4 62.4,40.2c12.8,26.8 19.2,60.2 19.2,100.2Z" style="fill:#26accd;fill-rule:nonzero;"/></g></svg>