<?xml version="1.0" encoding="UTF-8" standalone="no"?><!DOCTYPE svg PUBLIC "-//W3C//DTD SVG 1.1//EN" "http://www.w3.org/Graphics/SVG/1.1/DTD/svg11.dtd"><svg width="100%" height="100%" viewBox="0 0 1109 1907" version="1.1" xmlns="http://www.w3.org/2000/svg" xmlns:xlink="http://www.w3.org/1999/xlink" xml:space="preserve" xmlns:serif="http://www.serif.com/" style="fill-rule:evenodd;clip-rule:evenodd;stroke-linejoin:round;stroke-miterlimit:2;"><g><rect x="0" y="0" width="1108.95" height="1906.9" style="fill:#fff;"/><g><path d="M109.276,1361.51l56.4,-56.4l-0,-555.6l-54,-54l201.6,-52.8l-0,662.4l56.4,56.4l-260.4,-0Z" style="fill:#a0a641;fill-rule:nonzero;"/><path d="M746.476,633.109c85.6,-0 149.2,36.6 190.8,109.8c41.6,73.2 62.4,161.4 62.4,264.6c-0,104 -20.6,192.4 -61.8,265.2c-41.2,72.8 -105,109.2 -191.4,109.2c-86.4,-0 -150.4,-36.4 -192,-109.2c-41.6,-72.8 -62.4,-161.2 -62.4,-265.2c-0,-104 20.6,-192.4 61.8,-265.2c41.2,-72.8 105.4,-109.2 192.6,-109.2Zm99.6,374.4c-0,-116.8 -7.6,-197 -22.8,-240.6c-15.2,-43.6 -40.8,-65.4 -76.8,-65.4c-36,-0 -61.8,22 -77.4,66c-15.6,44 -23.4,124 -23.4,240c-0,117.6 7.4,198 22.2,241.2c14.8,43.2 41,64.8 78.6,64.8c36,-0 61.6,-21.8 76.8,-65.4c15.2,-43.6 22.8,-123.8 22.8,-240.6Z" style="fill:#a0a641;fill-rule:nonzero;"/></g></g></svg>