<?xml version="1.0" encoding="UTF-8" standalone="no"?><!DOCTYPE svg PUBLIC "-//W3C//DTD SVG 1.1//EN" "http://www.w3.org/Graphics/SVG/1.1/DTD/svg11.dtd"><svg width="100%" height="100%" viewBox="0 0 1109 1907" version="1.1" xmlns="http://www.w3.org/2000/svg" xmlns:xlink="http://www.w3.org/1999/xlink" xml:space="preserve" xmlns:serif="http://www.serif.com/" style="fill-rule:evenodd;clip-rule:evenodd;stroke-linejoin:round;stroke-miterlimit:2;"><g><rect x="0" y="0" width="1108.95" height="1906.9" style="fill:#0f4b93;"/><path d="M1108.95,0l0,1906.9l-1108.95,0l0,-1906.9l1108.95,0Zm-33.142,33.142l-1042.67,0l0,1840.62c181.078,0 1042.67,0 1042.67,0l0,-1840.62Z" style="fill:#fff7f7;"/></g><path d="M382.276,739.253l82.8,-88.8c10.4,-4.8 19.2,-8.2 26.4,-10.2c7.2,-2 16,-3 26.4,-3c28.8,-0 57.2,11.2 85.2,33.6c28,22.4 42,52.8 42,91.2c-0,15.2 -3.4,31.2 -10.2,48c-6.8,16.8 -15.4,31.2 -25.8,43.2l-116.4,136.8l-0,145.2l58.8,-0l-0,-46.8l218.4,-229.2c8.8,-8.8 16.6,-20.2 23.4,-34.2c6.8,-14 10.2,-32.2 10.2,-54.6c-0,-20 -4,-41.4 -12,-64.2c-8,-22.8 -20.8,-45 -38.4,-66.6c-17.6,-21.6 -41.4,-39.2 -71.4,-52.8c-30,-13.6 -65.8,-20.4 -107.4,-20.4c-18.4,-0 -34,0.6 -46.8,1.8c-12.8,1.2 -30.4,3.4 -52.8,6.6c-6.4,0.8 -10.8,1.6 -13.2,2.4l-156,26.4l76.8,135.6Zm219.6,526.8c-0,-20.8 -7.2,-38.6 -21.6,-53.4c-14.4,-14.8 -32,-22.2 -52.8,-22.2c-20.8,-0 -38.6,7.4 -53.4,22.2c-14.8,14.8 -22.2,32.6 -22.2,53.4c-0,20.8 7.4,38.4 22.2,52.8c14.8,14.4 32.6,21.6 53.4,21.6c20.8,-0 38.4,-7.2 52.8,-21.6c14.4,-14.4 21.6,-32 21.6,-52.8Z" style="fill:#fff;fill-rule:nonzero;"/></svg>