<?xml version="1.0" encoding="UTF-8" standalone="no"?><!DOCTYPE svg PUBLIC "-//W3C//DTD SVG 1.1//EN" "http://www.w3.org/Graphics/SVG/1.1/DTD/svg11.dtd"><svg width="100%" height="100%" viewBox="0 0 4621 7946" version="1.1" xmlns="http://www.w3.org/2000/svg" xmlns:xlink="http://www.w3.org/1999/xlink" xml:space="preserve" xmlns:serif="http://www.serif.com/" style="fill-rule:evenodd;clip-rule:evenodd;stroke-linejoin:round;stroke-miterlimit:2;"><g><rect x="0" y="0" width="4620.62" height="7945.42" style="fill:#fff;"/><path d="M2912.81,2790.22c-63.333,-63.333 -170.833,-135 -322.5,-215c-151.666,-80 -294.166,-120 -427.5,-120c-243.333,-0 -444.166,64.167 -602.5,192.5c-158.333,128.333 -237.5,307.5 -237.5,537.5c0,156.667 40,286.667 120,390c80,103.333 213.334,253.333 400,450l1000,1035l-1305,-0l-235,-235l0,665l2015,-0l0,-295l-970,-1190c-116.666,-146.667 -215.833,-280 -297.5,-400c-81.666,-120 -122.5,-236.667 -122.5,-350c0,-143.333 36.667,-255 110,-335c73.334,-80 183.334,-120 330,-120c103.334,-0 204.167,27.5 302.5,82.5c98.334,55 172.5,109.167 222.5,162.5l200,200l125,-145l-305,-310Z" style="fill:#de681d;fill-rule:nonzero;"/></g></svg>