<?xml version="1.0" encoding="UTF-8" standalone="no"?><!DOCTYPE svg PUBLIC "-//W3C//DTD SVG 1.1//EN" "http://www.w3.org/Graphics/SVG/1.1/DTD/svg11.dtd"><svg width="100%" height="100%" viewBox="0 0 1109 1907" version="1.1" xmlns="http://www.w3.org/2000/svg" xmlns:xlink="http://www.w3.org/1999/xlink" xml:space="preserve" xmlns:serif="http://www.serif.com/" style="fill-rule:evenodd;clip-rule:evenodd;stroke-linejoin:round;stroke-miterlimit:2;"><g><rect x="0" y="0" width="1108.95" height="1906.9" style="fill:#fff;"/><path d="M409.876,669.653c15.2,-15.2 41,-32.4 77.4,-51.6c36.4,-19.2 70.6,-28.8 102.6,-28.8c58.4,-0 106.6,15.4 144.6,46.2c38,30.8 57,73.8 57,129c-0,37.6 -9.6,68.8 -28.8,93.6c-19.2,24.8 -51.2,60.8 -96,108l-240,248.4l313.2,-0l56.4,-56.4l-0,159.6l-483.6,-0l-0,-70.8l232.8,-285.6c28,-35.2 51.8,-67.2 71.4,-96c19.6,-28.8 29.4,-56.8 29.4,-84c-0,-34.4 -8.8,-61.2 -26.4,-80.4c-17.6,-19.2 -44,-28.8 -79.2,-28.8c-24.8,-0 -49,6.6 -72.6,19.8c-23.6,13.2 -41.4,26.2 -53.4,39l-48,48l-30,-34.8l73.2,-74.4Z" style="fill:#de681d;fill-rule:nonzero;"/></g></svg>