<?xml version="1.0" encoding="UTF-8" standalone="no"?><!DOCTYPE svg PUBLIC "-//W3C//DTD SVG 1.1//EN" "http://www.w3.org/Graphics/SVG/1.1/DTD/svg11.dtd"><svg width="100%" height="100%" viewBox="0 0 4621 7946" version="1.1" xmlns="http://www.w3.org/2000/svg" xmlns:xlink="http://www.w3.org/1999/xlink" xml:space="preserve" xmlns:serif="http://www.serif.com/" style="fill-rule:evenodd;clip-rule:evenodd;stroke-linejoin:round;stroke-miterlimit:2;"><g><rect x="0" y="0" width="4620.62" height="7945.42" style="fill:#fff;"/><g><path d="M4165.31,5672.96l-235,-235l0,-2315l225,-225l-840,-220l0,2760l-235,235l1085,0Z" style="fill:#a0a641;fill-rule:nonzero;"/><path d="M1510.31,2637.95c-356.666,0 -621.666,152.5 -795,457.5c-173.333,305 -260,672.5 -260,1102.5c0,433.334 85.834,801.667 257.5,1105c171.667,303.334 437.5,455 797.5,455c360,0 626.667,-151.666 800,-455c173.334,-303.333 260,-671.666 260,-1105c0,-433.333 -85.833,-801.666 -257.5,-1105c-171.666,-303.333 -439.166,-455 -802.5,-455Zm-415,1560c0,-486.666 31.667,-820.833 95,-1002.5c63.334,-181.666 170,-272.5 320,-272.5c150,0 257.5,91.667 322.5,275c65,183.334 97.5,516.667 97.5,1000c0,490 -30.833,825 -92.5,1005c-61.666,180 -170.833,270 -327.5,270c-150,0 -256.666,-90.833 -320,-272.5c-63.333,-181.666 -95,-515.833 -95,-1002.5Z" style="fill:#a0a641;fill-rule:nonzero;"/></g></g></svg>