<?xml version="1.0" encoding="UTF-8" standalone="no"?><!DOCTYPE svg PUBLIC "-//W3C//DTD SVG 1.1//EN" "http://www.w3.org/Graphics/SVG/1.1/DTD/svg11.dtd"><svg width="100%" height="100%" viewBox="0 0 4213 1272" version="1.1" xmlns="http://www.w3.org/2000/svg" xmlns:xlink="http://www.w3.org/1999/xlink" xml:space="preserve" xmlns:serif="http://www.serif.com/" style="fill-rule:evenodd;clip-rule:evenodd;stroke-linejoin:round;stroke-miterlimit:2;"><path d="M2969.61,436.34l84.522,299.721l273.518,-0l-221.281,185.237l84.522,299.721l-221.281,-185.238l-221.281,185.238l84.522,-299.721l-221.281,-185.237l273.518,-0l84.522,-299.721Z" style="fill:#eaa82b;"/><path d="M3017.73,422.769l74.249,263.292l235.668,-0c21.03,-0 39.813,13.16 46.994,32.926c7.182,19.767 1.227,41.914 -14.9,55.413l-196.47,164.469l75.74,268.579c5.953,21.109 -2.546,43.633 -20.959,55.548c-18.413,11.916 -42.442,10.44 -59.259,-3.638l-189.186,-158.37l-189.186,158.37c-16.817,14.078 -40.846,15.554 -59.259,3.638c-18.413,-11.915 -26.912,-34.439 -20.959,-55.548l75.74,-268.579l-196.47,-164.469c-16.127,-13.499 -22.082,-35.646 -14.9,-55.413c7.181,-19.766 25.964,-32.926 46.994,-32.926l235.668,-0l74.249,-263.292c6.076,-21.547 25.735,-36.429 48.123,-36.429c22.388,0 42.047,14.882 48.123,36.429Zm-48.123,13.571l-84.522,299.721l-273.518,-0l221.281,185.237l-84.522,299.721l221.281,-185.238l221.281,185.238l-84.522,-299.721l221.281,-185.237l-273.518,-0l-84.522,-299.721Z" style="fill:#a8720c;"/><path d="M3804.39,436.34l84.521,299.721l273.518,-0l-221.28,185.237l84.521,299.721l-221.28,-185.238l-221.281,185.238l84.522,-299.721l-221.281,-185.237l273.518,-0l84.522,-299.721Z" style="fill:#28dbcc;"/><path d="M3852.51,422.769l74.248,263.292l235.668,-0c21.031,-0 39.814,13.16 46.995,32.926c7.181,19.767 1.226,41.914 -14.9,55.413l-196.47,164.469l75.739,268.579c5.953,21.109 -2.545,43.633 -20.958,55.548c-18.413,11.916 -42.442,10.44 -59.259,-3.638l-189.186,-158.37l-189.186,158.37c-16.818,14.078 -40.846,15.554 -59.259,3.638c-18.413,-11.915 -26.912,-34.439 -20.959,-55.548l75.74,-268.579l-196.471,-164.469c-16.126,-13.499 -22.081,-35.646 -14.9,-55.413c7.182,-19.766 25.964,-32.926 46.995,-32.926l235.668,-0l74.249,-263.292c6.076,-21.547 25.735,-36.429 48.123,-36.429c22.387,0 42.046,14.882 48.123,36.429Zm-48.123,13.571l-84.522,299.721l-273.518,-0l221.281,185.237l-84.522,299.721l221.281,-185.238l221.28,185.238l-84.521,-299.721l221.28,-185.237l-273.518,-0l-84.521,-299.721Z" style="fill:#21b1a5;"/><path d="M2138.92,436.34l84.522,299.721l273.518,-0l-221.281,185.237l84.522,299.721l-221.281,-185.238l-221.28,185.238l84.521,-299.721l-221.28,-185.237l273.518,-0l84.521,-299.721Z" style="fill:#e6252c;"/><path d="M2187.04,422.769l74.248,263.292l235.668,-0c21.031,-0 39.813,13.16 46.995,32.926c7.181,19.767 1.226,41.914 -14.9,55.413l-196.47,164.469l75.739,268.579c5.953,21.109 -2.545,43.633 -20.958,55.548c-18.413,11.916 -42.442,10.44 -59.26,-3.638l-189.186,-158.37l-189.186,158.37c-16.817,14.078 -40.846,15.554 -59.259,3.638c-18.413,-11.915 -26.911,-34.439 -20.958,-55.548l75.739,-268.579l-196.47,-164.469c-16.126,-13.499 -22.081,-35.646 -14.9,-55.413c7.182,-19.766 25.964,-32.926 46.995,-32.926l235.668,-0l74.248,-263.292c6.077,-21.547 25.736,-36.429 48.123,-36.429c22.388,0 42.047,14.882 48.124,36.429Zm-48.124,13.571l-84.521,299.721l-273.518,-0l221.28,185.237l-84.521,299.721l221.28,-185.238l221.281,185.238l-84.522,-299.721l221.281,-185.237l-273.518,-0l-84.522,-299.721Z" style="fill:#a2040a;"/><path d="M1283.67,436.34l84.522,299.721l273.518,-0l-221.28,185.237l84.521,299.721l-221.281,-185.238l-221.28,185.238l84.521,-299.721l-221.28,-185.237l273.518,-0l84.521,-299.721Z" style="fill:#2db724;"/><path d="M1331.8,422.769l74.248,263.292l235.668,-0c21.031,-0 39.813,13.16 46.995,32.926c7.181,19.767 1.226,41.914 -14.9,55.413l-196.47,164.469l75.739,268.579c5.953,21.109 -2.545,43.633 -20.958,55.548c-18.413,11.916 -42.442,10.44 -59.26,-3.638l-189.186,-158.37l-189.186,158.37c-16.817,14.078 -40.846,15.554 -59.259,3.638c-18.413,-11.915 -26.911,-34.439 -20.958,-55.548l75.739,-268.579l-196.47,-164.469c-16.126,-13.499 -22.081,-35.646 -14.9,-55.413c7.182,-19.766 25.964,-32.926 46.995,-32.926l235.668,-0l74.248,-263.292c6.077,-21.547 25.736,-36.429 48.123,-36.429c22.388,0 42.047,14.882 48.124,36.429Zm-48.124,13.571l-84.521,299.721l-273.518,-0l221.28,185.237l-84.521,299.721l221.28,-185.238l221.281,185.238l-84.521,-299.721l221.28,-185.237l-273.518,-0l-84.522,-299.721Z" style="fill:#13630d;"/><path d="M408.04,436.34l84.521,299.721l273.518,-0l-221.28,185.237l84.521,299.721l-221.28,-185.238l-221.281,185.238l84.522,-299.721l-221.281,-185.237l273.518,-0l84.522,-299.721Z" style="fill:#6a4aff;"/><path d="M456.163,422.769l74.248,263.292l235.668,-0c21.031,-0 39.814,13.16 46.995,32.926c7.181,19.767 1.226,41.914 -14.9,55.413l-196.47,164.469l75.74,268.579c5.952,21.109 -2.546,43.633 -20.959,55.548c-18.413,11.916 -42.442,10.44 -59.259,-3.638l-189.186,-158.37l-189.186,158.37c-16.818,14.078 -40.846,15.554 -59.259,3.638c-18.413,-11.915 -26.912,-34.439 -20.959,-55.548l75.74,-268.579l-196.471,-164.469c-16.126,-13.499 -22.081,-35.646 -14.9,-55.413c7.182,-19.766 25.964,-32.926 46.995,-32.926l235.668,-0l74.249,-263.292c6.076,-21.547 25.735,-36.429 48.123,-36.429c22.387,0 42.046,14.882 48.123,36.429Zm-48.123,13.571l-84.522,299.721l-273.518,-0l221.281,185.237l-84.522,299.721l221.281,-185.238l221.28,185.238l-84.521,-299.721l221.28,-185.237l-273.518,-0l-84.521,-299.721Z" style="fill:#492bd2;"/><g><path d="M651.816,837.149c-6.226,9.333 -12.452,18.333 -18.678,27c-6.226,8.666 -12.453,17.4 -18.679,26.2c-3.962,5.333 -8.207,8.533 -12.735,9.6c-4.528,1.066 -12.453,0.933 -23.773,-0.4c-16.414,-2.134 -32.829,-4.067 -49.243,-5.8c-16.415,-1.734 -32.829,-3.267 -49.244,-4.6c-5.66,-0.534 -11.462,-0.467 -17.405,0.2c-5.943,0.666 -11.179,1.666 -15.707,3c-10.754,3.2 -16.131,6.733 -16.131,10.6c-0,3.866 5.094,7.4 15.282,10.6c7.924,2.666 16.981,4.8 27.169,6.4c14.716,4 30.282,7.733 46.696,11.2c16.415,3.466 31.98,7.466 46.697,12c16.414,5.333 30.14,11.066 41.178,17.2c11.037,6.133 20.235,12.666 27.593,19.6c13.584,13.066 20.376,27.333 20.376,42.8c0,15.466 -5.66,30.2 -16.98,44.2c-11.32,14 -27.735,26.533 -49.244,37.6c-21.508,11.066 -46.979,18.733 -76.412,23c-33.961,5.066 -69.337,7.2 -106.128,6.4c-49.81,-1.334 -94.667,-5.667 -134.571,-13c-39.904,-7.334 -76.271,-19 -109.1,-35c-7.924,-3.734 -11.32,-8.534 -10.188,-14.4c1.132,-5.867 4.245,-11.067 9.339,-15.6c13.585,-12.267 26.462,-23.267 38.631,-33c12.169,-9.734 23.914,-17.267 35.235,-22.6c9.056,-4.267 15.848,-6.334 20.376,-6.2c4.528,0.133 12.17,2.066 22.924,5.8c10.754,3.733 20.518,7.133 29.291,10.2c8.774,3.066 17.405,6 25.896,8.8c8.49,2.8 17.263,5.333 26.319,7.6c9.057,2.266 19.245,4.2 30.565,5.8c10.189,1.6 18.396,1.8 24.622,0.6c6.226,-1.2 9.339,-3.4 9.339,-6.6c0,-3.2 -3.679,-7.2 -11.037,-12c-7.358,-4.8 -18.962,-10.134 -34.81,-16c-16.981,-6.134 -34.81,-11.667 -53.489,-16.6c-18.678,-4.934 -36.791,-10.467 -54.337,-16.6c-10.189,-3.734 -19.811,-7.534 -28.867,-11.4c-9.057,-3.867 -17.83,-8.067 -26.32,-12.6c-18.113,-10.134 -30.424,-20.867 -36.933,-32.2c-6.509,-11.334 -8.348,-22.6 -5.518,-33.8c2.83,-11.2 9.763,-21.8 20.801,-31.8c11.037,-10 25.046,-18.867 42.027,-26.6c16.98,-7.467 36.366,-13.267 58.158,-17.4c21.792,-4.134 44.715,-6.934 68.771,-8.4c24.056,-1.467 48.96,-2 74.714,-1.6c25.754,0.4 51.083,1.466 75.988,3.2c24.905,1.733 48.819,3.8 71.743,6.2c22.924,2.4 44.008,4.666 63.252,6.8c6.793,1.333 11.038,3.266 12.736,5.8c1.698,2.533 2.122,5.333 1.273,8.4c-0.849,3.066 -2.547,6.133 -5.094,9.2c-2.547,3.066 -4.67,5.8 -6.368,8.2Z" style="stroke:#000;stroke-width:16.67px;"/><path d="M651.816,775.768c-6.226,9.333 -12.452,18.333 -18.678,27c-6.226,8.666 -12.453,17.4 -18.679,26.2c-3.962,5.333 -8.207,8.533 -12.735,9.6c-4.528,1.066 -12.453,0.933 -23.773,-0.4c-16.414,-2.134 -32.829,-4.067 -49.243,-5.8c-16.415,-1.734 -32.829,-3.267 -49.244,-4.6c-5.66,-0.534 -11.462,-0.467 -17.405,0.2c-5.943,0.666 -11.179,1.666 -15.707,3c-10.754,3.2 -16.131,6.733 -16.131,10.6c-0,3.866 5.094,7.4 15.282,10.6c7.924,2.666 16.981,4.8 27.169,6.4c14.716,4 30.282,7.733 46.696,11.2c16.415,3.466 31.98,7.466 46.697,12c16.414,5.333 30.14,11.066 41.178,17.2c11.037,6.133 20.235,12.666 27.593,19.6c13.584,13.066 20.376,27.333 20.376,42.8c0,15.466 -5.66,30.2 -16.98,44.2c-11.32,14 -27.735,26.533 -49.244,37.6c-21.508,11.066 -46.979,18.733 -76.412,23c-33.961,5.066 -69.337,7.2 -106.128,6.4c-49.81,-1.334 -94.667,-5.667 -134.571,-13c-39.904,-7.334 -76.271,-19 -109.1,-35c-7.924,-3.734 -11.32,-8.534 -10.188,-14.4c1.132,-5.867 4.245,-11.067 9.339,-15.6c13.585,-12.267 26.462,-23.267 38.631,-33c12.169,-9.734 23.914,-17.267 35.235,-22.6c9.056,-4.267 15.848,-6.334 20.376,-6.2c4.528,0.133 12.17,2.066 22.924,5.8c10.754,3.733 20.518,7.133 29.291,10.2c8.774,3.066 17.405,6 25.896,8.8c8.49,2.8 17.263,5.333 26.319,7.6c9.057,2.266 19.245,4.2 30.565,5.8c10.189,1.6 18.396,1.8 24.622,0.6c6.226,-1.2 9.339,-3.4 9.339,-6.6c0,-3.2 -3.679,-7.2 -11.037,-12c-7.358,-4.8 -18.962,-10.134 -34.81,-16c-16.981,-6.134 -34.81,-11.667 -53.489,-16.6c-18.678,-4.934 -36.791,-10.467 -54.337,-16.6c-10.189,-3.734 -19.811,-7.534 -28.867,-11.4c-9.057,-3.867 -17.83,-8.067 -26.32,-12.6c-18.113,-10.134 -30.424,-20.867 -36.933,-32.2c-6.509,-11.334 -8.348,-22.6 -5.518,-33.8c2.83,-11.2 9.763,-21.8 20.801,-31.8c11.037,-10 25.046,-18.867 42.027,-26.6c16.98,-7.467 36.366,-13.267 58.158,-17.4c21.792,-4.134 44.715,-6.934 68.771,-8.4c24.056,-1.467 48.96,-2 74.714,-1.6c25.754,0.4 51.083,1.466 75.988,3.2c24.905,1.733 48.819,3.8 71.743,6.2c22.924,2.4 44.008,4.666 63.252,6.8c6.793,1.333 11.038,3.266 12.736,5.8c1.698,2.533 2.122,5.333 1.273,8.4c-0.849,3.066 -2.547,6.133 -5.094,9.2c-2.547,3.066 -4.67,5.8 -6.368,8.2Z" style="fill:#fff;stroke:#000;stroke-width:16.67px;"/><path d="M1424.51,940.971c1.132,24.534 2.264,48.8 3.396,72.8c1.132,24 1.981,48.267 2.547,72.8c-0,12 -5.094,20.4 -15.283,25.2c-10.188,4.8 -28.017,7.2 -53.488,7.2c-48.678,0 -97.072,-0.8 -145.184,-2.4c-5.094,0 -10.047,-0.2 -14.858,-0.6c-4.811,-0.4 -9.763,-0.866 -14.858,-1.4c-9.622,-1.333 -16.414,-3.133 -20.376,-5.4c-3.962,-2.266 -5.943,-5.666 -5.943,-10.2c-0.566,-3.733 -0.708,-7.533 -0.425,-11.4c0.283,-3.866 0.425,-7.666 0.425,-11.4l-0,-174.4l-55.187,0c-11.32,0 -22.782,0.067 -34.386,0.2c-11.603,0.134 -23.631,-0.066 -36.083,-0.6c-15.283,-1.066 -26.886,-3.533 -34.81,-7.4c-7.925,-3.866 -12.453,-9.666 -13.585,-17.4c-1.132,-12.533 -1.698,-25.066 -1.698,-37.6c0,-12.533 0.283,-25.2 0.849,-38c0.566,-9.066 5.236,-15.4 14.009,-19c8.773,-3.6 22.499,-5.266 41.178,-5c74.148,0.267 147.872,0.467 221.171,0.6c73.299,0.134 147.023,0.467 221.172,1c7.924,0 16.131,-0.133 24.621,-0.4c8.491,-0.266 16.698,-0.533 24.622,-0.8c14.151,-0.533 25.471,0.667 33.961,3.6c8.49,2.934 13.302,7.6 14.434,14c1.698,4.267 2.264,8.734 1.698,13.4c-0.566,4.667 -0.849,9.267 -0.849,13.8c-0.566,9.334 -1.132,18.467 -1.698,27.4c-0.566,8.934 -1.699,17.8 -3.397,26.6c-1.698,7.734 -5.377,12.6 -11.037,14.6c-5.66,2 -16.98,3.134 -33.961,3.4c-16.98,0.267 -34.244,0.667 -51.791,1.2c-17.546,0.534 -35.942,1.067 -55.186,1.6l-0,44Z" style="stroke:#000;stroke-width:16.67px;"/><path d="M1424.51,891.867c1.132,24.533 2.264,48.8 3.396,72.8c1.132,24 1.981,48.266 2.547,72.8c-0,12 -5.094,20.4 -15.283,25.2c-10.188,4.8 -28.017,7.2 -53.488,7.2c-48.678,-0 -97.072,-0.8 -145.184,-2.4c-5.094,-0 -10.047,-0.2 -14.858,-0.6c-4.811,-0.4 -9.763,-0.867 -14.858,-1.4c-9.622,-1.334 -16.414,-3.134 -20.376,-5.4c-3.962,-2.267 -5.943,-5.667 -5.943,-10.2c-0.566,-3.734 -0.708,-7.534 -0.425,-11.4c0.283,-3.867 0.425,-7.667 0.425,-11.4l-0,-174.4l-55.187,-0c-11.32,-0 -22.782,0.066 -34.386,0.2c-11.603,0.133 -23.631,-0.067 -36.083,-0.6c-15.283,-1.067 -26.886,-3.534 -34.81,-7.4c-7.925,-3.867 -12.453,-9.667 -13.585,-17.4c-1.132,-12.534 -1.698,-25.067 -1.698,-37.6c0,-12.534 0.283,-25.2 0.849,-38c0.566,-9.067 5.236,-15.4 14.009,-19c8.773,-3.6 22.499,-5.267 41.178,-5c74.148,0.266 147.872,0.466 221.171,0.6c73.299,0.133 147.023,0.466 221.172,1c7.924,-0 16.131,-0.134 24.621,-0.4c8.491,-0.267 16.698,-0.534 24.622,-0.8c14.151,-0.534 25.471,0.666 33.961,3.6c8.49,2.933 13.302,7.6 14.434,14c1.698,4.266 2.264,8.733 1.698,13.4c-0.566,4.666 -0.849,9.266 -0.849,13.8c-0.566,9.333 -1.132,18.466 -1.698,27.4c-0.566,8.933 -1.699,17.8 -3.397,26.6c-1.698,7.733 -5.377,12.6 -11.037,14.6c-5.66,2 -16.98,3.133 -33.961,3.4c-16.98,0.266 -34.244,0.666 -51.791,1.2c-17.546,0.533 -35.942,1.066 -55.186,1.6l-0,44Z" style="fill:#fff;stroke:#000;stroke-width:16.67px;"/><path d="M2071.24,1052.53c-2.83,7.734 -5.094,14.867 -6.792,21.4c-1.699,6.534 -3.963,13.267 -6.793,20.2c-1.132,2.934 -2.264,5.6 -3.396,8c-1.132,2.4 -3.113,4.667 -5.943,6.8c-5.094,6.667 -16.414,10 -33.961,10c-32.829,-0.266 -65.517,-0.4 -98.063,-0.4l-97.213,0c-11.886,0 -21.226,-1.333 -28.018,-4c-6.792,-2.666 -10.188,-6.666 -10.188,-12c-0,-6.4 0.566,-12.666 1.698,-18.8c1.132,-6.133 3.113,-12.133 5.943,-18c15.282,-34.666 30.706,-68.866 46.272,-102.6c15.565,-33.733 31.272,-67.533 47.121,-101.4c4.528,-9.6 10.047,-18.866 16.556,-27.8c6.509,-8.933 12.877,-17.933 19.103,-27c7.358,-10.133 17.122,-17.133 29.291,-21c12.17,-3.866 29.575,-5.8 52.215,-5.8c37.358,0 74.432,0.067 111.223,0.2c36.791,0.134 73.582,-0.066 110.373,-0.6c16.981,-0.266 30.424,1.334 40.329,4.8c9.905,3.467 17.971,8.267 24.197,14.4c2.83,2.4 4.953,4.934 6.368,7.6c1.415,2.667 2.972,5.467 4.67,8.4c11.32,21.334 22.216,42.467 32.687,63.4c10.472,20.934 20.801,42.067 30.99,63.4c10.188,20.8 19.386,41.267 27.593,61.4c8.207,20.134 16.556,40.334 25.046,60.6c2.264,5.067 4.67,9.934 7.217,14.6c2.547,4.667 5.236,9.267 8.066,13.8c1.132,1.867 1.981,3.734 2.547,5.6c0.566,1.867 0.849,3.734 0.849,5.6c0.566,8.534 -7.641,12.934 -24.622,13.2l-8.49,0c-29.433,0.267 -58.583,0.6 -87.45,1c-28.867,0.4 -58.3,0.867 -88.299,1.4c-14.15,0.267 -24.338,-0.733 -30.565,-3c-6.226,-2.266 -10.754,-6.6 -13.584,-13c-2.83,-6.4 -5.094,-12.666 -6.792,-18.8c-1.698,-6.133 -3.396,-12.133 -5.094,-18c-1.132,-2.933 -1.981,-5.466 -2.547,-7.6c-0.566,-2.133 -1.415,-4.133 -2.547,-6l-89.997,0Zm42.451,-174.4c-6.792,17.334 -12.877,34.467 -18.254,51.4c-5.377,16.934 -9.198,34.2 -11.462,51.8l59.432,0c-5.094,-17.866 -10.188,-35.266 -15.283,-52.2c-5.094,-16.933 -9.905,-33.933 -14.433,-51Z" style="stroke:#000;stroke-width:16.67px;"/><path d="M2071.24,1000.67c-2.83,7.733 -5.094,14.866 -6.792,21.4c-1.699,6.533 -3.963,13.266 -6.793,20.2c-1.132,2.933 -2.264,5.6 -3.396,8c-1.132,2.4 -3.113,4.666 -5.943,6.8c-5.094,6.666 -16.414,10 -33.961,10c-32.829,-0.267 -65.517,-0.4 -98.063,-0.4l-97.213,-0c-11.886,-0 -21.226,-1.334 -28.018,-4c-6.792,-2.667 -10.188,-6.667 -10.188,-12c-0,-6.4 0.566,-12.667 1.698,-18.8c1.132,-6.134 3.113,-12.134 5.943,-18c15.282,-34.667 30.706,-68.867 46.272,-102.6c15.565,-33.734 31.272,-67.534 47.121,-101.4c4.528,-9.6 10.047,-18.867 16.556,-27.8c6.509,-8.934 12.877,-17.934 19.103,-27c7.358,-10.134 17.122,-17.134 29.291,-21c12.17,-3.867 29.575,-5.8 52.215,-5.8c37.358,-0 74.432,0.066 111.223,0.2c36.791,0.133 73.582,-0.067 110.373,-0.6c16.981,-0.267 30.424,1.333 40.329,4.8c9.905,3.466 17.971,8.266 24.197,14.4c2.83,2.4 4.953,4.933 6.368,7.6c1.415,2.666 2.972,5.466 4.67,8.4c11.32,21.333 22.216,42.466 32.687,63.4c10.472,20.933 20.801,42.066 30.99,63.4c10.188,20.8 19.386,41.266 27.593,61.4c8.207,20.133 16.556,40.333 25.046,60.6c2.264,5.066 4.67,9.933 7.217,14.6c2.547,4.666 5.236,9.266 8.066,13.8c1.132,1.866 1.981,3.733 2.547,5.6c0.566,1.866 0.849,3.733 0.849,5.6c0.566,8.533 -7.641,12.933 -24.622,13.2l-8.49,-0c-29.433,0.266 -58.583,0.6 -87.45,1c-28.867,0.4 -58.3,0.866 -88.299,1.4c-14.15,0.266 -24.338,-0.734 -30.565,-3c-6.226,-2.267 -10.754,-6.6 -13.584,-13c-2.83,-6.4 -5.094,-12.667 -6.792,-18.8c-1.698,-6.134 -3.396,-12.134 -5.094,-18c-1.132,-2.934 -1.981,-5.467 -2.547,-7.6c-0.566,-2.134 -1.415,-4.134 -2.547,-6l-89.997,-0Zm42.451,-174.4c-6.792,17.333 -12.877,34.466 -18.254,51.4c-5.377,16.933 -9.198,34.2 -11.462,51.8l59.432,-0c-5.094,-17.867 -10.188,-35.267 -15.283,-52.2c-5.094,-16.934 -9.905,-33.934 -14.433,-51Z" style="fill:#fff;stroke:#000;stroke-width:16.67px;"/><path d="M3183.07,1012.5c22.641,4.533 37.216,10.8 43.725,18.8c6.509,8 9.764,16.8 9.764,26.4c-0,7.733 0.424,14.666 1.273,20.8c0.849,6.133 1.274,12.933 1.274,20.4c-0.566,7.466 -3.255,12.8 -8.066,16c-4.811,3.2 -14.575,4.933 -29.292,5.2c-51.507,0.8 -104.147,0.8 -157.918,-0c-14.717,-0.267 -26.32,-1.467 -34.81,-3.6c-8.491,-2.134 -13.302,-6.667 -14.434,-13.6c-1.698,-7.734 -2.122,-16 -1.273,-24.8c0.849,-8.8 0.707,-17.067 -0.425,-24.8c0,-8.534 -4.104,-14.267 -12.311,-17.2c-8.207,-2.934 -20.801,-3.467 -37.782,-1.6c0.566,5.866 1.133,11 1.699,15.4c0.566,4.4 1.132,9.666 1.698,15.8c1.132,9.6 1.132,19.733 -0,30.4c-1.132,6.666 -5.378,11.933 -12.736,15.8c-7.358,3.866 -18.395,6.066 -33.112,6.6c-23.773,0.8 -47.404,1.266 -70.894,1.4c-23.489,0.133 -47.403,-0.2 -71.742,-1c-15.283,-0.267 -26.179,-2.134 -32.688,-5.6c-6.509,-3.467 -9.764,-9.067 -9.764,-16.8c1.132,-34.4 1.698,-67.867 1.698,-100.4c0,-32.534 0.284,-66 0.85,-100.4l-0,-90c-0,-8 3.537,-13.734 10.612,-17.2c7.076,-3.467 18.82,-5.334 35.235,-5.6c33.395,-0.8 66.224,-1.4 98.487,-1.8c32.263,-0.4 64.809,-0.867 97.638,-1.4l49.668,-0c16.698,-0 33.537,0.133 50.517,0.4c19.811,-0 38.914,1.266 57.309,3.8c18.396,2.533 36.084,6.066 53.065,10.6c15.848,4.533 28.583,9.866 38.206,16c9.622,6.133 17.829,12.8 24.621,20c7.925,8.533 14.575,19.2 19.953,32c5.377,12.8 8.914,26.066 10.612,39.8c1.698,13.733 1.415,26.933 -0.849,39.6c-2.264,12.666 -7.075,23 -14.433,31c-13.584,14.133 -35.376,27.333 -65.375,39.6Zm-219.049,-68.8c19.811,5.066 35.801,5.733 47.97,2c12.169,-3.734 18.537,-11.067 19.103,-22c0.566,-6.4 0.566,-13.067 0,-20c-0.566,-6.934 -1.981,-13.867 -4.245,-20.8c-4.528,-14.4 -22.358,-20.134 -53.489,-17.2c-7.358,0.533 -12.735,1.533 -16.131,3c-3.396,1.466 -4.811,4.066 -4.245,7.8c1.698,11.2 3.537,22.4 5.518,33.6c1.982,11.2 3.821,22.4 5.519,33.6Z" style="stroke:#000;stroke-width:16.67px;"/><path d="M3183.07,958.91c22.641,4.533 37.216,10.8 43.725,18.8c6.509,8 9.764,16.8 9.764,26.4c-0,7.733 0.424,14.666 1.273,20.8c0.849,6.133 1.274,12.933 1.274,20.4c-0.566,7.466 -3.255,12.8 -8.066,16c-4.811,3.2 -14.575,4.933 -29.292,5.2c-51.507,0.8 -104.147,0.8 -157.918,-0c-14.717,-0.267 -26.32,-1.467 -34.81,-3.6c-8.491,-2.134 -13.302,-6.667 -14.434,-13.6c-1.698,-7.734 -2.122,-16 -1.273,-24.8c0.849,-8.8 0.707,-17.067 -0.425,-24.8c0,-8.534 -4.104,-14.267 -12.311,-17.2c-8.207,-2.934 -20.801,-3.467 -37.782,-1.6c0.566,5.866 1.133,11 1.699,15.4c0.566,4.4 1.132,9.666 1.698,15.8c1.132,9.6 1.132,19.733 -0,30.4c-1.132,6.666 -5.378,11.933 -12.736,15.8c-7.358,3.866 -18.395,6.066 -33.112,6.6c-23.773,0.8 -47.404,1.266 -70.894,1.4c-23.489,0.133 -47.403,-0.2 -71.742,-1c-15.283,-0.267 -26.179,-2.134 -32.688,-5.6c-6.509,-3.467 -9.764,-9.067 -9.764,-16.8c1.132,-34.4 1.698,-67.867 1.698,-100.4c0,-32.534 0.284,-66 0.85,-100.4l-0,-90c-0,-8 3.537,-13.734 10.612,-17.2c7.076,-3.467 18.82,-5.334 35.235,-5.6c33.395,-0.8 66.224,-1.4 98.487,-1.8c32.263,-0.4 64.809,-0.867 97.638,-1.4l49.668,-0c16.698,-0 33.537,0.133 50.517,0.4c19.811,-0 38.914,1.266 57.309,3.8c18.396,2.533 36.084,6.066 53.065,10.6c15.848,4.533 28.583,9.866 38.206,16c9.622,6.133 17.829,12.8 24.621,20c7.925,8.533 14.575,19.2 19.953,32c5.377,12.8 8.914,26.066 10.612,39.8c1.698,13.733 1.415,26.933 -0.849,39.6c-2.264,12.666 -7.075,23 -14.433,31c-13.584,14.133 -35.376,27.333 -65.375,39.6Zm-219.049,-68.8c19.811,5.066 35.801,5.733 47.97,2c12.169,-3.734 18.537,-11.067 19.103,-22c0.566,-6.4 0.566,-13.067 0,-20c-0.566,-6.934 -1.981,-13.867 -4.245,-20.8c-4.528,-14.4 -22.358,-20.134 -53.489,-17.2c-7.358,0.533 -12.735,1.533 -16.131,3c-3.396,1.466 -4.811,4.066 -4.245,7.8c1.698,11.2 3.537,22.4 5.518,33.6c1.982,11.2 3.821,22.4 5.519,33.6Z" style="fill:#fff;stroke:#000;stroke-width:16.67px;"/><path d="M4019.52,823.737c-6.226,9.333 -12.453,18.333 -18.679,27c-6.226,8.667 -12.452,17.4 -18.678,26.2c-3.962,5.333 -8.208,8.533 -12.736,9.6c-4.528,1.067 -12.452,0.933 -23.773,-0.4c-16.414,-2.133 -32.829,-4.067 -49.243,-5.8c-16.415,-1.733 -32.829,-3.267 -49.244,-4.6c-5.66,-0.533 -11.461,-0.467 -17.405,0.2c-5.943,0.667 -11.178,1.667 -15.707,3c-10.754,3.2 -16.131,6.733 -16.131,10.6c-0,3.867 5.094,7.4 15.282,10.6c7.925,2.667 16.981,4.8 27.169,6.4c14.717,4 30.282,7.733 46.697,11.2c16.414,3.467 31.98,7.467 46.696,12c16.415,5.333 30.141,11.067 41.178,17.2c11.037,6.133 20.235,12.667 27.593,19.6c13.585,13.067 20.377,27.333 20.377,42.8c-0,15.467 -5.66,30.2 -16.981,44.2c-11.32,14 -27.734,26.533 -49.243,37.6c-21.509,11.067 -46.98,18.733 -76.413,23c-33.961,5.067 -69.337,7.2 -106.128,6.4c-49.809,-1.333 -94.666,-5.667 -134.57,-13c-39.905,-7.333 -76.271,-19 -109.1,-35c-7.925,-3.733 -11.321,-8.533 -10.189,-14.4c1.132,-5.867 4.245,-11.067 9.34,-15.6c13.584,-12.267 26.461,-23.267 38.63,-33c12.17,-9.733 23.915,-17.267 35.235,-22.6c9.056,-4.267 15.848,-6.333 20.377,-6.2c4.528,0.133 12.169,2.067 22.923,5.8c10.755,3.733 20.518,7.133 29.292,10.2c8.773,3.067 17.405,6 25.895,8.8c8.49,2.8 17.263,5.333 26.32,7.6c9.056,2.267 19.244,4.2 30.565,5.8c10.188,1.6 18.395,1.8 24.621,0.6c6.227,-1.2 9.34,-3.4 9.34,-6.6c-0,-3.2 -3.679,-7.2 -11.038,-12c-7.358,-4.8 -18.961,-10.133 -34.81,-16c-16.98,-6.133 -34.81,-11.667 -53.488,-16.6c-18.679,-4.933 -36.791,-10.467 -54.338,-16.6c-10.188,-3.733 -19.811,-7.533 -28.867,-11.4c-9.056,-3.867 -17.829,-8.067 -26.32,-12.6c-18.112,-10.133 -30.423,-20.867 -36.932,-32.2c-6.51,-11.333 -8.349,-22.6 -5.519,-33.8c2.83,-11.2 9.764,-21.8 20.801,-31.8c11.037,-10 25.046,-18.867 42.027,-26.6c16.98,-7.467 36.367,-13.267 58.158,-17.4c21.792,-4.133 44.716,-6.933 68.771,-8.4c24.056,-1.467 48.961,-2 74.715,-1.6c25.753,0.4 51.083,1.467 75.988,3.2c24.904,1.733 48.819,3.8 71.742,6.2c22.924,2.4 44.008,4.667 63.253,6.8c6.792,1.333 11.037,3.267 12.735,5.8c1.698,2.533 2.123,5.333 1.274,8.4c-0.849,3.067 -2.547,6.133 -5.095,9.2c-2.547,3.067 -4.669,5.8 -6.367,8.2Z" style="stroke:#000;stroke-width:16.67px;"/><path d="M4019.52,770.146c-6.226,9.333 -12.453,18.333 -18.679,27c-6.226,8.667 -12.452,17.4 -18.678,26.2c-3.962,5.333 -8.208,8.533 -12.736,9.6c-4.528,1.067 -12.452,0.933 -23.773,-0.4c-16.414,-2.133 -32.829,-4.067 -49.243,-5.8c-16.415,-1.733 -32.829,-3.267 -49.244,-4.6c-5.66,-0.533 -11.461,-0.467 -17.405,0.2c-5.943,0.667 -11.178,1.667 -15.707,3c-10.754,3.2 -16.131,6.733 -16.131,10.6c-0,3.867 5.094,7.4 15.282,10.6c7.925,2.667 16.981,4.8 27.169,6.4c14.717,4 30.282,7.733 46.697,11.2c16.414,3.467 31.98,7.467 46.696,12c16.415,5.333 30.141,11.067 41.178,17.2c11.037,6.133 20.235,12.667 27.593,19.6c13.585,13.067 20.377,27.333 20.377,42.8c-0,15.467 -5.66,30.2 -16.981,44.2c-11.32,14 -27.734,26.533 -49.243,37.6c-21.509,11.067 -46.98,18.733 -76.413,23c-33.961,5.067 -69.337,7.2 -106.128,6.4c-49.809,-1.333 -94.666,-5.667 -134.57,-13c-39.905,-7.333 -76.271,-19 -109.1,-35c-7.925,-3.733 -11.321,-8.533 -10.189,-14.4c1.132,-5.867 4.245,-11.067 9.34,-15.6c13.584,-12.267 26.461,-23.267 38.63,-33c12.17,-9.733 23.915,-17.267 35.235,-22.6c9.056,-4.267 15.848,-6.333 20.377,-6.2c4.528,0.133 12.169,2.067 22.923,5.8c10.755,3.733 20.518,7.133 29.292,10.2c8.773,3.067 17.405,6 25.895,8.8c8.49,2.8 17.263,5.333 26.32,7.6c9.056,2.267 19.244,4.2 30.565,5.8c10.188,1.6 18.395,1.8 24.621,0.6c6.227,-1.2 9.34,-3.4 9.34,-6.6c-0,-3.2 -3.679,-7.2 -11.038,-12c-7.358,-4.8 -18.961,-10.133 -34.81,-16c-16.98,-6.133 -34.81,-11.667 -53.488,-16.6c-18.679,-4.933 -36.791,-10.467 -54.338,-16.6c-10.188,-3.733 -19.811,-7.533 -28.867,-11.4c-9.056,-3.867 -17.829,-8.067 -26.32,-12.6c-18.112,-10.133 -30.423,-20.867 -36.932,-32.2c-6.51,-11.333 -8.349,-22.6 -5.519,-33.8c2.83,-11.2 9.764,-21.8 20.801,-31.8c11.037,-10 25.046,-18.867 42.027,-26.6c16.98,-7.467 36.367,-13.267 58.158,-17.4c21.792,-4.133 44.716,-6.933 68.771,-8.4c24.056,-1.467 48.961,-2 74.715,-1.6c25.753,0.4 51.083,1.467 75.988,3.2c24.904,1.733 48.819,3.8 71.742,6.2c22.924,2.4 44.008,4.667 63.253,6.8c6.792,1.333 11.037,3.267 12.735,5.8c1.698,2.533 2.123,5.333 1.274,8.4c-0.849,3.067 -2.547,6.133 -5.095,9.2c-2.547,3.067 -4.669,5.8 -6.367,8.2Z" style="fill:#fff;stroke:#000;stroke-width:16.67px;"/></g><g id="Reach-for-the" serif:id="Reach for the"><path d="M499.638,299.965c8.856,-29.433 18.022,-58.512 27.5,-87.239c9.477,-28.726 18.644,-57.805 27.5,-87.238c1.088,-3.856 2.175,-7.519 3.263,-10.989c1.087,-3.47 2.097,-6.941 3.03,-10.411c0.932,-3.47 1.67,-6.973 2.214,-10.507c0.543,-3.535 0.815,-7.23 0.815,-11.086c0,-2.956 -0.233,-5.655 -0.699,-8.097c-0.466,-2.442 -0.699,-5.205 -0.699,-8.29c-0,-2.956 0.466,-6.105 1.398,-9.447c2.331,-7.84 5.632,-13.688 9.905,-17.544c4.273,-3.856 10.759,-5.784 19.46,-5.784c3.573,0 7.03,0.29 10.371,0.868c3.34,0.578 6.642,1.253 9.905,2.024c3.573,0.9 7.263,1.671 11.07,2.314c3.806,0.642 7.652,0.964 11.536,0.964c3.107,-0 6.137,-0.129 9.089,-0.386c2.952,-0.257 6.331,-0.514 10.138,-0.771c3.806,-0.257 8.312,-0.514 13.517,-0.771c5.205,-0.257 11.769,-0.386 19.693,-0.386c4.35,0 9.477,0.129 15.381,0.386c5.904,0.257 12.041,0.835 18.411,1.735c6.371,0.9 12.818,2.217 19.344,3.952c6.525,1.735 12.624,4.081 18.295,7.037c5.67,2.956 10.681,6.587 15.031,10.893c4.351,4.305 7.614,9.479 9.789,15.52c1.087,2.956 1.825,5.655 2.214,8.097c0.388,2.442 0.582,4.82 0.582,7.133c0,7.84 -2.408,15.552 -7.224,23.135c-5.438,8.612 -12.779,16.677 -22.024,24.196c-9.244,7.519 -20.004,14.62 -32.278,21.303c-4.816,2.699 -10.409,5.495 -16.78,8.387c-6.37,2.892 -12.623,5.655 -18.76,8.29c-6.137,2.635 -11.653,5.044 -16.547,7.229c-4.894,2.185 -8.273,3.856 -10.138,5.013c5.438,2.185 10.876,4.466 16.314,6.844c5.438,2.378 10.992,5.238 16.663,8.579c5.671,3.342 11.42,7.391 17.246,12.146c5.826,4.756 11.886,10.572 18.178,17.448c6.293,6.876 12.818,15.006 19.577,24.388c6.758,9.383 13.789,20.436 21.091,33.16c1.864,3.085 2.797,6.363 2.797,9.833c-0,2.699 -0.661,5.398 -1.981,8.097c-1.321,2.699 -3.108,5.141 -5.361,7.326c-2.252,2.185 -4.933,3.952 -8.04,5.302c-3.107,1.35 -6.448,2.024 -10.021,2.024c-5.438,0 -9.944,-1.671 -13.517,-5.012c-3.574,-3.342 -6.992,-7.712 -10.255,-13.11c-3.262,-5.398 -6.642,-11.503 -10.137,-18.315c-3.496,-6.812 -7.808,-13.689 -12.935,-20.629c-5.593,-7.455 -11.769,-14.524 -18.528,-21.207c-6.758,-6.684 -13.944,-12.468 -21.557,-17.352c-7.613,-4.884 -15.459,-8.772 -23.538,-11.664c-8.08,-2.891 -16.159,-4.337 -24.238,-4.337l-3.496,-0c-4.816,-0 -9.128,0.353 -12.934,1.06c-3.807,0.707 -7.497,1.317 -11.07,1.832c-4.817,-1.414 -8.312,-3.728 -10.488,-6.941c-2.175,-3.213 -3.262,-6.812 -3.262,-10.796l-0,-2.699l-18.645,60.729c-0.621,1.928 -1.476,4.563 -2.563,7.905c-1.088,3.341 -2.331,7.004 -3.729,10.989c-1.398,3.984 -2.836,8.161 -4.312,12.531c-1.476,4.37 -2.874,8.483 -4.194,12.339c-1.321,3.856 -2.486,7.326 -3.496,10.411c-1.01,3.084 -1.748,5.398 -2.214,6.94c-2.175,3.213 -4.933,5.752 -8.274,7.616c-3.34,1.863 -6.952,2.795 -10.837,2.795c-6.836,0 -11.575,-1.703 -14.216,-5.109c-2.641,-3.406 -3.962,-7.358 -3.962,-11.857c0,-1.799 0.156,-3.631 0.466,-5.494c0.311,-1.864 0.699,-3.631 1.166,-5.302Zm114.429,-217.47c-0.933,2.571 -2.292,6.298 -4.079,11.182c-1.786,4.884 -3.767,10.411 -5.943,16.58c-2.175,6.17 -4.505,12.789 -6.991,19.858c-2.486,7.069 -4.972,14.17 -7.458,21.304c-2.486,7.133 -4.894,14.041 -7.225,20.725c-2.33,6.683 -4.428,12.66 -6.292,17.929c3.107,-3.341 7.768,-6.33 13.983,-8.964c6.215,-2.635 13.207,-5.109 20.975,-7.423c6.059,-1.799 13.517,-4.338 22.373,-7.615c8.856,-3.278 18.139,-7.037 27.85,-11.279c9.711,-4.241 19.421,-8.836 29.132,-13.784c9.71,-4.949 18.411,-10.025 26.102,-15.231c7.69,-5.205 13.944,-10.411 18.76,-15.616c4.817,-5.205 7.225,-10.25 7.225,-15.134c0,-4.756 -2.02,-8.515 -6.059,-11.279c-4.04,-2.763 -9.089,-4.851 -15.149,-6.265c-6.059,-1.414 -12.701,-2.346 -19.926,-2.796c-7.225,-0.45 -13.944,-0.675 -20.159,-0.675c-11.187,0 -22.373,0.579 -33.56,1.736c-11.186,1.156 -22.373,3.406 -33.559,6.747Z" style="fill:#fff;fill-rule:nonzero;"/><path d="M736.931,192.64c6.428,5.394 13.108,11.836 20.001,19.369c7.076,7.732 14.433,16.858 22.033,27.408c7.31,10.149 14.93,22.083 22.73,35.666c5.022,8.409 7.444,17.362 7.444,26.81c-0,7.568 -1.67,15.179 -5.373,22.747c-2.988,6.108 -6.997,11.66 -12.095,16.604c-5.047,4.896 -11.006,8.925 -17.969,11.948c-7.229,3.14 -14.985,4.784 -23.299,4.784c-14.67,-0 -26.645,-4.985 -36.285,-14c-5.537,-5.178 -10.959,-11.85 -16.014,-20.214c-3.624,-5.995 -7.384,-12.772 -11.267,-20.338c-2.703,-5.269 -6.056,-10.574 -10.042,-15.978c-4.592,-6.107 -9.661,-11.897 -15.202,-17.376c-5.057,-5 -10.422,-9.342 -16.118,-12.996c-5.428,-3.483 -11.012,-6.275 -16.773,-8.337c-4.338,-1.553 -8.666,-2.388 -13.004,-2.388l-3.496,-0c-2.548,-0 -4.834,0.126 -6.848,0.5c-4.267,0.792 -8.404,1.476 -12.409,2.052l-0.033,0.005l-5.243,17.078c-0.046,0.148 -0.092,0.296 -0.14,0.444c-0.628,1.95 -1.492,4.614 -2.592,7.994c-1.159,3.561 -2.483,7.465 -3.973,11.711c-1.357,3.866 -2.752,7.92 -4.184,12.16c-1.492,4.417 -2.906,8.575 -4.241,12.473c-1.266,3.696 -2.383,7.024 -3.352,9.981c-0.904,2.761 -1.567,4.831 -1.984,6.212c-0.971,3.214 -2.423,6.263 -4.305,9.043c-5.158,7.62 -11.715,13.62 -19.636,18.039c-8.349,4.658 -17.37,7.019 -27.078,7.019c-20.083,0 -32.798,-8.009 -40.557,-18.015c-7.203,-9.288 -10.954,-20.016 -10.954,-32.284c-0,-3.594 0.299,-7.254 0.92,-10.976c0.514,-3.086 1.165,-6.01 1.937,-8.777c0.061,-0.216 0.123,-0.432 0.188,-0.647c8.941,-29.717 18.196,-59.076 27.765,-88.078c9.359,-28.366 18.411,-57.08 27.143,-86.09c1.155,-4.088 2.312,-7.976 3.467,-11.663c0.95,-3.03 1.832,-6.06 2.646,-9.09c0.614,-2.288 1.101,-4.597 1.46,-6.928c0.295,-1.918 0.428,-3.924 0.428,-6.017c-0,-0.673 -0.002,-1.291 -0.108,-1.847c-0.818,-4.285 -1.29,-9.128 -1.29,-14.54c-0,-5.754 0.809,-11.898 2.624,-18.404c0.05,-0.18 0.102,-0.361 0.156,-0.541c4.414,-14.851 11.43,-25.488 19.524,-32.792c9.301,-8.394 22.851,-14.371 41.792,-14.371c5.533,-0 10.885,0.461 16.058,1.356c4.008,0.694 7.97,1.504 11.885,2.43c0.157,0.037 0.314,0.075 0.471,0.115c2.737,0.689 5.565,1.277 8.481,1.77c1.975,0.333 3.971,0.498 5.987,0.498c2.118,0 4.184,-0.084 6.197,-0.26c3.14,-0.273 6.735,-0.547 10.784,-0.821c3.976,-0.268 8.682,-0.537 14.119,-0.806c5.639,-0.279 12.751,-0.426 21.337,-0.426c4.76,-0 10.371,0.136 16.831,0.417c6.934,0.302 14.142,0.975 21.623,2.031c7.656,1.081 15.405,2.659 23.248,4.744c8.968,2.385 17.342,5.63 25.137,9.693c8.711,4.541 16.389,10.145 23.072,16.759c7.81,7.73 13.741,16.97 17.66,27.803c1.906,5.2 3.129,9.97 3.813,14.27c0.674,4.234 0.997,8.358 0.997,12.369c-0,13.858 -3.905,27.596 -12.416,41c-7.225,11.423 -16.868,22.215 -29.133,32.191c-10.667,8.675 -23.05,16.908 -37.024,24.527c-1.751,0.981 -3.592,1.975 -5.521,2.98Zm-237.293,107.325c-0.467,1.671 -0.855,3.438 -1.166,5.302c-0.31,1.863 -0.466,3.695 -0.466,5.494c0,4.499 1.321,8.451 3.962,11.857c2.641,3.406 7.38,5.109 14.216,5.109c3.885,0 7.497,-0.932 10.837,-2.795c3.341,-1.864 6.099,-4.403 8.274,-7.616c0.466,-1.542 1.204,-3.856 2.214,-6.94c1.01,-3.085 2.175,-6.555 3.496,-10.411c1.32,-3.856 2.718,-7.969 4.194,-12.339c1.476,-4.37 2.914,-8.547 4.312,-12.531c1.398,-3.985 2.641,-7.648 3.729,-10.989c1.087,-3.342 1.942,-5.977 2.563,-7.905l18.645,-60.729l-0,2.699c-0,3.984 1.087,7.583 3.262,10.796c2.176,3.213 5.671,5.527 10.488,6.941c3.573,-0.515 7.263,-1.125 11.07,-1.832c3.806,-0.707 8.118,-1.06 12.934,-1.06l3.496,-0c8.079,-0 16.158,1.446 24.238,4.337c8.079,2.892 15.925,6.78 23.538,11.664c7.613,4.884 14.799,10.668 21.557,17.352c6.759,6.683 12.935,13.752 18.528,21.207c5.127,6.94 9.439,13.817 12.935,20.629c3.495,6.812 6.875,12.917 10.137,18.315c3.263,5.398 6.681,9.768 10.255,13.11c3.573,3.341 8.079,5.012 13.517,5.012c3.573,0 6.914,-0.674 10.021,-2.024c3.107,-1.35 5.788,-3.117 8.04,-5.302c2.253,-2.185 4.04,-4.627 5.361,-7.326c1.32,-2.699 1.981,-5.398 1.981,-8.097c-0,-3.47 -0.933,-6.748 -2.797,-9.833c-7.302,-12.724 -14.333,-23.777 -21.091,-33.16c-6.759,-9.382 -13.284,-17.512 -19.577,-24.388c-6.292,-6.876 -12.352,-12.692 -18.178,-17.448c-5.826,-4.755 -11.575,-8.804 -17.246,-12.146c-5.671,-3.341 -11.225,-6.201 -16.663,-8.579c-5.438,-2.378 -10.876,-4.659 -16.314,-6.844c1.865,-1.157 5.244,-2.828 10.138,-5.013c4.894,-2.185 10.41,-4.594 16.547,-7.229c6.137,-2.635 12.39,-5.398 18.76,-8.29c6.371,-2.892 11.964,-5.688 16.78,-8.387c12.274,-6.683 23.034,-13.784 32.278,-21.303c9.245,-7.519 16.586,-15.584 22.024,-24.196c4.816,-7.583 7.224,-15.295 7.224,-23.135c0,-2.313 -0.194,-4.691 -0.582,-7.133c-0.389,-2.442 -1.127,-5.141 -2.214,-8.097c-2.175,-6.041 -5.438,-11.215 -9.789,-15.52c-4.35,-4.306 -9.361,-7.937 -15.031,-10.893c-5.671,-2.956 -11.77,-5.302 -18.295,-7.037c-6.526,-1.735 -12.973,-3.052 -19.344,-3.952c-6.37,-0.9 -12.507,-1.478 -18.411,-1.735c-5.904,-0.257 -11.031,-0.386 -15.381,-0.386c-7.924,0 -14.488,0.129 -19.693,0.386c-5.205,0.257 -9.711,0.514 -13.517,0.771c-3.807,0.257 -7.186,0.514 -10.138,0.771c-2.952,0.257 -5.982,0.386 -9.089,0.386c-3.884,-0 -7.73,-0.322 -11.536,-0.964c-3.807,-0.643 -7.497,-1.414 -11.07,-2.314c-3.263,-0.771 -6.565,-1.446 -9.905,-2.024c-3.341,-0.578 -6.798,-0.868 -10.371,-0.868c-8.701,0 -15.187,1.928 -19.46,5.784c-4.273,3.856 -7.574,9.704 -9.905,17.544c-0.932,3.342 -1.398,6.491 -1.398,9.447c-0,3.085 0.233,5.848 0.699,8.29c0.466,2.442 0.699,5.141 0.699,8.097c0,3.856 -0.272,7.551 -0.815,11.086c-0.544,3.534 -1.282,7.037 -2.214,10.507c-0.933,3.47 -1.943,6.941 -3.03,10.411c-1.088,3.47 -2.175,7.133 -3.263,10.989c-8.856,29.433 -18.023,58.512 -27.5,87.238c-9.478,28.727 -18.644,57.806 -27.5,87.239Zm114.429,-217.47c11.186,-3.341 22.373,-5.591 33.559,-6.747c11.187,-1.157 22.373,-1.736 33.56,-1.736c6.215,0 12.934,0.225 20.159,0.675c7.225,0.45 13.867,1.382 19.926,2.796c6.06,1.414 11.109,3.502 15.149,6.265c4.039,2.764 6.059,6.523 6.059,11.279c0,4.884 -2.408,9.929 -7.225,15.134c-4.816,5.205 -11.07,10.411 -18.76,15.616c-7.691,5.206 -16.392,10.282 -26.102,15.231c-9.711,4.948 -19.421,9.543 -29.132,13.784c-9.711,4.242 -18.994,8.001 -27.85,11.279c-8.856,3.277 -16.314,5.816 -22.373,7.615c-7.768,2.314 -14.76,4.788 -20.975,7.423c-6.215,2.634 -10.876,5.623 -13.983,8.964c1.864,-5.269 3.962,-11.246 6.292,-17.929c2.331,-6.684 4.739,-13.592 7.225,-20.725c2.486,-7.134 4.972,-14.235 7.458,-21.304c2.486,-7.069 4.816,-13.688 6.991,-19.858c2.176,-6.169 4.157,-11.696 5.943,-16.58c1.787,-4.884 3.146,-8.611 4.079,-11.182Zm68.659,24.856c-0.517,-0.003 -1.031,-0.005 -1.54,-0.005c-10.044,-0 -20.087,0.52 -30.131,1.558c-3.918,0.405 -7.836,0.976 -11.753,1.711c-1.197,3.323 -2.47,6.898 -3.82,10.726c-1.079,3.059 -2.195,6.229 -3.35,9.509c5.12,-2.042 10.382,-4.244 15.786,-6.604c9.113,-3.981 18.226,-8.294 27.339,-12.938c2.571,-1.31 5.061,-2.628 7.469,-3.957Z"/><path d="M819.387,249.839c-0,-5.527 1.786,-10.218 5.36,-14.074c3.573,-3.856 8.312,-6.426 14.216,-7.712c1.709,-2.827 4.35,-6.651 7.924,-11.471c3.573,-4.819 8.001,-10.057 13.284,-15.712c5.282,-5.655 11.303,-11.343 18.061,-17.062c6.759,-5.72 14.217,-10.925 22.374,-15.617c8.156,-4.691 16.935,-8.515 26.335,-11.471c9.399,-2.956 19.382,-4.434 29.947,-4.434c9.011,0 16.857,0.9 23.538,2.699c6.681,1.8 12.197,4.306 16.547,7.519c4.35,3.213 7.613,7.037 9.788,11.471c2.175,4.434 3.263,9.222 3.263,14.363c0,4.37 -0.699,8.547 -2.097,12.532c-2.176,7.197 -6.215,13.495 -12.119,18.893c-5.904,5.399 -12.857,10.122 -20.858,14.171c-8.002,4.048 -16.703,7.422 -26.102,10.121c-9.4,2.699 -18.8,4.949 -28.2,6.748c-9.4,1.799 -18.45,3.181 -27.151,4.145c-8.7,0.964 -16.236,1.703 -22.606,2.217c-1.398,2.314 -2.602,5.238 -3.612,8.772c-1.01,3.535 -1.515,6.973 -1.515,10.314c0,7.455 3.574,13.239 10.721,17.352c7.147,4.113 17.012,6.169 29.597,6.169c7.303,0 14.294,-0.675 20.975,-2.024c6.681,-1.35 13.012,-3.085 18.994,-5.206c5.982,-2.12 11.614,-4.434 16.896,-6.94c5.283,-2.506 10.099,-4.981 14.45,-7.423c5.593,-3.084 10.914,-5.687 15.964,-7.808c5.049,-2.12 9.516,-3.181 13.4,-3.181c3.885,0 6.37,0.804 7.458,2.41c1.088,1.607 1.631,3.31 1.631,5.109c0,1.028 -0.038,2.024 -0.116,2.988c-0.078,0.964 -0.194,1.768 -0.35,2.41c-0.777,3.342 -2.33,6.684 -4.661,10.026c-2.33,3.341 -5.282,6.233 -8.856,8.675c-16.158,10.539 -32.744,18.058 -49.757,22.557c-17.013,4.498 -35.152,6.748 -54.418,6.748c-3.728,-0 -8.118,-0.193 -13.167,-0.579c-5.05,-0.385 -10.293,-1.157 -15.731,-2.313c-5.438,-1.157 -10.798,-2.828 -16.081,-5.013c-5.282,-2.185 -9.982,-5.077 -14.1,-8.676c-4.117,-3.598 -7.457,-8.033 -10.021,-13.302c-2.563,-5.27 -3.845,-11.632 -3.845,-19.087c-0,-6.04 1.01,-12.788 3.029,-20.243c-2.019,-0.257 -3.923,-1.124 -5.709,-2.602c-1.787,-1.479 -2.68,-3.631 -2.68,-6.459Zm145.891,-53.403c0.311,-0.643 0.466,-1.221 0.466,-1.736l-0,-1.735c-0,-3.47 -1.554,-6.073 -4.661,-7.808c-3.107,-1.735 -6.836,-2.603 -11.187,-2.603c-6.836,0 -13.556,1.479 -20.159,4.435c-6.603,2.956 -12.818,6.651 -18.644,11.085c-5.826,4.434 -10.992,9.19 -15.498,14.267c-4.506,5.077 -8.002,9.672 -10.487,13.785c11.186,-0.772 21.44,-2.025 30.763,-3.76c9.322,-1.735 17.44,-3.92 24.354,-6.555c6.914,-2.635 12.507,-5.591 16.779,-8.868c4.273,-3.278 7.031,-6.78 8.274,-10.507Z" style="fill:#fff;fill-rule:nonzero;"/><path d="M1025.19,237.259c8.064,3.365 13.286,8.715 16.63,13.655c5.051,7.462 7.362,15.438 7.362,23.795c-0,1.95 -0.077,3.838 -0.225,5.666c-0.239,2.972 -0.669,5.448 -1.146,7.448c-1.673,7.098 -4.799,14.28 -9.749,21.377c-4.588,6.58 -10.354,12.321 -17.39,17.129c-0.197,0.135 -0.396,0.268 -0.596,0.399c-19.295,12.584 -39.132,21.491 -59.447,26.863c-19.678,5.203 -40.654,7.855 -62.939,7.855c-4.447,-0 -9.683,-0.215 -15.705,-0.675c-6.46,-0.494 -13.171,-1.466 -20.129,-2.946c-7.4,-1.575 -14.697,-3.841 -21.885,-6.814c-8.736,-3.614 -16.488,-8.43 -23.296,-14.381c-7.39,-6.459 -13.459,-14.361 -18.059,-23.818c-4.534,-9.319 -7.205,-20.486 -7.205,-33.669c0,-2.439 0.104,-4.96 0.318,-7.563c-3.61,-5.977 -5.678,-13.148 -5.678,-21.741c0,-14.458 4.897,-26.645 14.245,-36.732c4.81,-5.19 10.488,-9.477 17.118,-12.689c0.843,-1.172 1.741,-2.402 2.694,-3.688c4.23,-5.705 9.45,-11.921 15.702,-18.614c6.112,-6.544 13.067,-13.135 20.888,-19.753c8.246,-6.978 17.335,-13.343 27.287,-19.067c10.209,-5.871 21.189,-10.674 32.954,-14.374c12.541,-3.944 25.851,-5.969 39.947,-5.969c12.337,-0 23.061,1.382 32.207,3.846c11.225,3.023 20.373,7.494 27.682,12.893c8.909,6.58 15.457,14.523 19.911,23.603c4.401,8.971 6.669,18.642 6.669,29.043c0,7.987 -1.271,15.626 -3.736,22.87c-2.987,9.558 -7.762,18.264 -14.429,26.051Zm-205.805,12.58c-0,2.828 0.893,4.98 2.68,6.459c1.786,1.478 3.69,2.345 5.709,2.602c-2.019,7.455 -3.029,14.203 -3.029,20.243c-0,7.455 1.282,13.817 3.845,19.087c2.564,5.269 5.904,9.704 10.021,13.302c4.118,3.599 8.818,6.491 14.1,8.676c5.283,2.185 10.643,3.856 16.081,5.013c5.438,1.156 10.681,1.928 15.731,2.313c5.049,0.386 9.439,0.579 13.167,0.579c19.266,-0 37.405,-2.25 54.418,-6.748c17.013,-4.499 33.599,-12.018 49.757,-22.557c3.574,-2.442 6.526,-5.334 8.856,-8.675c2.331,-3.342 3.884,-6.684 4.661,-10.026c0.156,-0.642 0.272,-1.446 0.35,-2.41c0.078,-0.964 0.116,-1.96 0.116,-2.988c0,-1.799 -0.543,-3.502 -1.631,-5.109c-1.088,-1.606 -3.573,-2.41 -7.458,-2.41c-3.884,0 -8.351,1.061 -13.4,3.181c-5.05,2.121 -10.371,4.724 -15.964,7.808c-4.351,2.442 -9.167,4.917 -14.45,7.423c-5.282,2.506 -10.914,4.82 -16.896,6.94c-5.982,2.121 -12.313,3.856 -18.994,5.206c-6.681,1.349 -13.672,2.024 -20.975,2.024c-12.585,0 -22.45,-2.056 -29.597,-6.169c-7.147,-4.113 -10.721,-9.897 -10.721,-17.352c0,-3.341 0.505,-6.779 1.515,-10.314c1.01,-3.534 2.214,-6.458 3.612,-8.772c6.37,-0.514 13.906,-1.253 22.606,-2.217c8.701,-0.964 17.751,-2.346 27.151,-4.145c9.4,-1.799 18.8,-4.049 28.2,-6.748c9.399,-2.699 18.1,-6.073 26.102,-10.121c8.001,-4.049 14.954,-8.772 20.858,-14.171c5.904,-5.398 9.943,-11.696 12.119,-18.893c1.398,-3.985 2.097,-8.162 2.097,-12.532c0,-5.141 -1.088,-9.929 -3.263,-14.363c-2.175,-4.434 -5.438,-8.258 -9.788,-11.471c-4.35,-3.213 -9.866,-5.719 -16.547,-7.519c-6.681,-1.799 -14.527,-2.699 -23.538,-2.699c-10.565,0 -20.548,1.478 -29.947,4.434c-9.4,2.956 -18.179,6.78 -26.335,11.471c-8.157,4.692 -15.615,9.897 -22.374,15.617c-6.758,5.719 -12.779,11.407 -18.061,17.062c-5.283,5.655 -9.711,10.893 -13.284,15.712c-3.574,4.82 -6.215,8.644 -7.924,11.471c-5.904,1.286 -10.643,3.856 -14.216,7.712c-3.574,3.856 -5.36,8.547 -5.36,14.074Zm145.891,-53.403c-1.243,3.727 -4.001,7.229 -8.274,10.507c-4.272,3.277 -9.865,6.233 -16.779,8.868c-6.914,2.635 -15.032,4.82 -24.354,6.555c-9.323,1.735 -19.577,2.988 -30.763,3.76c2.485,-4.113 5.981,-8.708 10.487,-13.785c4.506,-5.077 9.672,-9.833 15.498,-14.267c5.826,-4.434 12.041,-8.129 18.644,-11.085c6.603,-2.956 13.323,-4.435 20.159,-4.435c4.351,0 8.08,0.868 11.187,2.603c3.107,1.735 4.661,4.338 4.661,7.808l-0,1.735c-0,0.515 -0.155,1.093 -0.466,1.736Z"/><path d="M1171.76,315.967c-0,-3.728 0.544,-8.194 1.631,-13.399c1.088,-5.206 1.632,-11.664 1.632,-19.376c-5.127,3.085 -10.798,6.748 -17.013,10.989c-6.215,4.242 -12.663,8.29 -19.344,12.146c-6.68,3.856 -13.322,7.101 -19.926,9.736c-6.603,2.635 -12.779,3.952 -18.527,3.952c-4.661,0 -9.089,-0.578 -13.284,-1.735c-4.195,-1.157 -7.769,-2.699 -10.721,-4.627c-8.234,-5.398 -14.177,-10.796 -17.828,-16.194c-3.652,-5.399 -5.477,-11.696 -5.477,-18.894c-0,-3.213 0.349,-6.555 1.049,-10.025c0.699,-3.47 1.748,-7.455 3.146,-11.953c5.904,-20.308 16.042,-39.105 30.413,-56.392c14.372,-17.287 32.2,-32.036 53.486,-44.246c8.235,-4.755 16.469,-7.808 24.704,-9.157c8.234,-1.35 16.391,-2.025 24.47,-2.025c3.574,0 7.574,0.193 12.002,0.579c4.428,0.385 8.429,0.771 12.003,1.156c3.573,-0.642 6.486,-1.092 8.739,-1.349c2.253,-0.257 4.622,-0.386 7.108,-0.386c4.661,0 8.546,0.514 11.653,1.543c3.107,1.028 5.593,2.409 7.458,4.145c1.864,1.735 3.224,3.727 4.078,5.976c0.855,2.249 1.282,4.595 1.282,7.037c-0,3.342 -0.622,6.523 -1.865,9.543c-1.242,3.021 -2.485,6.073 -3.728,9.158l-30.763,101.601c-0.622,5.527 -1.166,10.604 -1.632,15.231c-0.466,4.627 -1.398,8.933 -2.796,12.917c-0.467,1.157 -1.049,2.603 -1.748,4.338c-0.699,1.735 -1.826,3.406 -3.38,5.012c-1.553,1.607 -3.495,2.989 -5.826,4.146c-2.33,1.156 -5.36,1.735 -9.089,1.735c-4.816,-0 -8.662,-0.257 -11.536,-0.772c-2.874,-0.514 -5.088,-1.253 -6.642,-2.217c-1.554,-0.964 -2.564,-2.12 -3.03,-3.47c-0.466,-1.349 -0.699,-2.924 -0.699,-4.723Zm-77.374,-58.224c-0.621,1.8 -1.281,4.37 -1.981,7.712c-0.699,3.342 -1.048,6.684 -1.048,10.025c-0,3.471 0.621,6.587 1.864,9.351c1.243,2.763 3.962,4.145 8.157,4.145c6.525,-0 12.624,-1.189 18.295,-3.567c5.671,-2.378 10.992,-5.237 15.964,-8.579c6.681,-4.499 13.478,-9.543 20.392,-15.134c6.914,-5.591 13.439,-11.471 19.576,-17.641c6.137,-6.169 11.575,-12.499 16.314,-18.99c4.739,-6.491 8.196,-12.949 10.371,-19.375c1.243,-3.728 2.292,-8.033 3.146,-12.918c0.855,-4.884 1.282,-9.254 1.282,-13.109c-0,-1.671 -0.466,-3.31 -1.398,-4.917c-0.933,-1.606 -2.719,-2.409 -5.361,-2.409c-7.613,-0 -15.265,1.221 -22.955,3.663c-7.691,2.442 -15.11,5.719 -22.257,9.832c-7.147,4.113 -13.944,8.965 -20.392,14.556c-6.448,5.591 -12.313,11.567 -17.596,17.929c-5.282,6.363 -9.827,12.918 -13.633,19.665c-3.807,6.748 -6.72,13.335 -8.74,19.761Z" style="fill:#fff;fill-rule:nonzero;"/><path d="M1145.39,340.571c-4.781,2.409 -9.546,4.558 -14.292,6.452c-10.987,4.384 -21.316,6.326 -30.881,6.326c-7.772,-0 -15.15,-1.006 -22.145,-2.935c-7.886,-2.174 -14.537,-5.228 -20.087,-8.852l-0.048,-0.032c-12.714,-8.334 -21.527,-17.062 -27.164,-25.396c-7.276,-10.758 -11.199,-23.225 -11.199,-37.569c-0,-5.322 0.547,-10.861 1.705,-16.609c0.877,-4.355 2.163,-9.351 3.881,-14.902c7.165,-24.529 19.356,-47.279 36.723,-68.169c16.809,-20.219 37.6,-37.542 62.492,-51.827c11.963,-6.902 23.975,-11.2 35.939,-13.161c10.048,-1.647 20.002,-2.463 29.861,-2.463c4.434,-0 9.4,0.225 14.894,0.704c2.838,0.247 5.51,0.494 7.998,0.743c2.333,-0.371 4.357,-0.651 6.073,-0.847c3.451,-0.393 7.08,-0.6 10.887,-0.6c8.866,-0 16.214,1.274 22.125,3.23c8.285,2.742 14.723,6.763 19.695,11.389c5.765,5.366 9.887,11.584 12.529,18.54c2.293,6.034 3.455,12.324 3.455,18.875c0,7.786 -1.476,15.191 -4.372,22.228c-1.028,2.498 -2.056,5.018 -3.085,7.563c0,0 -29.443,97.245 -29.446,97.265c-0.467,4.227 -0.884,8.166 -1.252,11.818c-0.745,7.388 -2.277,14.253 -4.51,20.614c-0.167,0.478 -0.346,0.951 -0.535,1.42l-1.748,4.338c-2.176,5.401 -5.498,10.725 -10.335,15.727c-4.015,4.151 -8.946,7.841 -14.968,10.83c-6.163,3.059 -14.048,5.211 -23.909,5.211c-7.271,-0 -13.066,-0.516 -17.405,-1.292c-8.018,-1.434 -14.013,-4.016 -18.347,-6.705c-5.51,-3.419 -9.575,-7.484 -12.529,-11.914Zm26.374,-24.604c-0,1.799 0.233,3.374 0.699,4.723c0.466,1.35 1.476,2.506 3.03,3.47c1.554,0.964 3.768,1.703 6.642,2.217c2.874,0.515 6.72,0.772 11.536,0.772c3.729,-0 6.759,-0.579 9.089,-1.735c2.331,-1.157 4.273,-2.539 5.826,-4.146c1.554,-1.606 2.681,-3.277 3.38,-5.012l1.748,-4.338c1.398,-3.984 2.33,-8.29 2.796,-12.917c0.466,-4.627 1.01,-9.704 1.632,-15.231l30.763,-101.601c1.243,-3.085 2.486,-6.137 3.728,-9.158c1.243,-3.02 1.865,-6.201 1.865,-9.543c-0,-2.442 -0.427,-4.788 -1.282,-7.037c-0.854,-2.249 -2.214,-4.241 -4.078,-5.976c-1.865,-1.736 -4.351,-3.117 -7.458,-4.145c-3.107,-1.029 -6.992,-1.543 -11.653,-1.543c-2.486,0 -4.855,0.129 -7.108,0.386c-2.253,0.257 -5.166,0.707 -8.739,1.349c-3.574,-0.385 -7.575,-0.771 -12.003,-1.156c-4.428,-0.386 -8.428,-0.579 -12.002,-0.579c-8.079,0 -16.236,0.675 -24.47,2.025c-8.235,1.349 -16.469,4.402 -24.704,9.157c-21.286,12.21 -39.114,26.959 -53.486,44.246c-14.371,17.287 -24.509,36.084 -30.413,56.392c-1.398,4.498 -2.447,8.483 -3.146,11.953c-0.7,3.47 -1.049,6.812 -1.049,10.025c-0,7.198 1.825,13.495 5.477,18.894c3.651,5.398 9.594,10.796 17.828,16.194c2.952,1.928 6.526,3.47 10.721,4.627c4.195,1.157 8.623,1.735 13.284,1.735c5.748,0 11.924,-1.317 18.527,-3.952c6.604,-2.635 13.246,-5.88 19.926,-9.736c6.681,-3.856 13.129,-7.904 19.344,-12.146c6.215,-4.241 11.886,-7.904 17.013,-10.989c-0,7.712 -0.544,14.17 -1.632,19.376c-1.087,5.205 -1.631,9.671 -1.631,13.399Zm-77.374,-58.224c2.02,-6.426 4.933,-13.013 8.74,-19.761c3.806,-6.747 8.351,-13.302 13.633,-19.665c5.283,-6.362 11.148,-12.338 17.596,-17.929c6.448,-5.591 13.245,-10.443 20.392,-14.556c7.147,-4.113 14.566,-7.39 22.257,-9.832c7.69,-2.442 15.342,-3.663 22.955,-3.663c2.642,-0 4.428,0.803 5.361,2.409c0.932,1.607 1.398,3.246 1.398,4.917c-0,3.855 -0.427,8.225 -1.282,13.109c-0.854,4.885 -1.903,9.19 -3.146,12.918c-2.175,6.426 -5.632,12.884 -10.371,19.375c-4.739,6.491 -10.177,12.821 -16.314,18.99c-6.137,6.17 -12.662,12.05 -19.576,17.641c-6.914,5.591 -13.711,10.635 -20.392,15.134c-4.972,3.342 -10.293,6.201 -15.964,8.579c-5.671,2.378 -11.77,3.567 -18.295,3.567c-4.195,-0 -6.914,-1.382 -8.157,-4.145c-1.243,-2.764 -1.864,-5.88 -1.864,-9.351c-0,-3.341 0.349,-6.683 1.048,-10.025c0.7,-3.342 1.36,-5.912 1.981,-7.712Z"/><path d="M1290.62,248.875c2.952,-9.897 7.341,-20.243 13.168,-31.04c5.826,-10.796 12.856,-21.239 21.091,-31.328c8.234,-10.09 17.595,-19.408 28.083,-27.955c10.487,-8.547 21.946,-15.52 34.375,-20.918c4.04,-1.799 8.468,-3.149 13.284,-4.049c4.817,-0.899 9.711,-1.349 14.683,-1.349c5.127,-0 9.904,0.385 14.332,1.156c4.428,0.772 8.235,2.057 11.42,3.856c3.185,1.8 5.71,4.113 7.574,6.941c1.865,2.827 2.797,6.298 2.797,10.411c-0,3.084 -0.544,6.201 -1.632,9.35c-1.087,3.149 -2.718,5.977 -4.894,8.483c-2.175,2.506 -4.894,4.531 -8.157,6.073c-3.262,1.542 -7.069,2.313 -11.419,2.313c-3.418,0 -6.564,-0.514 -9.439,-1.542c-2.874,-1.028 -5.632,-2.185 -8.273,-3.47c-1.398,-0.771 -2.719,-1.446 -3.962,-2.025c-1.243,-0.578 -2.719,-1.124 -4.428,-1.638c-6.215,2.313 -12.08,5.366 -17.596,9.157c-5.515,3.792 -10.642,8.001 -15.381,12.628c-4.739,4.627 -9.089,9.576 -13.051,14.845c-3.962,5.27 -7.535,10.54 -10.721,15.809c-3.185,5.27 -5.904,10.443 -8.156,15.52c-2.253,5.077 -4.079,9.736 -5.477,13.977c-1.088,3.085 -2.059,6.587 -2.913,10.508c-0.855,3.92 -1.282,7.743 -1.282,11.471c-0,2.57 0.272,5.012 0.816,7.326c0.543,2.313 1.514,4.37 2.913,6.169c1.398,1.8 3.262,3.213 5.593,4.242c2.331,1.028 5.205,1.542 8.623,1.542c5.438,-0 10.837,-0.578 16.197,-1.735c5.36,-1.157 10.604,-2.635 15.731,-4.434c5.127,-1.8 10.138,-3.888 15.032,-6.266c4.894,-2.378 9.672,-4.788 14.333,-7.23c2.952,-1.542 5.904,-3.149 8.856,-4.82c2.952,-1.671 5.749,-3.149 8.39,-4.434c2.641,-1.285 5.088,-2.346 7.341,-3.181c2.253,-0.835 4.234,-1.253 5.943,-1.253c2.33,-0 4.506,0.482 6.525,1.446c2.02,0.964 3.03,2.603 3.03,4.916c0,1.671 -0.466,3.535 -1.398,5.591c-2.175,5.013 -5.127,9.511 -8.856,13.495c-3.729,3.985 -7.885,7.551 -12.469,10.7c-4.583,3.149 -9.477,5.945 -14.682,8.387c-5.205,2.442 -10.371,4.691 -15.498,6.748c-9.633,4.241 -19.382,7.422 -29.248,9.543c-9.866,2.121 -18.139,3.181 -24.82,3.181c-2.175,-0 -4.739,-0.193 -7.691,-0.578c-2.952,-0.386 -5.516,-0.964 -7.691,-1.736c-12.585,-4.498 -21.751,-10.539 -27.5,-18.122c-5.749,-7.583 -8.623,-16.58 -8.623,-26.991c-0,-4.498 0.427,-9.222 1.282,-14.17c0.854,-4.949 2.136,-10.122 3.845,-15.52Z" style="fill:#fff;fill-rule:nonzero;"/><path d="M1400.22,208.973c-3.824,2.652 -7.387,5.586 -10.684,8.806c-3.52,3.437 -6.752,7.112 -9.695,11.026c-3.264,4.342 -6.212,8.679 -8.836,13.021c-2.423,4.008 -4.503,7.936 -6.216,11.797c-0.653,1.47 -1.261,2.895 -1.824,4.274c0.173,-0.06 0.346,-0.12 0.519,-0.181c3.924,-1.377 7.758,-2.976 11.504,-4.795c4.585,-2.228 9.062,-4.486 13.429,-6.774l0.034,-0.018c2.624,-1.371 5.248,-2.799 7.873,-4.285c3.596,-2.035 7.006,-3.832 10.224,-5.398c3.716,-1.809 7.166,-3.286 10.336,-4.462c6.62,-2.454 12.511,-3.332 17.533,-3.332c7.463,-0 14.414,1.609 20.883,4.696c14.46,6.901 22.005,18.436 22.005,34.999c0,5.681 -1.134,12.113 -4.254,19.092c-3.698,8.451 -8.697,16.041 -14.996,22.771c-5.363,5.732 -11.337,10.868 -17.93,15.397c-6.057,4.162 -12.521,7.863 -19.399,11.09c-5.636,2.644 -11.231,5.084 -16.739,7.304c-11.581,5.059 -23.304,8.85 -35.161,11.399c-12.643,2.717 -23.264,3.925 -31.825,3.925c-3.396,0 -7.4,-0.257 -12.008,-0.859c-5.579,-0.729 -10.402,-1.913 -14.512,-3.37l-0.082,-0.029c-19.849,-7.096 -33.776,-17.413 -42.843,-29.374c-10.059,-13.268 -15.393,-28.912 -15.393,-47.128c-0,-6.298 0.571,-12.914 1.768,-19.843c1.082,-6.269 2.682,-12.825 4.834,-19.658c3.548,-11.813 8.742,-24.182 15.691,-37.059c6.8,-12.601 14.991,-24.799 24.602,-36.575c9.634,-11.805 20.578,-22.717 32.848,-32.717c12.827,-10.453 26.837,-18.987 42.032,-25.6c6.263,-2.774 13.11,-4.902 20.566,-6.294c6.824,-1.275 13.758,-1.917 20.803,-1.917c7.174,0 13.856,0.572 20.052,1.651c8.593,1.497 15.915,4.181 22.096,7.673c8.034,4.539 14.304,10.481 19.007,17.614c5.177,7.852 8.301,17.339 8.301,28.76c0,6.67 -1.106,13.422 -3.458,20.232c-2.493,7.221 -6.238,13.702 -11.226,19.449c-5.109,5.887 -11.423,10.738 -19.086,14.361c-7.351,3.475 -15.864,5.511 -25.665,5.511c-7.491,-0 -14.367,-1.237 -20.666,-3.49c-1.504,-0.538 -2.984,-1.102 -4.442,-1.69Zm-109.597,39.902c-1.709,5.398 -2.991,10.571 -3.845,15.52c-0.855,4.948 -1.282,9.672 -1.282,14.17c-0,10.411 2.874,19.408 8.623,26.991c5.749,7.583 14.915,13.624 27.5,18.122c2.175,0.772 4.739,1.35 7.691,1.736c2.952,0.385 5.516,0.578 7.691,0.578c6.681,-0 14.954,-1.06 24.82,-3.181c9.866,-2.121 19.615,-5.302 29.248,-9.543c5.127,-2.057 10.293,-4.306 15.498,-6.748c5.205,-2.442 10.099,-5.238 14.682,-8.387c4.584,-3.149 8.74,-6.715 12.469,-10.7c3.729,-3.984 6.681,-8.482 8.856,-13.495c0.932,-2.056 1.398,-3.92 1.398,-5.591c0,-2.313 -1.01,-3.952 -3.03,-4.916c-2.019,-0.964 -4.195,-1.446 -6.525,-1.446c-1.709,-0 -3.69,0.418 -5.943,1.253c-2.253,0.835 -4.7,1.896 -7.341,3.181c-2.641,1.285 -5.438,2.763 -8.39,4.434c-2.952,1.671 -5.904,3.278 -8.856,4.82c-4.661,2.442 -9.439,4.852 -14.333,7.23c-4.894,2.378 -9.905,4.466 -15.032,6.266c-5.127,1.799 -10.371,3.277 -15.731,4.434c-5.36,1.157 -10.759,1.735 -16.197,1.735c-3.418,-0 -6.292,-0.514 -8.623,-1.542c-2.331,-1.029 -4.195,-2.442 -5.593,-4.242c-1.399,-1.799 -2.37,-3.856 -2.913,-6.169c-0.544,-2.314 -0.816,-4.756 -0.816,-7.326c-0,-3.728 0.427,-7.551 1.282,-11.471c0.854,-3.921 1.825,-7.423 2.913,-10.508c1.398,-4.241 3.224,-8.9 5.477,-13.977c2.252,-5.077 4.971,-10.25 8.156,-15.52c3.186,-5.269 6.759,-10.539 10.721,-15.809c3.962,-5.269 8.312,-10.218 13.051,-14.845c4.739,-4.627 9.866,-8.836 15.381,-12.628c5.516,-3.791 11.381,-6.844 17.596,-9.157c1.709,0.514 3.185,1.06 4.428,1.638c1.243,0.579 2.564,1.254 3.962,2.025c2.641,1.285 5.399,2.442 8.273,3.47c2.875,1.028 6.021,1.542 9.439,1.542c4.35,0 8.157,-0.771 11.419,-2.313c3.263,-1.542 5.982,-3.567 8.157,-6.073c2.176,-2.506 3.807,-5.334 4.894,-8.483c1.088,-3.149 1.632,-6.266 1.632,-9.35c-0,-4.113 -0.932,-7.584 -2.797,-10.411c-1.864,-2.828 -4.389,-5.141 -7.574,-6.941c-3.185,-1.799 -6.992,-3.084 -11.42,-3.856c-4.428,-0.771 -9.205,-1.156 -14.332,-1.156c-4.972,-0 -9.866,0.45 -14.683,1.349c-4.816,0.9 -9.244,2.25 -13.284,4.049c-12.429,5.398 -23.888,12.371 -34.375,20.918c-10.488,8.547 -19.849,17.865 -28.083,27.955c-8.235,10.089 -15.265,20.532 -21.091,31.328c-5.827,10.797 -10.216,21.143 -13.168,31.04Zm99.09,-44.814c-0.041,-0.019 -0.082,-0.038 -0.122,-0.057c0.018,0.008 0.008,0.053 0.033,0.06l0.089,-0.003Z"/><path d="M1653.48,335.246c-9.633,-0 -16.236,-1.735 -19.81,-5.205c-3.573,-3.471 -5.36,-8.226 -5.36,-14.267c0,-3.213 0.389,-6.684 1.165,-10.411c0.777,-3.727 1.787,-7.583 3.03,-11.567c2.175,-6.812 4.622,-13.592 7.341,-20.34c2.719,-6.748 5.438,-13.56 8.157,-20.436c2.719,-6.876 5.36,-13.752 7.924,-20.629c2.564,-6.876 4.855,-13.784 6.875,-20.725c0.155,-0.643 0.233,-1.478 0.233,-2.506c0,-1.8 -0.544,-3.213 -1.631,-4.242c-1.088,-1.028 -2.719,-1.542 -4.894,-1.542c-3.418,0 -7.108,0.578 -11.07,1.735c-3.962,1.157 -7.264,2.442 -9.905,3.856c-10.41,5.784 -19.538,11.503 -27.384,17.159c-7.846,5.655 -15.032,11.567 -21.557,17.736c-6.526,6.17 -12.702,12.757 -18.528,19.762c-5.826,7.004 -11.925,14.684 -18.295,23.038c-5.438,8.355 -9.477,15.456 -12.118,21.304c-2.642,5.848 -5.089,10.571 -7.342,14.17c-2.253,3.599 -4.777,6.202 -7.574,7.808c-2.797,1.607 -6.991,2.41 -12.585,2.41c-6.215,0 -10.604,-1.478 -13.167,-4.434c-2.564,-2.956 -3.846,-6.812 -3.846,-11.568c0,-3.727 0.7,-7.904 2.098,-12.531l76.907,-254.871c0.466,-1.543 1.243,-3.214 2.331,-5.013c1.088,-1.799 2.564,-3.47 4.428,-5.013c1.864,-1.542 4.078,-2.827 6.642,-3.856c2.564,-1.028 5.477,-1.542 8.739,-1.542c2.486,0 5.128,0.097 7.924,0.289c2.797,0.193 5.322,0.579 7.574,1.157c2.253,0.578 4.118,1.51 5.594,2.796c1.476,1.285 2.214,2.956 2.214,5.012c-0,0.514 -0.156,1.575 -0.466,3.181c-0.311,1.607 -0.777,3.438 -1.399,5.495c-8.39,27.89 -17.362,56.938 -26.917,87.142c-9.555,30.204 -19.227,60.729 -29.015,91.576c9.477,-9.639 19.343,-18.476 29.597,-26.509c10.255,-8.033 20.781,-14.941 31.579,-20.725c10.798,-5.784 21.985,-10.314 33.56,-13.592c11.575,-3.277 23.577,-4.916 36.006,-4.916c7.924,0 14.061,2.089 18.412,6.266c4.35,4.177 6.525,9.479 6.525,15.905c0,2.956 -0.466,5.848 -1.398,8.676c-1.865,5.912 -3.962,11.728 -6.293,17.447c-2.33,5.72 -4.738,11.472 -7.224,17.255c-2.486,5.784 -4.972,11.664 -7.458,17.641c-2.486,5.976 -4.661,12.114 -6.525,18.412c-2.486,8.097 -4.195,15.776 -5.128,23.038c-0.932,7.262 -1.553,13.078 -1.864,17.448c-0.311,3.727 -1.01,7.326 -2.098,10.796c-1.087,3.47 -2.68,6.523 -4.777,9.158c-2.098,2.635 -4.739,4.755 -7.924,6.362c-3.185,1.607 -6.953,2.41 -11.303,2.41Z" style="fill:#fff;fill-rule:nonzero;"/><path d="M1621.51,145.736c7.819,-3.336 15.799,-6.156 23.937,-8.46c14.496,-4.105 29.523,-6.177 45.088,-6.177c18.057,-0 31.585,6.036 41.499,15.555c10.963,10.527 16.771,23.753 16.771,39.949c0,6.431 -0.995,12.726 -2.998,18.881c-2.123,6.715 -4.509,13.322 -7.157,19.821c-2.409,5.913 -4.899,11.859 -7.469,17.839c-2.435,5.665 -4.87,11.425 -7.305,17.28c-2.035,4.892 -3.814,9.916 -5.34,15.072c-0.032,0.107 -0.064,0.214 -0.097,0.32c-1.889,6.154 -3.222,11.982 -3.931,17.5c-0.831,6.48 -1.399,11.669 -1.677,15.568c-0.009,0.135 -0.02,0.27 -0.031,0.405c-0.518,6.214 -1.695,12.211 -3.508,17.996c-2.374,7.575 -5.928,14.198 -10.506,19.949c-5.042,6.334 -11.335,11.502 -18.991,15.363c-7.437,3.752 -16.157,5.982 -26.315,5.982c-21.375,0 -35.102,-6.925 -43.032,-14.625c-9.659,-9.381 -15.471,-21.852 -15.471,-38.18c-0,-5.31 0.582,-11.052 1.866,-17.212c0.987,-4.734 2.263,-9.633 3.841,-14.693c0.022,-0.071 0.045,-0.142 0.067,-0.213c1.116,-3.494 2.296,-6.981 3.54,-10.46c-3.672,3.748 -7.204,7.663 -10.598,11.743c-5.312,6.386 -10.859,13.363 -16.669,20.963c-3.973,6.161 -7.012,11.398 -8.993,15.784c-3.386,7.497 -6.578,13.523 -9.466,18.137c-5.601,8.948 -12.27,15.03 -19.224,19.025c-6.543,3.759 -16.102,6.839 -29.189,6.839c-18.575,0 -30.688,-7.093 -38.35,-15.928c-7.465,-8.608 -11.996,-19.56 -11.996,-33.407c0,-6.586 1.052,-13.998 3.519,-22.161l76.911,-254.884c1.168,-3.863 2.988,-8.106 5.712,-12.612c2.9,-4.799 6.736,-9.342 11.708,-13.455c4.36,-3.607 9.485,-6.704 15.48,-9.109c6.214,-2.493 13.24,-3.938 21.148,-3.938c3.205,-0 6.611,0.119 10.217,0.368c5.013,0.346 9.532,1.088 13.571,2.125c7.788,1.999 14.091,5.5 19.194,9.943c8.915,7.764 13.657,17.729 13.657,30.151c0,1.531 -0.147,4.728 -1.073,9.511c-0.497,2.574 -1.221,5.513 -2.204,8.767c-8.163,27.137 -16.875,55.363 -26.136,84.678Zm31.97,189.51c4.35,-0 8.118,-0.803 11.303,-2.41c3.185,-1.607 5.826,-3.727 7.924,-6.362c2.097,-2.635 3.69,-5.688 4.777,-9.158c1.088,-3.47 1.787,-7.069 2.098,-10.796c0.311,-4.37 0.932,-10.186 1.864,-17.448c0.933,-7.262 2.642,-14.941 5.128,-23.038c1.864,-6.298 4.039,-12.436 6.525,-18.412c2.486,-5.977 4.972,-11.857 7.458,-17.641c2.486,-5.783 4.894,-11.535 7.224,-17.255c2.331,-5.719 4.428,-11.535 6.293,-17.447c0.932,-2.828 1.398,-5.72 1.398,-8.676c0,-6.426 -2.175,-11.728 -6.525,-15.905c-4.351,-4.177 -10.488,-6.266 -18.412,-6.266c-12.429,0 -24.431,1.639 -36.006,4.916c-11.575,3.278 -22.762,7.808 -33.56,13.592c-10.798,5.784 -21.324,12.692 -31.579,20.725c-10.254,8.033 -20.12,16.87 -29.597,26.509c9.788,-30.847 19.46,-61.372 29.015,-91.576c9.555,-30.204 18.527,-59.252 26.917,-87.142c0.622,-2.057 1.088,-3.888 1.399,-5.495c0.31,-1.606 0.466,-2.667 0.466,-3.181c-0,-2.056 -0.738,-3.727 -2.214,-5.012c-1.476,-1.286 -3.341,-2.218 -5.594,-2.796c-2.252,-0.578 -4.777,-0.964 -7.574,-1.157c-2.796,-0.192 -5.438,-0.289 -7.924,-0.289c-3.262,0 -6.175,0.514 -8.739,1.542c-2.564,1.029 -4.778,2.314 -6.642,3.856c-1.864,1.543 -3.34,3.214 -4.428,5.013c-1.088,1.799 -1.865,3.47 -2.331,5.013l-76.907,254.871c-1.398,4.627 -2.098,8.804 -2.098,12.531c0,4.756 1.282,8.612 3.846,11.568c2.563,2.956 6.952,4.434 13.167,4.434c5.594,0 9.788,-0.803 12.585,-2.41c2.797,-1.606 5.321,-4.209 7.574,-7.808c2.253,-3.599 4.7,-8.322 7.342,-14.17c2.641,-5.848 6.68,-12.949 12.118,-21.304c6.37,-8.354 12.469,-16.034 18.295,-23.038c5.826,-7.005 12.002,-13.592 18.528,-19.762c6.525,-6.169 13.711,-12.081 21.557,-17.736c7.846,-5.656 16.974,-11.375 27.384,-17.159c2.641,-1.414 5.943,-2.699 9.905,-3.856c3.962,-1.157 7.652,-1.735 11.07,-1.735c2.175,0 3.806,0.514 4.894,1.542c1.087,1.029 1.631,2.442 1.631,4.242c0,1.028 -0.078,1.863 -0.233,2.506c-2.02,6.941 -4.311,13.849 -6.875,20.725c-2.564,6.877 -5.205,13.753 -7.924,20.629c-2.719,6.876 -5.438,13.688 -8.157,20.436c-2.719,6.748 -5.166,13.528 -7.341,20.34c-1.243,3.984 -2.253,7.84 -3.03,11.567c-0.776,3.727 -1.165,7.198 -1.165,10.411c0,6.041 1.787,10.796 5.36,14.267c3.574,3.47 10.177,5.205 19.81,5.205Z"/><path d="M2031.96,341.994c-3.884,-0 -7.341,-0.611 -10.371,-1.832c-3.029,-1.221 -5.593,-2.892 -7.69,-5.012c-2.098,-2.121 -3.729,-4.531 -4.894,-7.23c-1.166,-2.699 -1.748,-5.591 -1.748,-8.676c-0,-2.185 0.31,-4.595 0.932,-7.23c0.621,-2.634 1.554,-5.815 2.797,-9.543c0.466,-1.671 1.165,-4.177 2.097,-7.519c0.932,-3.341 1.864,-7.133 2.797,-11.374c0.932,-4.242 1.903,-8.74 2.913,-13.496c1.01,-4.755 1.942,-9.382 2.796,-13.881c0.855,-4.498 1.515,-8.676 1.981,-12.531c0.467,-3.856 0.7,-7.069 0.7,-9.64c-0,-1.671 -0.078,-2.763 -0.233,-3.277c-0.311,-1.928 -1.981,-3.246 -5.011,-3.953c-3.03,-0.707 -6.293,-1.478 -9.788,-2.313c-3.496,-0.836 -6.681,-2.185 -9.556,-4.049c-2.874,-1.864 -4.311,-4.916 -4.311,-9.157c-0,-3.471 0.971,-6.748 2.913,-9.833c1.942,-3.085 4.467,-5.27 7.574,-6.555c3.574,-1.414 7.575,-2.185 12.003,-2.313c4.428,-0.129 8.817,-0.514 13.167,-1.157c2.486,-0.257 4.234,-1.478 5.244,-3.663c1.01,-2.185 1.825,-4.306 2.447,-6.362c1.864,-5.913 3.884,-12.307 6.059,-19.183c2.175,-6.876 4.7,-13.881 7.574,-21.014c2.875,-7.134 6.06,-14.106 9.556,-20.918c3.495,-6.812 7.419,-13.11 11.769,-18.894c6.991,-7.84 14.488,-15.166 22.489,-21.978c8.002,-6.812 16.547,-12.757 25.636,-17.834c9.089,-5.076 18.722,-9.061 28.899,-11.953c10.177,-2.892 21.014,-4.338 32.511,-4.338c13.828,0 25.092,1.928 33.793,5.784c8.7,3.856 15.77,9.64 21.207,17.352c1.243,1.799 2.098,3.63 2.564,5.494c0.466,1.864 0.699,3.76 0.699,5.687c0,3.471 -0.582,6.716 -1.748,9.736c-1.165,3.021 -2.758,5.656 -4.777,7.905c-2.02,2.249 -4.389,4.016 -7.108,5.302c-2.719,1.285 -5.555,1.928 -8.507,1.928c-4.195,-0 -7.458,-0.707 -9.788,-2.121c-2.331,-1.414 -4.234,-3.149 -5.71,-5.205c-1.476,-2.057 -2.641,-4.338 -3.496,-6.845c-0.854,-2.506 -1.786,-4.787 -2.796,-6.844c-1.01,-2.056 -2.37,-3.791 -4.079,-5.205c-1.709,-1.414 -4.117,-2.121 -7.224,-2.121c-3.108,0 -6.642,0.322 -10.604,0.964c-3.962,0.643 -7.73,1.735 -11.303,3.278c-9.478,4.113 -18.256,8.707 -26.335,13.784c-8.08,5.077 -15.576,11.536 -22.49,19.376c-6.914,7.84 -13.284,17.415 -19.11,28.726c-5.827,11.31 -11.226,25.256 -16.198,41.836c-0.155,0.257 -0.31,0.578 -0.466,0.964c-0.155,0.385 -0.233,0.642 -0.233,0.771c0,0.257 0.622,0.386 1.865,0.386c4.661,-0 9.128,-0.225 13.4,-0.675c4.273,-0.45 8.507,-0.964 12.702,-1.543c4.195,-0.578 8.428,-1.092 12.701,-1.542c4.273,-0.45 8.817,-0.675 13.634,-0.675c3.573,0 6.914,0.129 10.021,0.386c3.107,0.257 5.787,0.803 8.04,1.639c2.253,0.835 4.04,2.024 5.36,3.566c1.321,1.543 1.981,3.599 1.981,6.17c0,1.542 -0.272,3.438 -0.815,5.687c-0.544,2.249 -1.399,4.434 -2.564,6.555c-1.165,2.121 -2.641,4.016 -4.428,5.687c-1.787,1.671 -4.001,2.699 -6.642,3.085c-4.661,0.771 -9.477,1.382 -14.449,1.832c-4.972,0.449 -10.41,0.963 -16.314,1.542c-5.904,0.578 -12.429,1.414 -19.576,2.506c-7.147,1.093 -15.149,2.667 -24.005,4.724c-2.797,8.739 -4.933,17.383 -6.409,25.93c-1.476,8.547 -2.758,17.062 -3.845,25.545c-1.088,8.483 -2.292,16.998 -3.613,25.545c-1.32,8.547 -3.223,17.126 -5.709,25.738c-0.466,1.671 -1.282,3.342 -2.447,5.012c-1.166,1.671 -2.564,3.181 -4.195,4.531c-1.632,1.35 -3.496,2.442 -5.594,3.277c-2.097,0.836 -4.311,1.254 -6.642,1.254Z" style="fill:#fff;fill-rule:nonzero;"/><path d="M2010.62,159.702c0.773,-2.445 1.568,-4.959 2.384,-7.54c2.424,-7.663 5.235,-15.47 8.438,-23.42c3.253,-8.074 6.859,-15.967 10.817,-23.679c4.388,-8.551 9.325,-16.45 14.786,-23.711c0.557,-0.74 1.144,-1.457 1.761,-2.148c8.008,-8.981 16.595,-17.372 25.759,-25.175c9.672,-8.233 20.003,-15.416 30.989,-21.553c11.337,-6.332 23.349,-11.309 36.042,-14.916c13.031,-3.703 26.901,-5.607 41.623,-5.607c19.392,0 35.096,3.235 47.298,8.642c14.342,6.356 25.981,15.906 34.944,28.617c0.062,0.088 0.124,0.176 0.185,0.265c3.685,5.335 6.092,10.825 7.474,16.352c1.129,4.513 1.695,9.105 1.695,13.774c0,7.752 -1.379,14.988 -3.982,21.734c-2.685,6.961 -6.42,12.994 -11.075,18.178c-5.018,5.588 -10.909,9.973 -17.664,13.167c-7.27,3.436 -14.859,5.125 -22.752,5.125c-11.709,-0 -20.572,-3.008 -27.077,-6.955c-6.355,-3.855 -11.476,-8.661 -15.501,-14.268c-0.944,-1.314 -1.833,-2.668 -2.668,-4.062c-6.536,2.999 -12.657,6.281 -18.354,9.861c-5.484,3.446 -10.531,7.877 -15.224,13.199c-3.316,3.759 -6.434,8.065 -9.397,12.888c0.889,-0.013 1.786,-0.02 2.691,-0.02c4.553,-0 8.809,0.171 12.769,0.499c6.537,0.541 12.143,1.848 16.882,3.605c8.109,3.007 14.336,7.589 19.09,13.14c6.031,7.043 9.995,16.111 9.995,27.85c-0,3.659 -0.459,8.183 -1.749,13.52c-1.225,5.066 -3.126,9.997 -5.75,14.774c-2.864,5.211 -6.484,9.876 -10.874,13.982c-6.572,6.145 -14.584,10.194 -24.145,11.653c-5.393,0.888 -10.963,1.594 -16.71,2.114c-4.897,0.443 -10.253,0.95 -16.068,1.519c-5.365,0.526 -11.295,1.29 -17.79,2.283c-0.672,0.103 -1.353,0.21 -2.042,0.324c-0.198,1.019 -0.385,2.036 -0.561,3.052c-1.393,8.067 -2.603,16.104 -3.63,24.111c-1.123,8.765 -2.367,17.564 -3.732,26.396c-1.529,9.893 -3.725,19.825 -6.598,29.792c-1.405,4.958 -3.704,9.979 -7.16,14.936c-2.863,4.105 -6.281,7.832 -10.289,11.147c-4.239,3.507 -9.057,6.39 -14.506,8.561c-5.995,2.388 -12.316,3.619 -18.977,3.619c-8.565,-0 -16.15,-1.555 -22.831,-4.248c-7.484,-3.016 -13.748,-7.25 -18.93,-12.489c-5.062,-5.119 -8.985,-10.944 -11.798,-17.458c-2.941,-6.814 -4.478,-14.101 -4.478,-21.888c0,-4.494 0.545,-9.463 1.823,-14.882c0.764,-3.24 1.868,-7.12 3.345,-11.612l1.885,-6.755c0.784,-2.812 1.563,-6.004 2.347,-9.573c0.917,-4.169 1.871,-8.59 2.864,-13.264c0.788,-3.713 1.527,-7.344 2.216,-10.892c-2.371,-1.145 -4.655,-2.433 -6.855,-3.859c-11.91,-7.722 -19.51,-19.552 -19.51,-37.126c-0,-9.726 2.595,-18.948 8.038,-27.593c5.865,-9.315 13.658,-15.716 23.042,-19.597c0.158,-0.066 0.318,-0.13 0.477,-0.193c5.213,-2.063 10.878,-3.501 17.018,-4.196Zm-18.866,79.528c0.152,0.482 0.292,0.869 0.381,1.166c-0.429,-1.423 -0.764,-2.872 -1,-4.339c0.169,1.047 0.371,2.109 0.619,3.173Zm40.213,102.764c2.331,-0 4.545,-0.418 6.642,-1.254c2.098,-0.835 3.962,-1.927 5.594,-3.277c1.631,-1.35 3.029,-2.86 4.195,-4.531c1.165,-1.67 1.981,-3.341 2.447,-5.012c2.486,-8.612 4.389,-17.191 5.709,-25.738c1.321,-8.547 2.525,-17.062 3.613,-25.545c1.087,-8.483 2.369,-16.998 3.845,-25.545c1.476,-8.547 3.612,-17.191 6.409,-25.93c8.856,-2.057 16.858,-3.631 24.005,-4.724c7.147,-1.092 13.672,-1.928 19.576,-2.506c5.904,-0.579 11.342,-1.093 16.314,-1.542c4.972,-0.45 9.788,-1.061 14.449,-1.832c2.641,-0.386 4.855,-1.414 6.642,-3.085c1.787,-1.671 3.263,-3.566 4.428,-5.687c1.165,-2.121 2.02,-4.306 2.564,-6.555c0.543,-2.249 0.815,-4.145 0.815,-5.687c0,-2.571 -0.66,-4.627 -1.981,-6.17c-1.32,-1.542 -3.107,-2.731 -5.36,-3.566c-2.253,-0.836 -4.933,-1.382 -8.04,-1.639c-3.107,-0.257 -6.448,-0.386 -10.021,-0.386c-4.817,0 -9.361,0.225 -13.634,0.675c-4.273,0.45 -8.506,0.964 -12.701,1.542c-4.195,0.579 -8.429,1.093 -12.702,1.543c-4.272,0.45 -8.739,0.675 -13.4,0.675c-1.243,-0 -1.865,-0.129 -1.865,-0.386c0,-0.129 0.078,-0.386 0.233,-0.771c0.156,-0.386 0.311,-0.707 0.466,-0.964c4.972,-16.58 10.371,-30.526 16.198,-41.836c5.826,-11.311 12.196,-20.886 19.11,-28.726c6.914,-7.84 14.41,-14.299 22.49,-19.376c8.079,-5.077 16.857,-9.671 26.335,-13.784c3.573,-1.543 7.341,-2.635 11.303,-3.278c3.962,-0.642 7.496,-0.964 10.604,-0.964c3.107,0 5.515,0.707 7.224,2.121c1.709,1.414 3.069,3.149 4.079,5.205c1.01,2.057 1.942,4.338 2.796,6.844c0.855,2.507 2.02,4.788 3.496,6.845c1.476,2.056 3.379,3.791 5.71,5.205c2.33,1.414 5.593,2.121 9.788,2.121c2.952,-0 5.788,-0.643 8.507,-1.928c2.719,-1.286 5.088,-3.053 7.108,-5.302c2.019,-2.249 3.612,-4.884 4.777,-7.905c1.166,-3.02 1.748,-6.265 1.748,-9.736c0,-1.927 -0.233,-3.823 -0.699,-5.687c-0.466,-1.864 -1.321,-3.695 -2.564,-5.494c-5.437,-7.712 -12.507,-13.496 -21.207,-17.352c-8.701,-3.856 -19.965,-5.784 -33.793,-5.784c-11.497,0 -22.334,1.446 -32.511,4.338c-10.177,2.892 -19.81,6.877 -28.899,11.953c-9.089,5.077 -17.634,11.022 -25.636,17.834c-8.001,6.812 -15.498,14.138 -22.489,21.978c-4.35,5.784 -8.274,12.082 -11.769,18.894c-3.496,6.812 -6.681,13.784 -9.556,20.918c-2.874,7.133 -5.399,14.138 -7.574,21.014c-2.175,6.876 -4.195,13.27 -6.059,19.183c-0.622,2.056 -1.437,4.177 -2.447,6.362c-1.01,2.185 -2.758,3.406 -5.244,3.663c-4.35,0.643 -8.739,1.028 -13.167,1.157c-4.428,0.128 -8.429,0.899 -12.003,2.313c-3.107,1.285 -5.632,3.47 -7.574,6.555c-1.942,3.085 -2.913,6.362 -2.913,9.833c-0,4.241 1.437,7.293 4.311,9.157c2.875,1.864 6.06,3.213 9.556,4.049c3.495,0.835 6.758,1.606 9.788,2.313c3.03,0.707 4.7,2.025 5.011,3.953c0.155,0.514 0.233,1.606 0.233,3.277c-0,2.571 -0.233,5.784 -0.7,9.64c-0.466,3.855 -1.126,8.033 -1.981,12.531c-0.854,4.499 -1.786,9.126 -2.796,13.881c-1.01,4.756 -1.981,9.254 -2.913,13.496c-0.933,4.241 -1.865,8.033 -2.797,11.374l-2.097,7.519c-1.243,3.728 -2.176,6.909 -2.797,9.543c-0.622,2.635 -0.932,5.045 -0.932,7.23c-0,3.085 0.582,5.977 1.748,8.676c1.165,2.699 2.796,5.109 4.894,7.23c2.097,2.12 4.661,3.791 7.69,5.012c3.03,1.221 6.487,1.832 10.371,1.832Z"/><path d="M2179.49,250.417c2.331,-7.84 5.943,-16.162 10.837,-24.966c4.894,-8.804 11.303,-17.705 19.227,-26.702c7.924,-8.997 17.44,-17.801 28.549,-26.412c11.109,-8.612 23.966,-16.645 38.57,-24.1c2.331,-1.156 5.904,-2.409 10.721,-3.759c4.816,-1.35 9.788,-2.153 14.915,-2.41c6.059,-5.398 14.216,-8.097 24.471,-8.097c12.118,-0 22.334,2.538 30.646,7.615c8.312,5.077 15.187,11.985 20.625,20.725c1.709,2.828 3.302,5.591 4.778,8.29c1.476,2.699 2.719,5.559 3.729,8.58c1.01,3.02 1.825,6.265 2.447,9.736c0.621,3.47 0.932,7.39 0.932,11.76c0,10.154 -1.942,20.5 -5.826,31.04c-3.884,10.539 -9.4,20.821 -16.547,30.846c-7.147,10.025 -15.809,19.633 -25.985,28.823c-10.177,9.189 -21.48,17.447 -33.91,24.773c-8.39,5.013 -17.673,8.901 -27.85,11.664c-10.176,2.764 -21.557,4.145 -34.142,4.145c-11.963,0 -22.334,-1.317 -31.112,-3.952c-8.779,-2.635 -16.081,-6.394 -21.907,-11.278c-5.827,-4.884 -10.177,-10.732 -13.051,-17.544c-2.875,-6.812 -4.312,-14.395 -4.312,-22.75c0,-8.097 1.398,-16.773 4.195,-26.027Zm38.687,2.507c-0.932,2.956 -1.593,5.751 -1.981,8.386c-0.389,2.635 -0.583,5.173 -0.583,7.615c0,4.242 0.661,8.194 1.981,11.857c1.321,3.663 3.457,6.812 6.409,9.447c2.952,2.635 6.642,4.691 11.07,6.169c4.428,1.478 9.827,2.217 16.197,2.217c11.808,0 22.801,-2.474 32.977,-7.422c10.177,-4.948 19.227,-11.15 27.151,-18.605c7.924,-7.454 14.566,-15.455 19.926,-24.002c5.36,-8.547 9.128,-16.42 11.303,-23.617c1.399,-4.499 2.603,-8.74 3.613,-12.725c1.009,-3.984 1.514,-7.647 1.514,-10.989c0,-3.341 -0.738,-6.458 -2.214,-9.35c-1.476,-2.892 -3.379,-6.137 -5.709,-9.736c-1.399,-2.185 -2.797,-4.466 -4.195,-6.844c-1.399,-2.378 -2.642,-4.724 -3.729,-7.037c-1.243,1.799 -2.564,3.374 -3.962,4.723c-1.398,1.35 -3.496,2.571 -6.293,3.663c-2.796,1.093 -6.603,2.089 -11.419,2.989c-4.817,0.899 -11.109,1.67 -18.877,2.313c-5.128,1.414 -10.332,3.599 -15.615,6.555c-5.283,2.956 -10.449,6.426 -15.498,10.411c-5.05,3.984 -9.866,8.29 -14.449,12.917c-4.584,4.627 -8.701,9.35 -12.352,14.17c-3.651,4.82 -6.836,9.543 -9.555,14.17c-2.719,4.627 -4.623,8.869 -5.71,12.725Z" style="fill:#fff;fill-rule:nonzero;"/><path d="M2147.57,240.803c2.953,-9.899 7.443,-20.437 13.619,-31.548c5.957,-10.715 13.703,-21.587 23.347,-32.537c9.208,-10.455 20.233,-20.72 33.142,-30.726c12.633,-9.793 27.23,-18.967 43.838,-27.444c0.111,-0.057 0.223,-0.113 0.334,-0.168c3.611,-1.792 9.085,-3.908 16.547,-5.999c3.876,-1.086 7.819,-1.938 11.819,-2.549c10.014,-5.868 22.111,-9.194 36.561,-9.194c19.043,-0 34.959,4.523 48.021,12.501c12.687,7.749 23.252,18.223 31.553,31.563c0.075,0.122 0.15,0.244 0.225,0.367c1.966,3.253 3.798,6.433 5.496,9.539c2.41,4.407 4.447,9.072 6.096,14.003c1.497,4.478 2.724,9.285 3.645,14.43c0.932,5.205 1.454,11.081 1.454,17.636c0,13.918 -2.558,28.12 -7.883,42.567c-4.866,13.203 -11.727,26.11 -20.681,38.669c-8.476,11.89 -18.718,23.313 -30.787,34.212c-11.779,10.636 -24.848,20.21 -39.228,28.694c-10.895,6.5 -22.928,11.586 -36.137,15.173c-12.784,3.471 -27.068,5.31 -42.877,5.31c-15.657,-0 -29.206,-1.911 -40.695,-5.36c-13.567,-4.072 -24.734,-10.111 -33.738,-17.659c-9.996,-8.379 -17.417,-18.444 -22.349,-30.131c-4.515,-10.701 -6.933,-22.583 -6.933,-35.708c-0,-11.082 1.786,-22.976 5.611,-35.641Zm31.917,9.614c-2.797,9.254 -4.195,17.93 -4.195,26.027c0,8.355 1.437,15.938 4.312,22.75c2.874,6.812 7.224,12.66 13.051,17.544c5.826,4.884 13.128,8.643 21.907,11.278c8.778,2.635 19.149,3.952 31.112,3.952c12.585,0 23.966,-1.381 34.142,-4.145c10.177,-2.763 19.46,-6.651 27.85,-11.664c12.43,-7.326 23.733,-15.584 33.91,-24.773c10.176,-9.19 18.838,-18.798 25.985,-28.823c7.147,-10.025 12.663,-20.307 16.547,-30.846c3.884,-10.54 5.826,-20.886 5.826,-31.04c0,-4.37 -0.311,-8.29 -0.932,-11.76c-0.622,-3.471 -1.437,-6.716 -2.447,-9.736c-1.01,-3.021 -2.253,-5.881 -3.729,-8.58c-1.476,-2.699 -3.069,-5.462 -4.778,-8.29c-5.438,-8.74 -12.313,-15.648 -20.625,-20.725c-8.312,-5.077 -18.528,-7.615 -30.646,-7.615c-10.255,-0 -18.412,2.699 -24.471,8.097c-5.127,0.257 -10.099,1.06 -14.915,2.41c-4.817,1.35 -8.39,2.603 -10.721,3.759c-14.604,7.455 -27.461,15.488 -38.57,24.1c-11.109,8.611 -20.625,17.415 -28.549,26.412c-7.924,8.997 -14.333,17.898 -19.227,26.702c-4.894,8.804 -8.506,17.126 -10.837,24.966Zm38.687,2.507c1.087,-3.856 2.991,-8.098 5.71,-12.725c2.719,-4.627 5.904,-9.35 9.555,-14.17c3.651,-4.82 7.768,-9.543 12.352,-14.17c4.583,-4.627 9.399,-8.933 14.449,-12.917c5.049,-3.985 10.215,-7.455 15.498,-10.411c5.283,-2.956 10.487,-5.141 15.615,-6.555c7.768,-0.643 14.06,-1.414 18.877,-2.313c4.816,-0.9 8.623,-1.896 11.419,-2.989c2.797,-1.092 4.895,-2.313 6.293,-3.663c1.398,-1.349 2.719,-2.924 3.962,-4.723c1.087,2.313 2.33,4.659 3.729,7.037c1.398,2.378 2.796,4.659 4.195,6.844c2.33,3.599 4.233,6.844 5.709,9.736c1.476,2.892 2.214,6.009 2.214,9.35c0,3.342 -0.505,7.005 -1.514,10.989c-1.01,3.985 -2.214,8.226 -3.613,12.725c-2.175,7.197 -5.943,15.07 -11.303,23.617c-5.36,8.547 -12.002,16.548 -19.926,24.002c-7.924,7.455 -16.974,13.657 -27.151,18.605c-10.176,4.948 -21.169,7.422 -32.977,7.422c-6.37,0 -11.769,-0.739 -16.197,-2.217c-4.428,-1.478 -8.118,-3.534 -11.07,-6.169c-2.952,-2.635 -5.088,-5.784 -6.409,-9.447c-1.32,-3.663 -1.981,-7.615 -1.981,-11.857c0,-2.442 0.194,-4.98 0.583,-7.615c0.388,-2.635 1.049,-5.43 1.981,-8.386Zm31.16,12.346c0.615,0.013 1.26,0.012 1.933,0.012c6.583,0 12.728,-1.308 18.401,-4.066c7.073,-3.439 13.38,-7.725 18.887,-12.906c5.764,-5.423 10.627,-11.216 14.527,-17.434c3.546,-5.655 6.195,-10.788 7.634,-15.55c0.026,-0.084 0.051,-0.168 0.077,-0.252c0.189,-0.608 0.374,-1.211 0.555,-1.808c-3.889,0.584 -8.378,1.122 -13.469,1.599c-1.933,0.714 -3.881,1.646 -5.863,2.754c-3.795,2.124 -7.5,4.628 -11.128,7.491c-3.99,3.148 -7.794,6.551 -11.416,10.207c-3.508,3.542 -6.668,7.151 -9.463,10.84c-2.818,3.72 -5.288,7.359 -7.387,10.93c-1.058,1.801 -1.943,3.385 -2.367,4.886c-0.092,0.326 -0.189,0.652 -0.291,0.976c-0.254,0.806 -0.472,1.578 -0.63,2.321Z"/><path d="M2434.21,304.399c2.02,-8.997 4.35,-18.893 6.992,-29.69c2.641,-10.796 5.36,-21.721 8.157,-32.775c2.796,-11.053 5.515,-21.914 8.156,-32.581c2.642,-10.668 4.895,-20.436 6.759,-29.305c-0.155,-1.285 -0.233,-2.41 -0.233,-3.374l-0,-3.181c-0,-3.984 0.311,-7.968 0.932,-11.953c0.622,-3.984 1.476,-7.647 2.564,-10.989c1.709,-4.884 3.612,-8.194 5.71,-9.929c2.097,-1.735 5.476,-2.603 10.137,-2.603c4.506,0 8.118,0.74 10.837,2.218c2.719,1.478 4.856,3.438 6.409,5.88c1.554,2.442 2.564,5.237 3.03,8.386c0.466,3.149 0.699,6.394 0.699,9.736c0,1.8 -0.078,3.792 -0.233,5.977c-0.155,2.185 -0.233,3.92 -0.233,5.205c4.35,-3.727 8.973,-7.551 13.867,-11.471c4.894,-3.92 10.099,-7.455 15.614,-10.604c5.516,-3.148 11.342,-5.751 17.479,-7.808c6.137,-2.056 12.546,-3.084 19.227,-3.084c2.641,-0 5.244,0.193 7.807,0.578c2.564,0.386 5.166,0.9 7.808,1.542c3.107,0.643 6.331,1.511 9.671,2.603c3.341,1.093 6.565,2.603 9.672,4.531c5.127,3.213 9.439,7.229 12.935,12.049c3.495,4.82 5.243,9.736 5.243,14.749c0,1.928 -0.466,4.016 -1.398,6.266c-0.932,2.249 -2.214,4.305 -3.845,6.169c-1.632,1.864 -3.535,3.406 -5.71,4.627c-2.175,1.221 -4.584,1.831 -7.225,1.831c-2.641,0 -5.865,-0.546 -9.672,-1.638c-3.806,-1.093 -6.952,-2.539 -9.438,-4.338c-1.088,-0.771 -2.214,-1.864 -3.379,-3.278c-1.166,-1.413 -2.253,-2.827 -3.263,-4.241c-1.01,-1.414 -1.942,-2.731 -2.797,-3.952c-0.854,-1.221 -1.515,-2.025 -1.981,-2.41c-0.777,-0.129 -1.631,-0.225 -2.563,-0.289c-0.933,-0.065 -1.787,-0.097 -2.564,-0.097c-7.924,0 -15.459,1.671 -22.606,5.013c-7.147,3.342 -13.828,7.422 -20.043,12.242c-6.214,4.82 -11.924,9.961 -17.129,15.424c-5.205,5.462 -9.75,10.378 -13.634,14.748c-3.107,10.411 -6.564,21.497 -10.371,33.257c-3.806,11.76 -7.574,24.067 -11.303,36.92l0,4.819c0,3.856 -0.155,7.776 -0.466,11.761c-0.311,3.984 -1.243,7.519 -2.796,10.603c-1.709,1.928 -4.157,3.567 -7.342,4.916c-3.185,1.35 -6.875,2.025 -11.07,2.025c-6.525,-0 -11.419,-1.768 -14.682,-5.302c-3.263,-3.535 -4.894,-7.68 -4.894,-12.435c-0,-2.185 0.388,-4.434 1.165,-6.748Z" style="fill:#fff;fill-rule:nonzero;"/><path d="M2401.99,295.759l0.017,-0.062c1.988,-8.809 4.259,-18.445 6.819,-28.909c2.662,-10.88 5.402,-21.89 8.221,-33.03c2.782,-10.997 5.487,-21.803 8.115,-32.417c2.11,-8.519 3.962,-16.441 5.557,-23.752c-0.006,-0.312 -0.008,-0.617 -0.008,-0.915l-0,-3.181c-0,-5.696 0.442,-11.393 1.33,-17.09c0.915,-5.864 2.201,-11.249 3.802,-16.168c0.075,-0.232 0.153,-0.463 0.234,-0.694c4.373,-12.497 10.558,-20.163 15.926,-24.603c6.616,-5.473 16.681,-10.252 31.384,-10.252c11.194,0 20.003,2.593 26.758,6.265c5.065,2.754 9.398,6.124 13.05,10.055c5.475,-2.735 11.165,-5.095 17.071,-7.074c9.519,-3.189 19.455,-4.812 29.817,-4.812c4.319,0 8.574,0.319 12.765,0.95c3.351,0.504 6.752,1.165 10.14,1.975c4.1,0.869 8.349,2.013 12.743,3.45c5.829,1.906 11.462,4.524 16.884,7.888c0.042,0.027 0.085,0.053 0.127,0.08c8.812,5.522 16.209,12.44 22.217,20.723c8.09,11.155 11.594,22.719 11.594,34.32c-0,5.835 -1.117,12.22 -3.939,19.028c-2.32,5.598 -5.497,10.724 -9.557,15.362c-4.137,4.726 -8.959,8.643 -14.475,11.739c-7.097,3.984 -14.923,6.098 -23.541,6.098c-5.141,-0 -11.458,-0.806 -18.867,-2.932c-7.946,-2.281 -14.422,-5.52 -19.636,-9.266c-2.119,-1.513 -4.346,-3.389 -6.602,-5.713c-4.536,2.202 -8.794,4.844 -12.773,7.93c-4.869,3.776 -9.347,7.797 -13.425,12.077c-2.886,3.029 -5.558,5.879 -8.016,8.554c-2.588,8.492 -5.39,17.4 -8.407,26.722c-3.257,10.063 -6.485,20.537 -9.683,31.421l-0,0.053c-0,4.706 -0.188,9.49 -0.567,14.353c-0.676,8.662 -2.881,16.299 -6.259,23.006c-1.295,2.571 -2.917,4.963 -4.827,7.117c-4.552,5.135 -10.796,9.902 -19.28,13.496c-6.941,2.941 -14.934,4.666 -24.075,4.666c-17.693,0 -30.328,-6.442 -39.175,-16.025c-9.19,-9.956 -13.734,-21.651 -13.734,-35.045c-0,-4.994 0.713,-10.131 2.275,-15.388Zm32.223,8.64c-0.777,2.314 -1.165,4.563 -1.165,6.748c-0,4.755 1.631,8.9 4.894,12.435c3.263,3.534 8.157,5.302 14.682,5.302c4.195,-0 7.885,-0.675 11.07,-2.025c3.185,-1.349 5.633,-2.988 7.342,-4.916c1.553,-3.084 2.485,-6.619 2.796,-10.603c0.311,-3.985 0.466,-7.905 0.466,-11.761l0,-4.819c3.729,-12.853 7.497,-25.16 11.303,-36.92c3.807,-11.76 7.264,-22.846 10.371,-33.257c3.884,-4.37 8.429,-9.286 13.634,-14.748c5.205,-5.463 10.915,-10.604 17.129,-15.424c6.215,-4.82 12.896,-8.9 20.043,-12.242c7.147,-3.342 14.682,-5.013 22.606,-5.013c0.777,0 1.631,0.032 2.564,0.097c0.932,0.064 1.786,0.16 2.563,0.289c0.466,0.385 1.127,1.189 1.981,2.41c0.855,1.221 1.787,2.538 2.797,3.952c1.01,1.414 2.097,2.828 3.263,4.241c1.165,1.414 2.291,2.507 3.379,3.278c2.486,1.799 5.632,3.245 9.438,4.338c3.807,1.092 7.031,1.638 9.672,1.638c2.641,0 5.05,-0.61 7.225,-1.831c2.175,-1.221 4.078,-2.763 5.71,-4.627c1.631,-1.864 2.913,-3.92 3.845,-6.169c0.932,-2.25 1.398,-4.338 1.398,-6.266c0,-5.013 -1.748,-9.929 -5.243,-14.749c-3.496,-4.82 -7.808,-8.836 -12.935,-12.049c-3.107,-1.928 -6.331,-3.438 -9.672,-4.531c-3.34,-1.092 -6.564,-1.96 -9.671,-2.603c-2.642,-0.642 -5.244,-1.156 -7.808,-1.542c-2.563,-0.385 -5.166,-0.578 -7.807,-0.578c-6.681,-0 -13.09,1.028 -19.227,3.084c-6.137,2.057 -11.963,4.66 -17.479,7.808c-5.515,3.149 -10.72,6.684 -15.614,10.604c-4.894,3.92 -9.517,7.744 -13.867,11.471c0,-1.285 0.078,-3.02 0.233,-5.205c0.155,-2.185 0.233,-4.177 0.233,-5.977c0,-3.342 -0.233,-6.587 -0.699,-9.736c-0.466,-3.149 -1.476,-5.944 -3.03,-8.386c-1.553,-2.442 -3.69,-4.402 -6.409,-5.88c-2.719,-1.478 -6.331,-2.218 -10.837,-2.218c-4.661,0 -8.04,0.868 -10.137,2.603c-2.098,1.735 -4.001,5.045 -5.71,9.929c-1.088,3.342 -1.942,7.005 -2.564,10.989c-0.621,3.985 -0.932,7.969 -0.932,11.953l-0,3.181c-0,0.964 0.078,2.089 0.233,3.374c-1.864,8.869 -4.117,18.637 -6.759,29.305c-2.641,10.667 -5.36,21.528 -8.156,32.581c-2.797,11.054 -5.516,21.979 -8.157,32.775c-2.642,10.797 -4.972,20.693 -6.992,29.69Z"/><path d="M2899.15,264.298c0,-10.796 1.476,-22.01 4.428,-33.642c2.952,-11.632 6.06,-22.781 9.322,-33.449c-4.039,-0.129 -8.156,-0.643 -12.351,-1.543c-4.195,-0.899 -8.002,-2.12 -11.42,-3.663c-3.418,-1.542 -6.215,-3.438 -8.39,-5.687c-2.175,-2.249 -3.263,-4.852 -3.263,-7.808c0,-1.157 0.311,-2.635 0.933,-4.434c0.621,-1.8 1.514,-3.567 2.68,-5.302c1.165,-1.735 2.68,-3.213 4.544,-4.434c1.865,-1.221 3.962,-1.832 6.293,-1.832l31.229,0c2.952,0 4.972,-1.06 6.059,-3.181c1.088,-2.121 1.942,-4.209 2.564,-6.266c2.02,-7.454 3.923,-13.913 5.71,-19.375c1.786,-5.463 3.301,-10.09 4.544,-13.881c1.243,-3.792 2.214,-6.877 2.913,-9.254c0.699,-2.378 1.049,-4.274 1.049,-5.688c-0,-1.671 -0.078,-3.277 -0.233,-4.82c-0.155,-1.542 -0.233,-3.663 -0.233,-6.362l-0,-1.928c-0,-1.028 0.116,-2.377 0.349,-4.048c0.234,-1.671 0.972,-4.049 2.214,-7.134c0.933,-2.442 2.642,-4.755 5.128,-6.94c2.486,-2.185 6.137,-3.278 10.953,-3.278c4.195,0 7.769,0.707 10.721,2.121c2.952,1.414 5.36,3.278 7.224,5.591c1.865,2.314 3.263,4.948 4.195,7.905c0.932,2.956 1.398,5.912 1.398,8.868c0,3.213 -0.388,6.105 -1.165,8.676l-17.013,53.982c8.39,-1.157 15.848,-2.25 22.373,-3.278c6.526,-1.028 13.051,-2.056 19.577,-3.085c7.147,-1.156 13.323,-2.249 18.528,-3.277c5.205,-1.028 9.671,-1.896 13.4,-2.603c3.729,-0.707 6.875,-1.285 9.439,-1.735c2.563,-0.45 4.7,-0.675 6.409,-0.675c2.486,0 5.01,0.161 7.574,0.482c2.564,0.322 4.816,0.868 6.759,1.639c1.942,0.771 3.534,1.864 4.777,3.277c1.243,1.414 1.865,3.278 1.865,5.591c-0,3.085 -0.738,5.816 -2.214,8.194c-1.476,2.378 -3.38,4.434 -5.71,6.169c-2.331,1.736 -4.972,3.149 -7.924,4.242c-2.952,1.092 -5.904,1.896 -8.856,2.41c-2.486,0.385 -5.71,0.964 -9.672,1.735c-3.962,0.771 -8.312,1.607 -13.051,2.506c-4.738,0.9 -9.671,1.864 -14.799,2.892c-5.127,1.028 -10.099,2.057 -14.915,3.085c-7.147,1.542 -13.245,2.827 -18.295,3.856c-5.049,1.028 -9.361,1.799 -12.934,2.313c-3.574,0.514 -6.487,0.9 -8.74,1.157c-2.252,0.257 -4.078,0.385 -5.476,0.385c-2.952,7.327 -5.516,14.524 -7.691,21.593c-2.175,7.069 -4.001,13.656 -5.477,19.761c-1.476,6.105 -2.563,11.568 -3.263,16.388c-0.699,4.82 -1.048,8.579 -1.048,11.278c-0,3.47 0.388,6.78 1.165,9.929c0.777,3.149 2.097,5.88 3.962,8.194c1.864,2.313 4.389,4.145 7.574,5.494c3.185,1.35 7.186,2.024 12.002,2.024c8.235,0 16.314,-1.863 24.238,-5.591c7.924,-3.727 15.498,-8.45 22.723,-14.17c7.224,-5.719 14.06,-11.985 20.508,-18.797c6.448,-6.812 12.391,-13.303 17.829,-19.472c1.864,-2.314 4.272,-3.47 7.224,-3.47c0.933,-0 2.059,0.128 3.38,0.385c1.32,0.257 2.602,0.707 3.845,1.35c1.243,0.643 2.292,1.478 3.146,2.506c0.855,1.028 1.282,2.249 1.282,3.663c0,1.028 -0.078,1.8 -0.233,2.314c-2.486,7.968 -6.331,15.969 -11.536,24.002c-5.205,8.033 -10.526,16.098 -15.964,24.196c-1.865,2.827 -4.312,5.591 -7.341,8.29c-3.03,2.699 -6.332,5.302 -9.905,7.808c-3.574,2.506 -7.303,4.884 -11.187,7.133c-3.884,2.249 -7.535,4.274 -10.953,6.073c-5.904,3.085 -12.352,5.206 -19.344,6.362c-6.991,1.157 -13.75,1.735 -20.275,1.735c-10.099,0 -19.072,-1.51 -26.918,-4.53c-7.846,-3.021 -14.449,-7.133 -19.809,-12.339c-5.361,-5.205 -9.439,-11.278 -12.236,-18.219c-2.796,-6.94 -4.195,-14.395 -4.195,-22.364Z" style="fill:#fff;fill-rule:nonzero;"/><path d="M2941.59,121.146l-29.396,-29.397c-0,-2.196 0.171,-5.084 0.669,-8.653c0.48,-3.445 1.684,-8.421 4.214,-14.748c2.677,-6.859 7.149,-13.618 14.135,-19.758c7.595,-6.676 18.243,-11.574 32.959,-11.574c9.862,0 18.179,2.067 25.119,5.391c7.714,3.695 13.908,8.692 18.78,14.738c4.439,5.508 7.812,11.758 10.031,18.796c1.986,6.296 2.942,12.597 2.942,18.893c-0,6.791 -0.949,12.886 -2.591,18.319c-0.038,0.125 -0.076,0.251 -0.116,0.376l-0.872,2.769c2.165,-0.391 4.193,-0.774 6.084,-1.147c5.303,-1.048 9.854,-1.932 13.653,-2.652c3.905,-0.74 7.2,-1.345 9.886,-1.817c4.864,-0.853 8.927,-1.176 12.17,-1.176c3.846,-0 7.753,0.244 11.72,0.741c5.667,0.71 10.621,2.028 14.914,3.733c7.163,2.844 12.926,7.034 17.511,12.249c6.202,7.055 10.163,16.054 10.163,27.599c-0,9.729 -2.572,18.275 -7.227,25.774c-3.659,5.896 -8.346,11.024 -14.124,15.326c-2.643,1.968 -5.473,3.75 -8.499,5.329c3.702,2.4 6.919,5.285 9.684,8.612c5.843,7.03 8.979,15.302 8.979,24.968c0,5.338 -0.851,9.288 -1.658,11.957c-0.029,0.094 -0.058,0.189 -0.087,0.283c-3.331,10.679 -8.408,21.437 -15.383,32.202c-5.285,8.157 -10.688,16.347 -16.21,24.57c-3.306,4.984 -7.555,9.92 -12.896,14.679c-3.959,3.527 -8.268,6.934 -12.938,10.209c-4.352,3.053 -8.892,5.95 -13.623,8.689c-4.301,2.491 -8.345,4.731 -12.13,6.723c-0.03,0.016 -0.061,0.032 -0.091,0.048c-8.96,4.681 -18.729,7.949 -29.339,9.705c-8.867,1.467 -17.44,2.182 -25.716,2.182c-14.605,-0 -27.546,-2.388 -38.893,-6.756c-12.335,-4.748 -22.63,-11.351 -31.057,-19.534c-8.731,-8.478 -15.375,-18.369 -19.93,-29.674c-4.357,-10.811 -6.611,-22.409 -6.611,-34.822c-0,-13.425 1.781,-27.377 5.452,-41.842c0.158,-0.622 0.317,-1.243 0.475,-1.863c-5.966,-3.138 -10.907,-6.909 -14.966,-11.107c-8.6,-8.893 -12.635,-19.292 -12.635,-30.98c0,-3.973 0.624,-9.136 2.758,-15.316c1.522,-4.406 3.663,-8.756 6.515,-13.004c3.594,-5.351 8.205,-9.97 13.955,-13.736c7.286,-4.772 15.447,-7.279 24.555,-7.279l12.03,-0c0.629,-2.056 1.246,-4.006 1.85,-5.852c1.789,-5.471 3.306,-10.105 4.551,-13.902c0.873,-2.663 1.598,-4.935 2.167,-6.795c-0.198,-2.272 -0.329,-5.253 -0.329,-8.945l28.92,28.921c-1.049,3.204 -2.259,6.899 -3.627,11.084c-1.787,5.462 -3.69,11.921 -5.71,19.375c-0.622,2.057 -1.476,4.145 -2.564,6.266c-1.087,2.121 -3.107,3.181 -6.059,3.181l-31.229,0c-2.331,0 -4.428,0.611 -6.293,1.832c-1.864,1.221 -3.379,2.699 -4.544,4.434c-1.166,1.735 -2.059,3.502 -2.68,5.302c-0.622,1.799 -0.933,3.277 -0.933,4.434c0,2.956 1.088,5.559 3.263,7.808c2.175,2.249 4.972,4.145 8.39,5.687c3.418,1.543 7.225,2.764 11.42,3.663c4.195,0.9 8.312,1.414 12.351,1.543c-3.262,10.668 -6.37,21.817 -9.322,33.449c-2.952,11.632 -4.428,22.846 -4.428,33.642c0,7.969 1.399,15.424 4.195,22.364c2.797,6.941 6.875,13.014 12.236,18.219c5.36,5.206 11.963,9.318 19.809,12.339c7.846,3.02 16.819,4.53 26.918,4.53c6.525,0 13.284,-0.578 20.275,-1.735c6.992,-1.156 13.44,-3.277 19.344,-6.362c3.418,-1.799 7.069,-3.824 10.953,-6.073c3.884,-2.249 7.613,-4.627 11.187,-7.133c3.573,-2.506 6.875,-5.109 9.905,-7.808c3.029,-2.699 5.476,-5.463 7.341,-8.29c5.438,-8.098 10.759,-16.163 15.964,-24.196c5.205,-8.033 9.05,-16.034 11.536,-24.002c0.155,-0.514 0.233,-1.286 0.233,-2.314c0,-1.414 -0.427,-2.635 -1.282,-3.663c-0.854,-1.028 -1.903,-1.863 -3.146,-2.506c-1.243,-0.643 -2.525,-1.093 -3.845,-1.35c-1.321,-0.257 -2.447,-0.385 -3.38,-0.385c-2.952,-0 -5.36,1.156 -7.224,3.47c-5.438,6.169 -11.381,12.66 -17.829,19.472c-6.448,6.812 -13.284,13.078 -20.508,18.797c-7.225,5.72 -14.799,10.443 -22.723,14.17c-7.924,3.728 -16.003,5.591 -24.238,5.591c-4.816,0 -8.817,-0.674 -12.002,-2.024c-3.185,-1.349 -5.71,-3.181 -7.574,-5.494c-1.865,-2.314 -3.185,-5.045 -3.962,-8.194c-0.777,-3.149 -1.165,-6.459 -1.165,-9.929c-0,-2.699 0.349,-6.458 1.048,-11.278c0.7,-4.82 1.787,-10.283 3.263,-16.388c1.476,-6.105 3.302,-12.692 5.477,-19.761c2.175,-7.069 4.739,-14.266 7.691,-21.593c1.398,0 3.224,-0.128 5.476,-0.385c2.253,-0.257 5.166,-0.643 8.74,-1.157c3.573,-0.514 7.885,-1.285 12.934,-2.313c5.05,-1.029 11.148,-2.314 18.295,-3.856c4.816,-1.028 9.788,-2.057 14.915,-3.085c5.128,-1.028 10.061,-1.992 14.799,-2.892c4.739,-0.899 9.089,-1.735 13.051,-2.506c3.962,-0.771 7.186,-1.35 9.672,-1.735c2.952,-0.514 5.904,-1.318 8.856,-2.41c2.952,-1.093 5.593,-2.506 7.924,-4.242c2.33,-1.735 4.234,-3.791 5.71,-6.169c1.476,-2.378 2.214,-5.109 2.214,-8.194c-0,-2.313 -0.622,-4.177 -1.865,-5.591c-1.243,-1.413 -2.835,-2.506 -4.777,-3.277c-1.943,-0.771 -4.195,-1.317 -6.759,-1.639c-2.564,-0.321 -5.088,-0.482 -7.574,-0.482c-1.709,0 -3.846,0.225 -6.409,0.675c-2.564,0.45 -5.71,1.028 -9.439,1.735c-3.729,0.707 -8.195,1.575 -13.4,2.603c-5.205,1.028 -11.381,2.121 -18.528,3.277l-19.577,3.085c-6.525,1.028 -13.983,2.121 -22.373,3.278l17.013,-53.982c0.777,-2.571 1.165,-5.463 1.165,-8.676c0,-2.956 -0.466,-5.912 -1.398,-8.868c-0.932,-2.957 -2.33,-5.591 -4.195,-7.905c-1.864,-2.313 -4.272,-4.177 -7.224,-5.591c-2.952,-1.414 -6.526,-2.121 -10.721,-2.121c-4.816,0 -8.467,1.093 -10.953,3.278c-2.486,2.185 -4.195,4.498 -5.128,6.94c-1.242,3.085 -1.98,5.463 -2.214,7.134c-0.233,1.671 -0.349,3.02 -0.349,4.048l-0,1.928c-0,2.699 0.078,4.82 0.233,6.362c0.155,1.543 0.233,3.149 0.233,4.82c-0,1.414 -0.35,3.31 -1.049,5.688c-0.699,2.377 -1.67,5.462 -2.913,9.254c-0.143,0.437 -0.29,0.886 -0.441,1.345Zm-0.415,1.268l-28.981,-30.611l29.395,29.347c-0.135,0.413 -0.273,0.834 -0.414,1.264Zm76.098,93.728c-2.437,0.504 -4.836,1.008 -7.197,1.512c-7.275,1.57 -13.485,2.878 -18.629,3.926c-3.422,0.697 -6.549,1.287 -9.381,1.775c-0.085,0.272 -0.169,0.543 -0.252,0.814c-1.958,6.364 -3.607,12.294 -4.936,17.791c-0.852,3.525 -1.555,6.785 -2.094,9.783c0.045,-0.021 0.09,-0.042 0.136,-0.063c5.66,-2.663 11.059,-6.057 16.221,-10.143c5.985,-4.739 11.647,-9.932 16.99,-15.576c3.18,-3.36 6.232,-6.638 9.142,-9.819Z"/><path d="M3278.56,335.246c-9.633,-0 -16.236,-1.735 -19.81,-5.205c-3.573,-3.471 -5.36,-8.226 -5.36,-14.267c0,-3.213 0.389,-6.684 1.165,-10.411c0.777,-3.727 1.787,-7.583 3.03,-11.567c2.175,-6.812 4.622,-13.592 7.341,-20.34c2.719,-6.748 5.438,-13.56 8.157,-20.436c2.719,-6.876 5.36,-13.752 7.924,-20.629c2.564,-6.876 4.855,-13.784 6.875,-20.725c0.155,-0.643 0.233,-1.478 0.233,-2.506c0,-1.8 -0.544,-3.213 -1.631,-4.242c-1.088,-1.028 -2.719,-1.542 -4.894,-1.542c-3.419,0 -7.109,0.578 -11.07,1.735c-3.962,1.157 -7.264,2.442 -9.905,3.856c-10.41,5.784 -19.538,11.503 -27.384,17.159c-7.846,5.655 -15.032,11.567 -21.557,17.736c-6.526,6.17 -12.702,12.757 -18.528,19.762c-5.826,7.004 -11.925,14.684 -18.295,23.038c-5.438,8.355 -9.477,15.456 -12.119,21.304c-2.641,5.848 -5.088,10.571 -7.341,14.17c-2.253,3.599 -4.777,6.202 -7.574,7.808c-2.797,1.607 -6.992,2.41 -12.585,2.41c-6.215,0 -10.604,-1.478 -13.167,-4.434c-2.564,-2.956 -3.846,-6.812 -3.846,-11.568c0,-3.727 0.699,-7.904 2.098,-12.531l76.907,-254.871c0.466,-1.543 1.243,-3.214 2.331,-5.013c1.087,-1.799 2.563,-3.47 4.428,-5.013c1.864,-1.542 4.078,-2.827 6.642,-3.856c2.563,-1.028 5.477,-1.542 8.739,-1.542c2.486,0 5.128,0.097 7.924,0.289c2.797,0.193 5.322,0.579 7.574,1.157c2.253,0.578 4.118,1.51 5.594,2.796c1.476,1.285 2.214,2.956 2.214,5.012c-0,0.514 -0.156,1.575 -0.466,3.181c-0.311,1.607 -0.777,3.438 -1.399,5.495c-8.39,27.89 -17.362,56.938 -26.917,87.142c-9.556,30.204 -19.227,60.729 -29.015,91.576c9.477,-9.639 19.343,-18.476 29.597,-26.509c10.255,-8.033 20.781,-14.941 31.579,-20.725c10.798,-5.784 21.985,-10.314 33.56,-13.592c11.575,-3.277 23.577,-4.916 36.006,-4.916c7.924,0 14.061,2.089 18.412,6.266c4.35,4.177 6.525,9.479 6.525,15.905c0,2.956 -0.466,5.848 -1.398,8.676c-1.865,5.912 -3.962,11.728 -6.293,17.447c-2.33,5.72 -4.738,11.472 -7.224,17.255c-2.486,5.784 -4.972,11.664 -7.458,17.641c-2.486,5.976 -4.661,12.114 -6.526,18.412c-2.485,8.097 -4.195,15.776 -5.127,23.038c-0.932,7.262 -1.553,13.078 -1.864,17.448c-0.311,3.727 -1.01,7.326 -2.098,10.796c-1.087,3.47 -2.68,6.523 -4.777,9.158c-2.098,2.635 -4.739,4.755 -7.924,6.362c-3.185,1.607 -6.953,2.41 -11.303,2.41Z" style="fill:#fff;fill-rule:nonzero;"/><path d="M3246.59,145.736c7.819,-3.336 15.799,-6.156 23.937,-8.46c14.496,-4.105 29.523,-6.177 45.088,-6.177c18.057,-0 31.585,6.036 41.499,15.555c10.963,10.527 16.771,23.753 16.771,39.949c0,6.431 -0.995,12.726 -2.998,18.881c-2.123,6.715 -4.509,13.322 -7.157,19.821c-2.409,5.913 -4.899,11.859 -7.469,17.839c-2.435,5.665 -4.87,11.425 -7.305,17.28c-2.035,4.892 -3.814,9.916 -5.34,15.072c-0.032,0.107 -0.064,0.214 -0.097,0.32c-1.889,6.154 -3.222,11.982 -3.931,17.5c-0.832,6.48 -1.399,11.669 -1.677,15.568c-0.009,0.135 -0.02,0.27 -0.031,0.405c-0.518,6.214 -1.695,12.211 -3.508,17.996c-2.374,7.575 -5.928,14.198 -10.506,19.949c-5.042,6.334 -11.335,11.502 -18.991,15.363c-7.437,3.752 -16.157,5.982 -26.315,5.982c-21.375,0 -35.102,-6.925 -43.032,-14.625c-9.659,-9.381 -15.471,-21.852 -15.471,-38.18c-0,-5.31 0.582,-11.052 1.866,-17.212c0.987,-4.734 2.263,-9.633 3.841,-14.693c0.022,-0.071 0.045,-0.142 0.067,-0.213c1.116,-3.494 2.296,-6.981 3.54,-10.46c-3.672,3.748 -7.204,7.663 -10.598,11.743c-5.312,6.386 -10.859,13.363 -16.669,20.963c-3.973,6.161 -7.012,11.398 -8.993,15.784c-3.386,7.497 -6.578,13.523 -9.466,18.137c-5.601,8.948 -12.27,15.03 -19.224,19.025c-6.543,3.759 -16.102,6.839 -29.189,6.839c-18.575,0 -30.688,-7.093 -38.35,-15.928c-7.465,-8.608 -11.996,-19.56 -11.996,-33.407c-0,-6.586 1.052,-13.998 3.519,-22.161l76.911,-254.884c1.168,-3.863 2.988,-8.106 5.711,-12.612c2.901,-4.799 6.737,-9.342 11.709,-13.455c4.36,-3.607 9.485,-6.704 15.48,-9.109c6.214,-2.493 13.24,-3.938 21.148,-3.938c3.205,-0 6.611,0.119 10.217,0.368c5.013,0.346 9.531,1.088 13.57,2.125c7.789,1.999 14.092,5.5 19.195,9.943c8.915,7.764 13.657,17.729 13.657,30.151c0,1.531 -0.148,4.728 -1.073,9.511c-0.497,2.574 -1.221,5.513 -2.204,8.767c-8.163,27.137 -16.875,55.363 -26.136,84.678Zm31.97,189.51c4.35,-0 8.118,-0.803 11.303,-2.41c3.185,-1.607 5.826,-3.727 7.924,-6.362c2.097,-2.635 3.69,-5.688 4.777,-9.158c1.088,-3.47 1.787,-7.069 2.098,-10.796c0.311,-4.37 0.932,-10.186 1.864,-17.448c0.932,-7.262 2.642,-14.941 5.127,-23.038c1.865,-6.298 4.04,-12.436 6.526,-18.412c2.486,-5.977 4.972,-11.857 7.458,-17.641c2.486,-5.783 4.894,-11.535 7.224,-17.255c2.331,-5.719 4.428,-11.535 6.293,-17.447c0.932,-2.828 1.398,-5.72 1.398,-8.676c0,-6.426 -2.175,-11.728 -6.525,-15.905c-4.351,-4.177 -10.488,-6.266 -18.412,-6.266c-12.429,0 -24.431,1.639 -36.006,4.916c-11.575,3.278 -22.762,7.808 -33.56,13.592c-10.798,5.784 -21.324,12.692 -31.579,20.725c-10.254,8.033 -20.12,16.87 -29.597,26.509c9.788,-30.847 19.459,-61.372 29.015,-91.576c9.555,-30.204 18.527,-59.252 26.917,-87.142c0.622,-2.057 1.088,-3.888 1.399,-5.495c0.31,-1.606 0.466,-2.667 0.466,-3.181c-0,-2.056 -0.738,-3.727 -2.214,-5.012c-1.476,-1.286 -3.341,-2.218 -5.594,-2.796c-2.252,-0.578 -4.777,-0.964 -7.574,-1.157c-2.796,-0.192 -5.438,-0.289 -7.924,-0.289c-3.262,0 -6.176,0.514 -8.739,1.542c-2.564,1.029 -4.778,2.314 -6.642,3.856c-1.865,1.543 -3.341,3.214 -4.428,5.013c-1.088,1.799 -1.865,3.47 -2.331,5.013l-76.907,254.871c-1.399,4.627 -2.098,8.804 -2.098,12.531c0,4.756 1.282,8.612 3.846,11.568c2.563,2.956 6.952,4.434 13.167,4.434c5.593,0 9.788,-0.803 12.585,-2.41c2.797,-1.606 5.321,-4.209 7.574,-7.808c2.253,-3.599 4.7,-8.322 7.341,-14.17c2.642,-5.848 6.681,-12.949 12.119,-21.304c6.37,-8.354 12.469,-16.034 18.295,-23.038c5.826,-7.005 12.002,-13.592 18.528,-19.762c6.525,-6.169 13.711,-12.081 21.557,-17.736c7.846,-5.656 16.974,-11.375 27.384,-17.159c2.641,-1.414 5.943,-2.699 9.905,-3.856c3.961,-1.157 7.651,-1.735 11.07,-1.735c2.175,0 3.806,0.514 4.894,1.542c1.087,1.029 1.631,2.442 1.631,4.242c0,1.028 -0.078,1.863 -0.233,2.506c-2.02,6.941 -4.311,13.849 -6.875,20.725c-2.564,6.877 -5.205,13.753 -7.924,20.629c-2.719,6.876 -5.438,13.688 -8.157,20.436c-2.719,6.748 -5.166,13.528 -7.341,20.34c-1.243,3.984 -2.253,7.84 -3.03,11.567c-0.776,3.727 -1.165,7.198 -1.165,10.411c0,6.041 1.787,10.796 5.36,14.267c3.574,3.47 10.177,5.205 19.81,5.205Z"/><path d="M3376.91,249.839c0,-5.527 1.787,-10.218 5.361,-14.074c3.573,-3.856 8.312,-6.426 14.216,-7.712c1.709,-2.827 4.35,-6.651 7.924,-11.471c3.573,-4.819 8.001,-10.057 13.284,-15.712c5.282,-5.655 11.303,-11.343 18.061,-17.062c6.759,-5.72 14.217,-10.925 22.373,-15.617c8.157,-4.691 16.936,-8.515 26.335,-11.471c9.4,-2.956 19.383,-4.434 29.948,-4.434c9.011,0 16.857,0.9 23.538,2.699c6.681,1.8 12.197,4.306 16.547,7.519c4.35,3.213 7.613,7.037 9.788,11.471c2.175,4.434 3.263,9.222 3.263,14.363c-0,4.37 -0.699,8.547 -2.098,12.532c-2.175,7.197 -6.214,13.495 -12.118,18.893c-5.904,5.399 -12.857,10.122 -20.859,14.171c-8.001,4.048 -16.702,7.422 -26.102,10.121c-9.399,2.699 -18.799,4.949 -28.199,6.748c-9.4,1.799 -18.45,3.181 -27.151,4.145c-8.7,0.964 -16.236,1.703 -22.606,2.217c-1.398,2.314 -2.602,5.238 -3.612,8.772c-1.01,3.535 -1.515,6.973 -1.515,10.314c-0,7.455 3.573,13.239 10.72,17.352c7.147,4.113 17.013,6.169 29.598,6.169c7.302,0 14.294,-0.675 20.975,-2.024c6.681,-1.35 13.012,-3.085 18.994,-5.206c5.981,-2.12 11.614,-4.434 16.896,-6.94c5.283,-2.506 10.099,-4.981 14.449,-7.423c5.594,-3.084 10.915,-5.687 15.965,-7.808c5.049,-2.12 9.516,-3.181 13.4,-3.181c3.884,0 6.37,0.804 7.458,2.41c1.087,1.607 1.631,3.31 1.631,5.109c0,1.028 -0.039,2.024 -0.116,2.988c-0.078,0.964 -0.195,1.768 -0.35,2.41c-0.777,3.342 -2.33,6.684 -4.661,10.026c-2.331,3.341 -5.283,6.233 -8.856,8.675c-16.158,10.539 -32.744,18.058 -49.757,22.557c-17.013,4.498 -35.152,6.748 -54.418,6.748c-3.729,-0 -8.118,-0.193 -13.167,-0.579c-5.05,-0.385 -10.293,-1.157 -15.731,-2.313c-5.438,-1.157 -10.799,-2.828 -16.081,-5.013c-5.283,-2.185 -9.983,-5.077 -14.1,-8.676c-4.117,-3.598 -7.457,-8.033 -10.021,-13.302c-2.564,-5.27 -3.845,-11.632 -3.845,-19.087c-0,-6.04 1.009,-12.788 3.029,-20.243c-2.02,-0.257 -3.923,-1.124 -5.71,-2.602c-1.786,-1.479 -2.68,-3.631 -2.68,-6.459Zm145.892,-53.403c0.31,-0.643 0.466,-1.221 0.466,-1.736l-0,-1.735c-0,-3.47 -1.554,-6.073 -4.661,-7.808c-3.108,-1.735 -6.837,-2.603 -11.187,-2.603c-6.836,0 -13.556,1.479 -20.159,4.435c-6.603,2.956 -12.818,6.651 -18.644,11.085c-5.827,4.434 -10.993,9.19 -15.498,14.267c-4.506,5.077 -8.002,9.672 -10.488,13.785c11.187,-0.772 21.441,-2.025 30.763,-3.76c9.322,-1.735 17.441,-3.92 24.354,-6.555c6.914,-2.635 12.508,-5.591 16.78,-8.868c4.273,-3.278 7.031,-6.78 8.274,-10.507Z" style="fill:#fff;fill-rule:nonzero;"/><path d="M3582.72,237.259c8.064,3.365 13.286,8.715 16.63,13.655c5.051,7.462 7.362,15.438 7.362,23.795c-0,1.95 -0.077,3.838 -0.225,5.666c-0.239,2.972 -0.67,5.448 -1.147,7.448c-1.672,7.098 -4.799,14.28 -9.748,21.377c-4.589,6.58 -10.354,12.321 -17.39,17.129c-0.197,0.135 -0.396,0.268 -0.597,0.399c-19.294,12.584 -39.131,21.491 -59.446,26.863c-19.679,5.203 -40.654,7.855 -62.939,7.855c-4.447,-0 -9.683,-0.215 -15.705,-0.675c-6.461,-0.494 -13.172,-1.466 -20.129,-2.946c-7.4,-1.575 -14.697,-3.841 -21.886,-6.814c-8.735,-3.614 -16.487,-8.43 -23.296,-14.381c-7.389,-6.459 -13.458,-14.361 -18.059,-23.818c-4.533,-9.319 -7.204,-20.486 -7.204,-33.669c0,-2.439 0.104,-4.96 0.318,-7.563c-3.61,-5.977 -5.678,-13.148 -5.678,-21.741c0,-14.458 4.897,-26.645 14.245,-36.732c4.81,-5.19 10.488,-9.477 17.118,-12.689c0.843,-1.172 1.74,-2.402 2.694,-3.688c4.229,-5.705 9.449,-11.921 15.701,-18.614c6.113,-6.544 13.068,-13.135 20.888,-19.753c8.246,-6.978 17.336,-13.343 27.288,-19.067c10.209,-5.871 21.188,-10.674 32.953,-14.374c12.542,-3.944 25.852,-5.969 39.948,-5.969c12.337,-0 23.061,1.382 32.207,3.846c11.225,3.023 20.373,7.494 27.682,12.893c8.908,6.58 15.456,14.523 19.911,23.603c4.4,8.971 6.669,18.642 6.669,29.043c0,7.987 -1.272,15.626 -3.736,22.87c-2.988,9.558 -7.762,18.264 -14.429,26.051Zm-205.806,12.58c0,2.828 0.894,4.98 2.68,6.459c1.787,1.478 3.69,2.345 5.71,2.602c-2.02,7.455 -3.029,14.203 -3.029,20.243c-0,7.455 1.281,13.817 3.845,19.087c2.564,5.269 5.904,9.704 10.021,13.302c4.117,3.599 8.817,6.491 14.1,8.676c5.282,2.185 10.643,3.856 16.081,5.013c5.438,1.156 10.681,1.928 15.731,2.313c5.049,0.386 9.438,0.579 13.167,0.579c19.266,-0 37.405,-2.25 54.418,-6.748c17.013,-4.499 33.599,-12.018 49.757,-22.557c3.573,-2.442 6.525,-5.334 8.856,-8.675c2.331,-3.342 3.884,-6.684 4.661,-10.026c0.155,-0.642 0.272,-1.446 0.35,-2.41c0.077,-0.964 0.116,-1.96 0.116,-2.988c0,-1.799 -0.544,-3.502 -1.631,-5.109c-1.088,-1.606 -3.574,-2.41 -7.458,-2.41c-3.884,0 -8.351,1.061 -13.4,3.181c-5.05,2.121 -10.371,4.724 -15.965,7.808c-4.35,2.442 -9.166,4.917 -14.449,7.423c-5.282,2.506 -10.915,4.82 -16.896,6.94c-5.982,2.121 -12.313,3.856 -18.994,5.206c-6.681,1.349 -13.673,2.024 -20.975,2.024c-12.585,0 -22.451,-2.056 -29.598,-6.169c-7.147,-4.113 -10.72,-9.897 -10.72,-17.352c-0,-3.341 0.505,-6.779 1.515,-10.314c1.01,-3.534 2.214,-6.458 3.612,-8.772c6.37,-0.514 13.906,-1.253 22.606,-2.217c8.701,-0.964 17.751,-2.346 27.151,-4.145c9.4,-1.799 18.8,-4.049 28.199,-6.748c9.4,-2.699 18.101,-6.073 26.102,-10.121c8.002,-4.049 14.955,-8.772 20.859,-14.171c5.904,-5.398 9.943,-11.696 12.118,-18.893c1.399,-3.985 2.098,-8.162 2.098,-12.532c-0,-5.141 -1.088,-9.929 -3.263,-14.363c-2.175,-4.434 -5.438,-8.258 -9.788,-11.471c-4.35,-3.213 -9.866,-5.719 -16.547,-7.519c-6.681,-1.799 -14.527,-2.699 -23.538,-2.699c-10.565,0 -20.548,1.478 -29.948,4.434c-9.399,2.956 -18.178,6.78 -26.335,11.471c-8.156,4.692 -15.614,9.897 -22.373,15.617c-6.758,5.719 -12.779,11.407 -18.061,17.062c-5.283,5.655 -9.711,10.893 -13.284,15.712c-3.574,4.82 -6.215,8.644 -7.924,11.471c-5.904,1.286 -10.643,3.856 -14.216,7.712c-3.574,3.856 -5.361,8.547 -5.361,14.074Zm145.892,-53.403c-1.243,3.727 -4.001,7.229 -8.274,10.507c-4.272,3.277 -9.866,6.233 -16.78,8.868c-6.913,2.635 -15.032,4.82 -24.354,6.555c-9.322,1.735 -19.576,2.988 -30.763,3.76c2.486,-4.113 5.982,-8.708 10.488,-13.785c4.505,-5.077 9.671,-9.833 15.498,-14.267c5.826,-4.434 12.041,-8.129 18.644,-11.085c6.603,-2.956 13.323,-4.435 20.159,-4.435c4.35,0 8.079,0.868 11.187,2.603c3.107,1.735 4.661,4.338 4.661,7.808l-0,1.735c-0,0.515 -0.156,1.093 -0.466,1.736Z"/></g></svg>