<?xml version="1.0" encoding="UTF-8" standalone="no"?><!DOCTYPE svg PUBLIC "-//W3C//DTD SVG 1.1//EN" "http://www.w3.org/Graphics/SVG/1.1/DTD/svg11.dtd"><svg width="100%" height="100%" viewBox="0 0 4267 3200" version="1.1" xmlns="http://www.w3.org/2000/svg" xmlns:xlink="http://www.w3.org/1999/xlink" xml:space="preserve" xmlns:serif="http://www.serif.com/" style="fill-rule:evenodd;clip-rule:evenodd;stroke-linejoin:round;stroke-miterlimit:2;"><rect x="-432.396" y="-138.721" width="4820.46" height="3477.44" style="fill:#211e35;"/><path d="M260.927,94.118l39.506,132.895l127.841,-0l-103.426,82.133l39.506,132.895l-103.427,-82.133l-103.426,82.133l39.506,-132.895l-103.427,-82.133l127.842,-0l39.505,-132.895Z" style="fill:#420742;fill-opacity:0;"/><path d="M308.855,79.87c-0,0 28.877,97.143 28.877,97.143l90.542,-0c21.268,-0 40.208,13.453 47.211,33.534c7.004,20.081 0.538,42.395 -16.116,55.621l-76.965,61.12l29.877,100.506c6.218,20.919 -1.849,43.455 -19.931,55.674c-18.082,12.22 -42,11.3 -59.091,-2.272l-72.332,-57.44l-72.331,57.44c-17.091,13.572 -41.009,14.492 -59.091,2.272c-18.082,-12.219 -26.15,-34.755 -19.931,-55.674l29.877,-100.506l-76.965,-61.12c-16.655,-13.226 -23.12,-35.54 -16.117,-55.621c7.004,-20.081 25.944,-33.534 47.211,-33.534l90.543,-0l28.877,-97.143c6.305,-21.209 25.801,-35.752 47.927,-35.752c22.127,-0 41.623,14.543 47.928,35.752Zm-47.928,14.248l-39.505,132.895l-127.842,-0l103.427,82.133l-39.506,132.895l103.426,-82.133l103.427,82.133l-39.506,-132.895l103.426,-82.133l-127.841,-0l-39.506,-132.895Z" style="fill:#08083f;fill-opacity:0.5;"/><path d="M267.349,1043.48l39.505,132.895l127.842,0l-103.426,82.134l39.505,132.895l-103.426,-82.134l-103.426,82.134l39.505,-132.895l-103.426,-82.134l127.841,0l39.506,-132.895Z" style="fill:#420742;fill-opacity:0;"/><path d="M315.276,1029.23c-0,0 28.877,97.142 28.877,97.142l90.543,0c21.267,0 40.207,13.453 47.211,33.535c7.003,20.081 0.538,42.395 -16.117,55.621l-76.965,61.12l29.877,100.506c6.219,20.919 -1.849,43.454 -19.931,55.674c-18.082,12.22 -42,11.3 -59.091,-2.272l-72.331,-57.441l-72.332,57.441c-17.09,13.572 -41.009,14.492 -59.091,2.272c-18.082,-12.22 -26.149,-34.755 -19.931,-55.674l29.877,-100.506l-76.965,-61.12c-16.654,-13.226 -23.12,-35.54 -16.116,-55.621c7.003,-20.082 25.943,-33.535 47.211,-33.535l90.542,0l28.877,-97.142c6.305,-21.209 25.801,-35.753 47.928,-35.753c22.127,0 41.622,14.544 47.927,35.753Zm-47.927,14.247l-39.506,132.895l-127.841,0l103.426,82.134l-39.505,132.895l103.426,-82.134l103.426,82.134l-39.505,-132.895l103.426,-82.134l-127.842,0l-39.505,-132.895Z" style="fill:#08083f;fill-opacity:0.5;"/><path d="M267.349,2041.94l39.505,132.895l127.842,-0l-103.426,82.133l39.505,132.895l-103.426,-82.133l-103.426,82.133l39.505,-132.895l-103.426,-82.133l127.841,-0l39.506,-132.895Z" style="fill:#420742;fill-opacity:0;"/><path d="M315.276,2027.7c-0,-0 28.877,97.142 28.877,97.142l90.543,-0c21.267,-0 40.207,13.453 47.211,33.534c7.003,20.081 0.538,42.395 -16.117,55.621l-76.965,61.12l29.877,100.506c6.219,20.919 -1.849,43.455 -19.931,55.674c-18.082,12.22 -42,11.3 -59.091,-2.271l-72.331,-57.441l-72.332,57.441c-17.09,13.571 -41.009,14.491 -59.091,2.271c-18.082,-12.219 -26.149,-34.755 -19.931,-55.674l29.877,-100.506l-76.965,-61.12c-16.654,-13.226 -23.12,-35.54 -16.116,-55.621c7.003,-20.081 25.943,-33.534 47.211,-33.534l90.542,-0l28.877,-97.142c6.305,-21.21 25.801,-35.753 47.928,-35.753c22.127,-0 41.622,14.543 47.927,35.753Zm-47.927,14.247l-39.506,132.895l-127.841,-0l103.426,82.133l-39.505,132.895l103.426,-82.133l103.426,82.133l-39.505,-132.895l103.426,-82.133l-127.842,-0l-39.505,-132.895Z" style="fill:#08083f;fill-opacity:0.5;"/><path d="M267.349,2989.14l39.505,132.895l127.842,-0l-103.426,82.133l39.505,132.895l-103.426,-82.133l-103.426,82.133l39.505,-132.895l-103.426,-82.133l127.841,-0l39.506,-132.895Z" style="fill:#420742;fill-opacity:0;"/><path d="M315.276,2974.89c-0,0 28.877,97.143 28.877,97.143l90.543,-0c21.267,-0 40.207,13.453 47.211,33.534c7.003,20.081 0.538,42.395 -16.117,55.621l-76.965,61.12l29.877,100.506c6.219,20.919 -1.849,43.455 -19.931,55.674c-18.082,12.22 -42,11.3 -59.091,-2.272l-72.331,-57.44l-72.332,57.44c-17.09,13.572 -41.009,14.492 -59.091,2.272c-18.082,-12.219 -26.149,-34.755 -19.931,-55.674l29.877,-100.506l-76.965,-61.12c-16.654,-13.226 -23.12,-35.54 -16.116,-55.621c7.003,-20.081 25.943,-33.534 47.211,-33.534l90.542,-0l28.877,-97.143c6.305,-21.209 25.801,-35.752 47.928,-35.752c22.127,-0 41.622,14.543 47.927,35.752Zm-47.927,14.248l-39.506,132.895l-127.841,-0l103.426,82.133l-39.505,132.895l103.426,-82.133l103.426,82.133l-39.505,-132.895l103.426,-82.133l-127.842,-0l-39.505,-132.895Z" style="fill:#08083f;fill-opacity:0.5;"/><path d="M260.927,576.982l39.506,132.895l127.841,0l-103.426,82.134l39.506,132.895l-103.427,-82.134l-103.426,82.134l39.506,-132.895l-103.427,-82.134l127.842,0l39.505,-132.895Z" style="fill:#420742;fill-opacity:0;"/><path d="M308.855,562.735c-0,-0 28.877,97.142 28.877,97.142l90.542,0c21.268,0 40.208,13.453 47.211,33.534c7.004,20.082 0.538,42.395 -16.116,55.621l-76.965,61.121l29.877,100.505c6.218,20.919 -1.849,43.455 -19.931,55.675c-18.082,12.219 -42,11.3 -59.091,-2.272l-72.332,-57.441l-72.331,57.441c-17.091,13.572 -41.009,14.491 -59.091,2.272c-18.082,-12.22 -26.15,-34.756 -19.931,-55.675l29.877,-100.505l-76.965,-61.121c-16.655,-13.226 -23.12,-35.539 -16.117,-55.621c7.004,-20.081 25.944,-33.534 47.211,-33.534l90.543,0l28.877,-97.142c6.305,-21.21 25.801,-35.753 47.927,-35.753c22.127,0 41.623,14.543 47.928,35.753Zm-47.928,14.247l-39.505,132.895l-127.842,0l103.427,82.134l-39.506,132.895l103.426,-82.134l103.427,82.134l-39.506,-132.895l103.426,-82.134l-127.841,0l-39.506,-132.895Z" style="fill:#08083f;fill-opacity:0.5;"/><path d="M267.349,1526.34l39.505,132.895l127.842,-0l-103.426,82.133l39.505,132.895l-103.426,-82.133l-103.426,82.133l39.505,-132.895l-103.426,-82.133l127.841,-0l39.506,-132.895Z" style="fill:#420742;fill-opacity:0;"/><path d="M315.276,1512.1c-0,-0 28.877,97.142 28.877,97.142l90.543,-0c21.267,-0 40.207,13.453 47.211,33.534c7.003,20.081 0.538,42.395 -16.117,55.621l-76.965,61.12l29.877,100.506c6.219,20.919 -1.849,43.455 -19.931,55.674c-18.082,12.22 -42,11.3 -59.091,-2.271l-72.331,-57.441l-72.332,57.441c-17.09,13.571 -41.009,14.491 -59.091,2.271c-18.082,-12.219 -26.149,-34.755 -19.931,-55.674l29.877,-100.506l-76.965,-61.12c-16.654,-13.226 -23.12,-35.54 -16.116,-55.621c7.003,-20.081 25.943,-33.534 47.211,-33.534l90.542,-0l28.877,-97.142c6.305,-21.21 25.801,-35.753 47.928,-35.753c22.127,-0 41.622,14.543 47.927,35.753Zm-47.927,14.247l-39.506,132.895l-127.841,-0l103.426,82.133l-39.505,132.895l103.426,-82.133l103.426,82.133l-39.505,-132.895l103.426,-82.133l-127.842,-0l-39.505,-132.895Z" style="fill:#08083f;fill-opacity:0.5;"/><path d="M267.349,2524.81l39.505,132.895l127.842,0l-103.426,82.134l39.505,132.895l-103.426,-82.134l-103.426,82.134l39.505,-132.895l-103.426,-82.134l127.841,0l39.506,-132.895Z" style="fill:#420742;fill-opacity:0;"/><path d="M315.276,2510.56c-0,0 28.877,97.142 28.877,97.142l90.543,0c21.267,0 40.207,13.453 47.211,33.535c7.003,20.081 0.538,42.395 -16.117,55.62l-76.965,61.121l29.877,100.505c6.219,20.92 -1.849,43.455 -19.931,55.675c-18.082,12.219 -42,11.3 -59.091,-2.272l-72.331,-57.441l-72.332,57.441c-17.09,13.572 -41.009,14.491 -59.091,2.272c-18.082,-12.22 -26.149,-34.755 -19.931,-55.675l29.877,-100.505l-76.965,-61.121c-16.654,-13.225 -23.12,-35.539 -16.116,-55.62c7.003,-20.082 25.943,-33.535 47.211,-33.535l90.542,0l28.877,-97.142c6.305,-21.21 25.801,-35.753 47.928,-35.753c22.127,0 41.622,14.543 47.927,35.753Zm-47.927,14.247l-39.506,132.895l-127.841,0l103.426,82.134l-39.505,132.895l103.426,-82.134l103.426,82.134l-39.505,-132.895l103.426,-82.134l-127.842,0l-39.505,-132.895Z" style="fill:#08083f;fill-opacity:0.5;"/><path d="M817.449,94.118l39.505,132.895l127.842,-0l-103.426,82.133l39.505,132.895l-103.426,-82.133l-103.426,82.133l39.505,-132.895l-103.426,-82.133l127.842,-0l39.505,-132.895Z" style="fill:#420742;fill-opacity:0;"/><path d="M865.376,79.87c0,0 28.877,97.143 28.877,97.143l90.543,-0c21.268,-0 40.208,13.453 47.211,33.534c7.004,20.081 0.538,42.395 -16.116,55.621l-76.966,61.12l29.877,100.506c6.219,20.919 -1.848,43.455 -19.93,55.674c-18.082,12.22 -42.001,11.3 -59.091,-2.272l-72.332,-57.44l-72.332,57.44c-17.09,13.572 -41.008,14.492 -59.09,2.272c-18.082,-12.219 -26.15,-34.755 -19.931,-55.674l29.877,-100.506l-76.965,-61.12c-16.655,-13.226 -23.121,-35.54 -16.117,-55.621c7.004,-20.081 25.944,-33.534 47.211,-33.534l90.543,-0l28.877,-97.143c6.305,-21.209 25.8,-35.752 47.927,-35.752c22.127,-0 41.622,14.543 47.927,35.752Zm-47.927,14.248l-39.505,132.895l-127.842,-0l103.426,82.133l-39.505,132.895l103.426,-82.133l103.426,82.133l-39.505,-132.895l103.426,-82.133l-127.842,-0l-39.505,-132.895Z" style="fill:#08083f;fill-opacity:0.5;"/><path d="M823.87,1043.48l39.506,132.895l127.841,0l-103.426,82.134l39.506,132.895l-103.427,-82.134l-103.426,82.134l39.506,-132.895l-103.427,-82.134l127.842,0l39.505,-132.895Z" style="fill:#420742;fill-opacity:0;"/><path d="M871.798,1029.23c-0,0 28.877,97.142 28.877,97.142l90.542,0c21.268,0 40.208,13.453 47.212,33.535c7.003,20.081 0.537,42.395 -16.117,55.621l-76.965,61.12l29.877,100.506c6.218,20.919 -1.849,43.454 -19.931,55.674c-18.082,12.22 -42,11.3 -59.091,-2.272l-72.332,-57.441l-72.331,57.441c-17.091,13.572 -41.009,14.492 -59.091,2.272c-18.082,-12.22 -26.149,-34.755 -19.931,-55.674l29.877,-100.506l-76.965,-61.12c-16.655,-13.226 -23.12,-35.54 -16.117,-55.621c7.004,-20.082 25.944,-33.535 47.211,-33.535l90.543,0l28.877,-97.142c6.305,-21.209 25.801,-35.753 47.927,-35.753c22.127,0 41.623,14.544 47.928,35.753Zm-47.928,14.247l-39.505,132.895l-127.842,0l103.427,82.134l-39.506,132.895l103.426,-82.134l103.427,82.134l-39.506,-132.895l103.426,-82.134l-127.841,0l-39.506,-132.895Z" style="fill:#08083f;fill-opacity:0.5;"/><path d="M823.87,2041.94l39.506,132.895l127.841,-0l-103.426,82.133l39.506,132.895l-103.427,-82.133l-103.426,82.133l39.506,-132.895l-103.427,-82.133l127.842,-0l39.505,-132.895Z" style="fill:#420742;fill-opacity:0;"/><path d="M871.798,2027.7c-0,-0 28.877,97.142 28.877,97.142l90.542,-0c21.268,-0 40.208,13.453 47.212,33.534c7.003,20.081 0.537,42.395 -16.117,55.621l-76.965,61.12l29.877,100.506c6.218,20.919 -1.849,43.455 -19.931,55.674c-18.082,12.22 -42,11.3 -59.091,-2.271l-72.332,-57.441l-72.331,57.441c-17.091,13.571 -41.009,14.491 -59.091,2.271c-18.082,-12.219 -26.149,-34.755 -19.931,-55.674l29.877,-100.506l-76.965,-61.12c-16.655,-13.226 -23.12,-35.54 -16.117,-55.621c7.004,-20.081 25.944,-33.534 47.211,-33.534l90.543,-0l28.877,-97.142c6.305,-21.21 25.801,-35.753 47.927,-35.753c22.127,-0 41.623,14.543 47.928,35.753Zm-47.928,14.247l-39.505,132.895l-127.842,-0l103.427,82.133l-39.506,132.895l103.426,-82.133l103.427,82.133l-39.506,-132.895l103.426,-82.133l-127.841,-0l-39.506,-132.895Z" style="fill:#08083f;fill-opacity:0.5;"/><path d="M823.87,2989.14l39.506,132.895l127.841,-0l-103.426,82.133l39.506,132.895l-103.427,-82.133l-103.426,82.133l39.506,-132.895l-103.427,-82.133l127.842,-0l39.505,-132.895Z" style="fill:#420742;fill-opacity:0;"/><path d="M871.798,2974.89c-0,0 28.877,97.143 28.877,97.143l90.542,-0c21.268,-0 40.208,13.453 47.212,33.534c7.003,20.081 0.537,42.395 -16.117,55.621l-76.965,61.12l29.877,100.506c6.218,20.919 -1.849,43.455 -19.931,55.674c-18.082,12.22 -42,11.3 -59.091,-2.272l-72.332,-57.44l-72.331,57.44c-17.091,13.572 -41.009,14.492 -59.091,2.272c-18.082,-12.219 -26.149,-34.755 -19.931,-55.674l29.877,-100.506l-76.965,-61.12c-16.655,-13.226 -23.12,-35.54 -16.117,-55.621c7.004,-20.081 25.944,-33.534 47.211,-33.534l90.543,-0l28.877,-97.143c6.305,-21.209 25.801,-35.752 47.927,-35.752c22.127,-0 41.623,14.543 47.928,35.752Zm-47.928,14.248l-39.505,132.895l-127.842,-0l103.427,82.133l-39.506,132.895l103.426,-82.133l103.427,82.133l-39.506,-132.895l103.426,-82.133l-127.841,-0l-39.506,-132.895Z" style="fill:#08083f;fill-opacity:0.5;"/><path d="M761.778,576.982l39.506,132.895l127.841,0l-103.426,82.134l39.505,132.895l-103.426,-82.134l-103.426,82.134l39.505,-132.895l-103.426,-82.134l127.842,0l39.505,-132.895Z" style="fill:#420742;fill-opacity:0;"/><path d="M809.705,562.735c0,-0 28.878,97.142 28.878,97.142l90.542,0c21.268,0 40.208,13.453 47.211,33.534c7.004,20.082 0.538,42.395 -16.116,55.621l-76.965,61.121l29.877,100.505c6.218,20.919 -1.849,43.455 -19.931,55.675c-18.082,12.219 -42.001,11.3 -59.091,-2.272l-72.332,-57.441l-72.332,57.441c-17.09,13.572 -41.008,14.491 -59.09,2.272c-18.082,-12.22 -26.15,-34.756 -19.931,-55.675l29.877,-100.505l-76.965,-61.121c-16.655,-13.226 -23.12,-35.539 -16.117,-55.621c7.004,-20.081 25.944,-33.534 47.211,-33.534l90.543,0l28.877,-97.142c6.305,-21.21 25.8,-35.753 47.927,-35.753c22.127,0 41.623,14.543 47.927,35.753Zm-47.927,14.247l-39.505,132.895l-127.842,0l103.426,82.134l-39.505,132.895l103.426,-82.134l103.426,82.134l-39.505,-132.895l103.426,-82.134l-127.841,0l-39.506,-132.895Z" style="fill:#08083f;fill-opacity:0.5;"/><path d="M768.2,1526.34l39.505,132.895l127.842,-0l-103.427,82.133l39.506,132.895l-103.426,-82.133l-103.427,82.133l39.506,-132.895l-103.426,-82.133l127.841,-0l39.506,-132.895Z" style="fill:#420742;fill-opacity:0;"/><path d="M816.127,1512.1c-0,-0 28.877,97.142 28.877,97.142l90.543,-0c21.267,-0 40.207,13.453 47.211,33.534c7.003,20.081 0.538,42.395 -16.117,55.621l-76.965,61.12l29.877,100.506c6.218,20.919 -1.849,43.455 -19.931,55.674c-18.082,12.22 -42,11.3 -59.091,-2.271l-72.331,-57.441l-72.332,57.441c-17.091,13.571 -41.009,14.491 -59.091,2.271c-18.082,-12.219 -26.149,-34.755 -19.931,-55.674l29.877,-100.506l-76.965,-61.12c-16.654,-13.226 -23.12,-35.54 -16.117,-55.621c7.004,-20.081 25.944,-33.534 47.212,-33.534l90.542,-0l28.877,-97.142c6.305,-21.21 25.801,-35.753 47.928,-35.753c22.126,-0 41.622,14.543 47.927,35.753Zm-47.927,14.247l-39.506,132.895l-127.841,-0l103.426,82.133l-39.506,132.895l103.427,-82.133l103.426,82.133l-39.506,-132.895l103.427,-82.133l-127.842,-0l-39.505,-132.895Z" style="fill:#08083f;fill-opacity:0.5;"/><path d="M768.2,2524.81l39.505,132.895l127.842,0l-103.427,82.134l39.506,132.895l-103.426,-82.134l-103.427,82.134l39.506,-132.895l-103.426,-82.134l127.841,0l39.506,-132.895Z" style="fill:#420742;fill-opacity:0;"/><path d="M816.127,2510.56c-0,0 28.877,97.142 28.877,97.142l90.543,0c21.267,0 40.207,13.453 47.211,33.535c7.003,20.081 0.538,42.395 -16.117,55.62l-76.965,61.121l29.877,100.505c6.218,20.92 -1.849,43.455 -19.931,55.675c-18.082,12.219 -42,11.3 -59.091,-2.272l-72.331,-57.441l-72.332,57.441c-17.091,13.572 -41.009,14.491 -59.091,2.272c-18.082,-12.22 -26.149,-34.755 -19.931,-55.675l29.877,-100.505l-76.965,-61.121c-16.654,-13.225 -23.12,-35.539 -16.117,-55.62c7.004,-20.082 25.944,-33.535 47.212,-33.535l90.542,0l28.877,-97.142c6.305,-21.21 25.801,-35.753 47.928,-35.753c22.126,0 41.622,14.543 47.927,35.753Zm-47.927,14.247l-39.506,132.895l-127.841,0l103.426,82.134l-39.506,132.895l103.427,-82.134l103.426,82.134l-39.506,-132.895l103.427,-82.134l-127.842,0l-39.505,-132.895Z" style="fill:#08083f;fill-opacity:0.5;"/><path d="M1365.79,94.118l39.505,132.895l127.842,-0l-103.426,82.133l39.505,132.895l-103.426,-82.133l-103.426,82.133l39.505,-132.895l-103.426,-82.133l127.841,-0l39.506,-132.895Z" style="fill:#420742;fill-opacity:0;"/><path d="M1413.71,79.87c-0,0 28.877,97.143 28.877,97.143l90.543,-0c21.267,-0 40.207,13.453 47.211,33.534c7.003,20.081 0.538,42.395 -16.117,55.621l-76.965,61.12l29.877,100.506c6.219,20.919 -1.849,43.455 -19.931,55.674c-18.082,12.22 -42,11.3 -59.09,-2.272l-72.332,-57.44l-72.332,57.44c-17.09,13.572 -41.009,14.492 -59.091,2.272c-18.082,-12.219 -26.149,-34.755 -19.931,-55.674l29.877,-100.506l-76.965,-61.12c-16.654,-13.226 -23.12,-35.54 -16.116,-55.621c7.003,-20.081 25.943,-33.534 47.211,-33.534l90.542,-0l28.878,-97.143c6.304,-21.209 25.8,-35.752 47.927,-35.752c22.127,-0 41.622,14.543 47.927,35.752Zm-47.927,14.248l-39.506,132.895l-127.841,-0l103.426,82.133l-39.505,132.895l103.426,-82.133l103.426,82.133l-39.505,-132.895l103.426,-82.133l-127.842,-0l-39.505,-132.895Z" style="fill:#08083f;fill-opacity:0.5;"/><path d="M1372.21,1043.48l39.505,132.895l127.842,0l-103.426,82.134l39.505,132.895l-103.426,-82.134l-103.426,82.134l39.505,-132.895l-103.426,-82.134l127.842,0l39.505,-132.895Z" style="fill:#420742;fill-opacity:0;"/><path d="M1420.13,1029.23c0,0 28.877,97.142 28.877,97.142l90.543,0c21.267,0 40.207,13.453 47.211,33.535c7.004,20.081 0.538,42.395 -16.117,55.621l-76.965,61.12l29.877,100.506c6.219,20.919 -1.849,43.454 -19.931,55.674c-18.081,12.22 -42,11.3 -59.09,-2.272l-72.332,-57.441l-72.332,57.441c-17.09,13.572 -41.009,14.492 -59.09,2.272c-18.082,-12.22 -26.15,-34.755 -19.931,-55.674l29.877,-100.506l-76.965,-61.12c-16.655,-13.226 -23.121,-35.54 -16.117,-55.621c7.004,-20.082 25.944,-33.535 47.211,-33.535l90.543,0l28.877,-97.142c6.305,-21.209 25.8,-35.753 47.927,-35.753c22.127,0 41.622,14.544 47.927,35.753Zm-47.927,14.247l-39.505,132.895l-127.842,0l103.426,82.134l-39.505,132.895l103.426,-82.134l103.426,82.134l-39.505,-132.895l103.426,-82.134l-127.842,0l-39.505,-132.895Z" style="fill:#08083f;fill-opacity:0.5;"/><path d="M1372.21,2041.94l39.505,132.895l127.842,-0l-103.426,82.133l39.505,132.895l-103.426,-82.133l-103.426,82.133l39.505,-132.895l-103.426,-82.133l127.842,-0l39.505,-132.895Z" style="fill:#420742;fill-opacity:0;"/><path d="M1420.13,2027.7c0,-0 28.877,97.142 28.877,97.142l90.543,-0c21.267,-0 40.207,13.453 47.211,33.534c7.004,20.081 0.538,42.395 -16.117,55.621l-76.965,61.12l29.877,100.506c6.219,20.919 -1.849,43.455 -19.931,55.674c-18.081,12.22 -42,11.3 -59.09,-2.271l-72.332,-57.441l-72.332,57.441c-17.09,13.571 -41.009,14.491 -59.09,2.271c-18.082,-12.219 -26.15,-34.755 -19.931,-55.674l29.877,-100.506l-76.965,-61.12c-16.655,-13.226 -23.121,-35.54 -16.117,-55.621c7.004,-20.081 25.944,-33.534 47.211,-33.534l90.543,-0l28.877,-97.142c6.305,-21.21 25.8,-35.753 47.927,-35.753c22.127,-0 41.622,14.543 47.927,35.753Zm-47.927,14.247l-39.505,132.895l-127.842,-0l103.426,82.133l-39.505,132.895l103.426,-82.133l103.426,82.133l-39.505,-132.895l103.426,-82.133l-127.842,-0l-39.505,-132.895Z" style="fill:#08083f;fill-opacity:0.5;"/><path d="M1372.21,2989.14l39.505,132.895l127.842,-0l-103.426,82.133l39.505,132.895l-103.426,-82.133l-103.426,82.133l39.505,-132.895l-103.426,-82.133l127.842,-0l39.505,-132.895Z" style="fill:#420742;fill-opacity:0;"/><path d="M1420.13,2974.89c0,0 28.877,97.143 28.877,97.143l90.543,-0c21.267,-0 40.207,13.453 47.211,33.534c7.004,20.081 0.538,42.395 -16.117,55.621l-76.965,61.12l29.877,100.506c6.219,20.919 -1.849,43.455 -19.931,55.674c-18.081,12.22 -42,11.3 -59.09,-2.272l-72.332,-57.44l-72.332,57.44c-17.09,13.572 -41.009,14.492 -59.09,2.272c-18.082,-12.219 -26.15,-34.755 -19.931,-55.674l29.877,-100.506l-76.965,-61.12c-16.655,-13.226 -23.121,-35.54 -16.117,-55.621c7.004,-20.081 25.944,-33.534 47.211,-33.534l90.543,-0l28.877,-97.143c6.305,-21.209 25.8,-35.752 47.927,-35.752c22.127,-0 41.622,14.543 47.927,35.752Zm-47.927,14.248l-39.505,132.895l-127.842,-0l103.426,82.133l-39.505,132.895l103.426,-82.133l103.426,82.133l-39.505,-132.895l103.426,-82.133l-127.842,-0l-39.505,-132.895Z" style="fill:#08083f;fill-opacity:0.5;"/><path d="M1310.12,576.982l39.505,132.895l127.842,0l-103.426,82.134l39.505,132.895l-103.426,-82.134l-103.426,82.134l39.505,-132.895l-103.426,-82.134l127.842,0l39.505,-132.895Z" style="fill:#420742;fill-opacity:0;"/><path d="M1358.04,562.735c0,-0 28.877,97.142 28.877,97.142l90.543,0c21.267,0 40.207,13.453 47.211,33.534c7.004,20.082 0.538,42.395 -16.117,55.621l-76.965,61.121l29.877,100.505c6.219,20.919 -1.849,43.455 -19.931,55.675c-18.082,12.219 -42,11.3 -59.09,-2.272l-72.332,-57.441l-72.332,57.441c-17.09,13.572 -41.009,14.491 -59.091,2.272c-18.082,-12.22 -26.149,-34.756 -19.931,-55.675l29.878,-100.505l-76.966,-61.121c-16.654,-13.226 -23.12,-35.539 -16.116,-55.621c7.003,-20.081 25.943,-33.534 47.211,-33.534l90.542,0l28.878,-97.142c6.305,-21.21 25.8,-35.753 47.927,-35.753c22.127,0 41.622,14.543 47.927,35.753Zm-47.927,14.247l-39.505,132.895l-127.842,0l103.426,82.134l-39.505,132.895l103.426,-82.134l103.426,82.134l-39.505,-132.895l103.426,-82.134l-127.842,0l-39.505,-132.895Z" style="fill:#08083f;fill-opacity:0.5;"/><path d="M1316.54,1526.34l39.505,132.895l127.842,-0l-103.426,82.133l39.505,132.895l-103.426,-82.133l-103.426,82.133l39.505,-132.895l-103.426,-82.133l127.842,-0l39.505,-132.895Z" style="fill:#420742;fill-opacity:0;"/><path d="M1364.46,1512.1c0,-0 28.878,97.142 28.877,97.142l90.543,-0c21.268,-0 40.208,13.453 47.211,33.534c7.004,20.081 0.538,42.395 -16.116,55.621l-76.966,61.12l29.878,100.506c6.218,20.919 -1.849,43.455 -19.931,55.674c-18.082,12.22 -42.001,11.3 -59.091,-2.271l-72.332,-57.441l-72.332,57.441c-17.09,13.571 -41.008,14.491 -59.09,2.271c-18.082,-12.219 -26.15,-34.755 -19.931,-55.674l29.877,-100.506l-76.965,-61.12c-16.655,-13.226 -23.121,-35.54 -16.117,-55.621c7.004,-20.081 25.944,-33.534 47.211,-33.534l90.543,-0l28.877,-97.142c6.305,-21.21 25.8,-35.753 47.927,-35.753c22.127,-0 41.622,14.543 47.927,35.753Zm-47.927,14.247l-39.505,132.895l-127.842,-0l103.426,82.133l-39.505,132.895l103.426,-82.133l103.426,82.133l-39.505,-132.895l103.426,-82.133l-127.842,-0l-39.505,-132.895Z" style="fill:#08083f;fill-opacity:0.5;"/><path d="M1316.54,2524.81l39.505,132.895l127.842,0l-103.426,82.134l39.505,132.895l-103.426,-82.134l-103.426,82.134l39.505,-132.895l-103.426,-82.134l127.842,0l39.505,-132.895Z" style="fill:#420742;fill-opacity:0;"/><path d="M1364.46,2510.56c0,0 28.878,97.142 28.877,97.142l90.543,0c21.268,0 40.208,13.453 47.211,33.535c7.004,20.081 0.538,42.395 -16.116,55.62l-76.966,61.121l29.878,100.505c6.218,20.92 -1.849,43.455 -19.931,55.675c-18.082,12.219 -42.001,11.3 -59.091,-2.272l-72.332,-57.441l-72.332,57.441c-17.09,13.572 -41.008,14.491 -59.09,2.272c-18.082,-12.22 -26.15,-34.755 -19.931,-55.675l29.877,-100.505l-76.965,-61.121c-16.655,-13.225 -23.121,-35.539 -16.117,-55.62c7.004,-20.082 25.944,-33.535 47.211,-33.535l90.543,0l28.877,-97.142c6.305,-21.21 25.8,-35.753 47.927,-35.753c22.127,0 41.622,14.543 47.927,35.753Zm-47.927,14.247l-39.505,132.895l-127.842,0l103.426,82.134l-39.505,132.895l103.426,-82.134l103.426,82.134l-39.505,-132.895l103.426,-82.134l-127.842,0l-39.505,-132.895Z" style="fill:#08083f;fill-opacity:0.5;"/><path d="M1922.31,94.118l39.506,132.895l127.841,-0l-103.426,82.133l39.506,132.895l-103.427,-82.133l-103.426,82.133l39.506,-132.895l-103.427,-82.133l127.842,-0l39.505,-132.895Z" style="fill:#420742;fill-opacity:0;"/><path d="M1970.24,79.87c-0,0 28.877,97.143 28.877,97.143l90.542,-0c21.268,-0 40.208,13.453 47.212,33.534c7.003,20.081 0.537,42.395 -16.117,55.621l-76.965,61.12l29.877,100.506c6.218,20.919 -1.849,43.455 -19.931,55.674c-18.082,12.22 -42,11.3 -59.091,-2.272l-72.332,-57.44l-72.331,57.44c-17.091,13.572 -41.009,14.492 -59.091,2.272c-18.082,-12.219 -26.149,-34.755 -19.931,-55.674l29.877,-100.506l-76.965,-61.12c-16.655,-13.226 -23.12,-35.54 -16.117,-55.621c7.004,-20.081 25.944,-33.534 47.211,-33.534l90.543,-0l28.877,-97.143c6.305,-21.209 25.801,-35.752 47.927,-35.752c22.127,-0 41.623,14.543 47.928,35.752Zm-47.928,14.248l-39.505,132.895l-127.842,-0l103.427,82.133l-39.506,132.895l103.426,-82.133l103.427,82.133l-39.506,-132.895l103.426,-82.133l-127.841,-0l-39.506,-132.895Z" style="fill:#08083f;fill-opacity:0.5;"/><path d="M1928.73,1043.48l39.505,132.895l127.842,0l-103.426,82.134l39.505,132.895l-103.426,-82.134l-103.426,82.134l39.505,-132.895l-103.426,-82.134l127.841,0l39.506,-132.895Z" style="fill:#420742;fill-opacity:0;"/><path d="M1976.66,1029.23c-0,0 28.877,97.142 28.877,97.142l90.543,0c21.267,0 40.207,13.453 47.211,33.535c7.003,20.081 0.538,42.395 -16.117,55.621l-76.965,61.12l29.877,100.506c6.219,20.919 -1.849,43.454 -19.931,55.674c-18.082,12.22 -42,11.3 -59.09,-2.272l-72.332,-57.441l-72.332,57.441c-17.09,13.572 -41.009,14.492 -59.091,2.272c-18.082,-12.22 -26.149,-34.755 -19.931,-55.674l29.877,-100.506l-76.965,-61.12c-16.654,-13.226 -23.12,-35.54 -16.116,-55.621c7.003,-20.082 25.943,-33.535 47.211,-33.535l90.542,0l28.878,-97.142c6.304,-21.209 25.8,-35.753 47.927,-35.753c22.127,0 41.622,14.544 47.927,35.753Zm-47.927,14.247l-39.506,132.895l-127.841,0l103.426,82.134l-39.505,132.895l103.426,-82.134l103.426,82.134l-39.505,-132.895l103.426,-82.134l-127.842,0l-39.505,-132.895Z" style="fill:#08083f;fill-opacity:0.5;"/><path d="M1928.73,2041.94l39.505,132.895l127.842,-0l-103.426,82.133l39.505,132.895l-103.426,-82.133l-103.426,82.133l39.505,-132.895l-103.426,-82.133l127.841,-0l39.506,-132.895Z" style="fill:#420742;fill-opacity:0;"/><path d="M1976.66,2027.7c-0,-0 28.877,97.142 28.877,97.142l90.543,-0c21.267,-0 40.207,13.453 47.211,33.534c7.003,20.081 0.538,42.395 -16.117,55.621l-76.965,61.12l29.877,100.506c6.219,20.919 -1.849,43.455 -19.931,55.674c-18.082,12.22 -42,11.3 -59.09,-2.271l-72.332,-57.441l-72.332,57.441c-17.09,13.571 -41.009,14.491 -59.091,2.271c-18.082,-12.219 -26.149,-34.755 -19.931,-55.674l29.877,-100.506l-76.965,-61.12c-16.654,-13.226 -23.12,-35.54 -16.116,-55.621c7.003,-20.081 25.943,-33.534 47.211,-33.534l90.542,-0l28.878,-97.142c6.304,-21.21 25.8,-35.753 47.927,-35.753c22.127,-0 41.622,14.543 47.927,35.753Zm-47.927,14.247l-39.506,132.895l-127.841,-0l103.426,82.133l-39.505,132.895l103.426,-82.133l103.426,82.133l-39.505,-132.895l103.426,-82.133l-127.842,-0l-39.505,-132.895Z" style="fill:#08083f;fill-opacity:0.5;"/><path d="M1928.73,2989.14l39.505,132.895l127.842,-0l-103.426,82.133l39.505,132.895l-103.426,-82.133l-103.426,82.133l39.505,-132.895l-103.426,-82.133l127.841,-0l39.506,-132.895Z" style="fill:#420742;fill-opacity:0;"/><path d="M1976.66,2974.89c-0,0 28.877,97.143 28.877,97.143l90.543,-0c21.267,-0 40.207,13.453 47.211,33.534c7.003,20.081 0.538,42.395 -16.117,55.621l-76.965,61.12l29.877,100.506c6.219,20.919 -1.849,43.455 -19.931,55.674c-18.082,12.22 -42,11.3 -59.09,-2.272l-72.332,-57.44l-72.332,57.44c-17.09,13.572 -41.009,14.492 -59.091,2.272c-18.082,-12.219 -26.149,-34.755 -19.931,-55.674l29.877,-100.506l-76.965,-61.12c-16.654,-13.226 -23.12,-35.54 -16.116,-55.621c7.003,-20.081 25.943,-33.534 47.211,-33.534l90.542,-0l28.878,-97.143c6.304,-21.209 25.8,-35.752 47.927,-35.752c22.127,-0 41.622,14.543 47.927,35.752Zm-47.927,14.248l-39.506,132.895l-127.841,-0l103.426,82.133l-39.505,132.895l103.426,-82.133l103.426,82.133l-39.505,-132.895l103.426,-82.133l-127.842,-0l-39.505,-132.895Z" style="fill:#08083f;fill-opacity:0.5;"/><path d="M1866.64,576.982l39.505,132.895l127.842,0l-103.427,82.134l39.506,132.895l-103.426,-82.134l-103.427,82.134l39.506,-132.895l-103.426,-82.134l127.841,0l39.506,-132.895Z" style="fill:#420742;fill-opacity:0;"/><path d="M1914.57,562.735c-0,-0 28.877,97.142 28.877,97.142l90.543,0c21.267,0 40.207,13.453 47.211,33.534c7.003,20.082 0.538,42.395 -16.117,55.621l-76.965,61.121l29.877,100.505c6.218,20.919 -1.849,43.455 -19.931,55.675c-18.082,12.219 -42,11.3 -59.091,-2.272l-72.331,-57.441l-72.332,57.441c-17.091,13.572 -41.009,14.491 -59.091,2.272c-18.082,-12.22 -26.149,-34.756 -19.931,-55.675l29.877,-100.505l-76.965,-61.121c-16.654,-13.226 -23.12,-35.539 -16.117,-55.621c7.004,-20.081 25.944,-33.534 47.212,-33.534l90.542,0l28.877,-97.142c6.305,-21.21 25.801,-35.753 47.928,-35.753c22.126,0 41.622,14.543 47.927,35.753Zm-47.927,14.247l-39.506,132.895l-127.841,0l103.426,82.134l-39.506,132.895l103.427,-82.134l103.426,82.134l-39.506,-132.895l103.427,-82.134l-127.842,0l-39.505,-132.895Z" style="fill:#08083f;fill-opacity:0.5;"/><path d="M1873.06,1526.34l39.505,132.895l127.842,-0l-103.426,82.133l39.505,132.895l-103.426,-82.133l-103.426,82.133l39.505,-132.895l-103.426,-82.133l127.842,-0l39.505,-132.895Z" style="fill:#420742;fill-opacity:0;"/><path d="M1920.99,1512.1c0,-0 28.877,97.142 28.877,97.142l90.543,-0c21.267,-0 40.207,13.453 47.211,33.534c7.004,20.081 0.538,42.395 -16.117,55.621l-76.965,61.12l29.877,100.506c6.219,20.919 -1.849,43.455 -19.931,55.674c-18.082,12.22 -42,11.3 -59.09,-2.271l-72.332,-57.441l-72.332,57.441c-17.09,13.571 -41.009,14.491 -59.091,2.271c-18.082,-12.219 -26.149,-34.755 -19.93,-55.674l29.877,-100.506l-76.966,-61.12c-16.654,-13.226 -23.12,-35.54 -16.116,-55.621c7.003,-20.081 25.943,-33.534 47.211,-33.534l90.543,-0l28.877,-97.142c6.305,-21.21 25.8,-35.753 47.927,-35.753c22.127,-0 41.622,14.543 47.927,35.753Zm-47.927,14.247l-39.505,132.895l-127.842,-0l103.426,82.133l-39.505,132.895l103.426,-82.133l103.426,82.133l-39.505,-132.895l103.426,-82.133l-127.842,-0l-39.505,-132.895Z" style="fill:#08083f;fill-opacity:0.5;"/><path d="M1873.06,2524.81l39.505,132.895l127.842,0l-103.426,82.134l39.505,132.895l-103.426,-82.134l-103.426,82.134l39.505,-132.895l-103.426,-82.134l127.842,0l39.505,-132.895Z" style="fill:#420742;fill-opacity:0;"/><path d="M1920.99,2510.56c0,0 28.877,97.142 28.877,97.142l90.543,0c21.267,0 40.207,13.453 47.211,33.535c7.004,20.081 0.538,42.395 -16.117,55.62l-76.965,61.121l29.877,100.505c6.219,20.92 -1.849,43.455 -19.931,55.675c-18.082,12.219 -42,11.3 -59.09,-2.272l-72.332,-57.441l-72.332,57.441c-17.09,13.572 -41.009,14.491 -59.091,2.272c-18.082,-12.22 -26.149,-34.755 -19.93,-55.675l29.877,-100.505l-76.966,-61.121c-16.654,-13.225 -23.12,-35.539 -16.116,-55.62c7.003,-20.082 25.943,-33.535 47.211,-33.535l90.543,0l28.877,-97.142c6.305,-21.21 25.8,-35.753 47.927,-35.753c22.127,0 41.622,14.543 47.927,35.753Zm-47.927,14.247l-39.505,132.895l-127.842,0l103.426,82.134l-39.505,132.895l103.426,-82.134l103.426,82.134l-39.505,-132.895l103.426,-82.134l-127.842,0l-39.505,-132.895Z" style="fill:#08083f;fill-opacity:0.5;"/><path d="M2451.8,94.118l39.505,132.895l127.842,-0l-103.426,82.133l39.505,132.895l-103.426,-82.133l-103.426,82.133l39.505,-132.895l-103.426,-82.133l127.842,-0l39.505,-132.895Z" style="fill:#420742;fill-opacity:0;"/><path d="M2499.73,79.87c0,0 28.877,97.143 28.877,97.143l90.543,-0c21.267,-0 40.207,13.453 47.211,33.534c7.004,20.081 0.538,42.395 -16.117,55.621l-76.965,61.12l29.877,100.506c6.219,20.919 -1.849,43.455 -19.931,55.674c-18.082,12.22 -42,11.3 -59.09,-2.272l-72.332,-57.44l-72.332,57.44c-17.09,13.572 -41.009,14.492 -59.091,2.272c-18.082,-12.219 -26.149,-34.755 -19.931,-55.674l29.878,-100.506l-76.966,-61.12c-16.654,-13.226 -23.12,-35.54 -16.116,-55.621c7.003,-20.081 25.943,-33.534 47.211,-33.534l90.542,-0l28.878,-97.143c6.305,-21.209 25.8,-35.752 47.927,-35.752c22.127,-0 41.622,14.543 47.927,35.752Zm-47.927,14.248l-39.505,132.895l-127.842,-0l103.426,82.133l-39.505,132.895l103.426,-82.133l103.426,82.133l-39.505,-132.895l103.426,-82.133l-127.842,-0l-39.505,-132.895Z" style="fill:#08083f;fill-opacity:0.5;"/><path d="M2458.22,1043.48l39.505,132.895l127.842,0l-103.426,82.134l39.505,132.895l-103.426,-82.134l-103.426,82.134l39.505,-132.895l-103.426,-82.134l127.842,0l39.505,-132.895Z" style="fill:#420742;fill-opacity:0;"/><path d="M2506.15,1029.23c0,0 28.877,97.142 28.877,97.142l90.543,0c21.268,0 40.208,13.453 47.211,33.535c7.004,20.081 0.538,42.395 -16.116,55.621l-76.966,61.12l29.877,100.506c6.219,20.919 -1.848,43.454 -19.93,55.674c-18.082,12.22 -42.001,11.3 -59.091,-2.272l-72.332,-57.441l-72.332,57.441c-17.09,13.572 -41.008,14.492 -59.09,2.272c-18.082,-12.22 -26.15,-34.755 -19.931,-55.674l29.877,-100.506l-76.965,-61.12c-16.655,-13.226 -23.121,-35.54 -16.117,-55.621c7.004,-20.082 25.944,-33.535 47.211,-33.535l90.543,0l28.877,-97.142c6.305,-21.209 25.8,-35.753 47.927,-35.753c22.127,0 41.622,14.544 47.927,35.753Zm-47.927,14.247l-39.505,132.895l-127.842,0l103.426,82.134l-39.505,132.895l103.426,-82.134l103.426,82.134l-39.505,-132.895l103.426,-82.134l-127.842,0l-39.505,-132.895Z" style="fill:#08083f;fill-opacity:0.5;"/><path d="M2458.22,2041.94l39.505,132.895l127.842,-0l-103.426,82.133l39.505,132.895l-103.426,-82.133l-103.426,82.133l39.505,-132.895l-103.426,-82.133l127.842,-0l39.505,-132.895Z" style="fill:#420742;fill-opacity:0;"/><path d="M2506.15,2027.7c0,-0 28.877,97.142 28.877,97.142l90.543,-0c21.268,-0 40.208,13.453 47.211,33.534c7.004,20.081 0.538,42.395 -16.116,55.621l-76.966,61.12l29.877,100.506c6.219,20.919 -1.848,43.455 -19.93,55.674c-18.082,12.22 -42.001,11.3 -59.091,-2.271l-72.332,-57.441l-72.332,57.441c-17.09,13.571 -41.008,14.491 -59.09,2.271c-18.082,-12.219 -26.15,-34.755 -19.931,-55.674l29.877,-100.506l-76.965,-61.12c-16.655,-13.226 -23.121,-35.54 -16.117,-55.621c7.004,-20.081 25.944,-33.534 47.211,-33.534l90.543,-0l28.877,-97.142c6.305,-21.21 25.8,-35.753 47.927,-35.753c22.127,-0 41.622,14.543 47.927,35.753Zm-47.927,14.247l-39.505,132.895l-127.842,-0l103.426,82.133l-39.505,132.895l103.426,-82.133l103.426,82.133l-39.505,-132.895l103.426,-82.133l-127.842,-0l-39.505,-132.895Z" style="fill:#08083f;fill-opacity:0.5;"/><path d="M2458.22,2989.14l39.505,132.895l127.842,-0l-103.426,82.133l39.505,132.895l-103.426,-82.133l-103.426,82.133l39.505,-132.895l-103.426,-82.133l127.842,-0l39.505,-132.895Z" style="fill:#420742;fill-opacity:0;"/><path d="M2506.15,2974.89c0,0 28.877,97.143 28.877,97.143l90.543,-0c21.268,-0 40.208,13.453 47.211,33.534c7.004,20.081 0.538,42.395 -16.116,55.621l-76.966,61.12l29.877,100.506c6.219,20.919 -1.848,43.455 -19.93,55.674c-18.082,12.22 -42.001,11.3 -59.091,-2.272l-72.332,-57.44l-72.332,57.44c-17.09,13.572 -41.008,14.492 -59.09,2.272c-18.082,-12.219 -26.15,-34.755 -19.931,-55.674l29.877,-100.506l-76.965,-61.12c-16.655,-13.226 -23.121,-35.54 -16.117,-55.621c7.004,-20.081 25.944,-33.534 47.211,-33.534l90.543,-0l28.877,-97.143c6.305,-21.209 25.8,-35.752 47.927,-35.752c22.127,-0 41.622,14.543 47.927,35.752Zm-47.927,14.248l-39.505,132.895l-127.842,-0l103.426,82.133l-39.505,132.895l103.426,-82.133l103.426,82.133l-39.505,-132.895l103.426,-82.133l-127.842,-0l-39.505,-132.895Z" style="fill:#08083f;fill-opacity:0.5;"/><path d="M2451.8,576.982l39.505,132.895l127.842,0l-103.426,82.134l39.505,132.895l-103.426,-82.134l-103.426,82.134l39.505,-132.895l-103.426,-82.134l127.842,0l39.505,-132.895Z" style="fill:#420742;fill-opacity:0;"/><path d="M2499.73,562.735c0,-0 28.877,97.142 28.877,97.142l90.543,0c21.267,0 40.207,13.453 47.211,33.534c7.004,20.082 0.538,42.395 -16.117,55.621l-76.965,61.121l29.877,100.505c6.219,20.919 -1.849,43.455 -19.931,55.675c-18.082,12.219 -42,11.3 -59.09,-2.272l-72.332,-57.441l-72.332,57.441c-17.09,13.572 -41.009,14.491 -59.091,2.272c-18.082,-12.22 -26.149,-34.756 -19.931,-55.675l29.878,-100.505l-76.966,-61.121c-16.654,-13.226 -23.12,-35.539 -16.116,-55.621c7.003,-20.081 25.943,-33.534 47.211,-33.534l90.542,0l28.878,-97.142c6.305,-21.21 25.8,-35.753 47.927,-35.753c22.127,0 41.622,14.543 47.927,35.753Zm-47.927,14.247l-39.505,132.895l-127.842,0l103.426,82.134l-39.505,132.895l103.426,-82.134l103.426,82.134l-39.505,-132.895l103.426,-82.134l-127.842,0l-39.505,-132.895Z" style="fill:#08083f;fill-opacity:0.5;"/><path d="M2458.22,1526.34l39.505,132.895l127.842,-0l-103.426,82.133l39.505,132.895l-103.426,-82.133l-103.426,82.133l39.505,-132.895l-103.426,-82.133l127.842,-0l39.505,-132.895Z" style="fill:#420742;fill-opacity:0;"/><path d="M2506.15,1512.1c0,-0 28.877,97.142 28.877,97.142l90.543,-0c21.268,-0 40.208,13.453 47.211,33.534c7.004,20.081 0.538,42.395 -16.116,55.621l-76.966,61.12l29.877,100.506c6.219,20.919 -1.848,43.455 -19.93,55.674c-18.082,12.22 -42.001,11.3 -59.091,-2.271l-72.332,-57.441l-72.332,57.441c-17.09,13.571 -41.008,14.491 -59.09,2.271c-18.082,-12.219 -26.15,-34.755 -19.931,-55.674l29.877,-100.506l-76.965,-61.12c-16.655,-13.226 -23.121,-35.54 -16.117,-55.621c7.004,-20.081 25.944,-33.534 47.211,-33.534l90.543,-0l28.877,-97.142c6.305,-21.21 25.8,-35.753 47.927,-35.753c22.127,-0 41.622,14.543 47.927,35.753Zm-47.927,14.247l-39.505,132.895l-127.842,-0l103.426,82.133l-39.505,132.895l103.426,-82.133l103.426,82.133l-39.505,-132.895l103.426,-82.133l-127.842,-0l-39.505,-132.895Z" style="fill:#08083f;fill-opacity:0.5;"/><path d="M2458.22,2524.81l39.505,132.895l127.842,0l-103.426,82.134l39.505,132.895l-103.426,-82.134l-103.426,82.134l39.505,-132.895l-103.426,-82.134l127.842,0l39.505,-132.895Z" style="fill:#420742;fill-opacity:0;"/><path d="M2506.15,2510.56c0,0 28.877,97.142 28.877,97.142l90.543,0c21.268,0 40.208,13.453 47.211,33.535c7.004,20.081 0.538,42.395 -16.116,55.62l-76.966,61.121l29.877,100.505c6.219,20.92 -1.848,43.455 -19.93,55.675c-18.082,12.219 -42.001,11.3 -59.091,-2.272l-72.332,-57.441l-72.332,57.441c-17.09,13.572 -41.008,14.491 -59.09,2.272c-18.082,-12.22 -26.15,-34.755 -19.931,-55.675l29.877,-100.505l-76.965,-61.121c-16.655,-13.225 -23.121,-35.539 -16.117,-55.62c7.004,-20.082 25.944,-33.535 47.211,-33.535l90.543,0l28.877,-97.142c6.305,-21.21 25.8,-35.753 47.927,-35.753c22.127,0 41.622,14.543 47.927,35.753Zm-47.927,14.247l-39.505,132.895l-127.842,0l103.426,82.134l-39.505,132.895l103.426,-82.134l103.426,82.134l-39.505,-132.895l103.426,-82.134l-127.842,0l-39.505,-132.895Z" style="fill:#08083f;fill-opacity:0.5;"/><path d="M2991.96,94.118l39.506,132.895l127.841,-0l-103.426,82.133l39.505,132.895l-103.426,-82.133l-103.426,82.133l39.505,-132.895l-103.426,-82.133l127.842,-0l39.505,-132.895Z" style="fill:#420742;fill-opacity:0;"/><path d="M3039.88,79.87c0,0 28.878,97.143 28.878,97.143l90.542,-0c21.268,-0 40.208,13.453 47.211,33.534c7.004,20.081 0.538,42.395 -16.116,55.621l-76.965,61.12l29.877,100.506c6.218,20.919 -1.849,43.455 -19.931,55.674c-18.082,12.22 -42.001,11.3 -59.091,-2.272l-72.332,-57.44l-72.332,57.44c-17.09,13.572 -41.008,14.492 -59.09,2.272c-18.082,-12.219 -26.15,-34.755 -19.931,-55.674l29.877,-100.506l-76.965,-61.12c-16.655,-13.226 -23.12,-35.54 -16.117,-55.621c7.004,-20.081 25.944,-33.534 47.211,-33.534l90.543,-0l28.877,-97.143c6.305,-21.209 25.8,-35.752 47.927,-35.752c22.127,-0 41.623,14.543 47.927,35.752Zm-47.927,14.248l-39.505,132.895l-127.842,-0l103.426,82.133l-39.505,132.895l103.426,-82.133l103.426,82.133l-39.505,-132.895l103.426,-82.133l-127.841,-0l-39.506,-132.895Z" style="fill:#08083f;fill-opacity:0.5;"/><path d="M2998.38,1043.48l39.505,132.895l127.842,0l-103.427,82.134l39.506,132.895l-103.426,-82.134l-103.427,82.134l39.506,-132.895l-103.426,-82.134l127.841,0l39.506,-132.895Z" style="fill:#420742;fill-opacity:0;"/><path d="M3046.31,1029.23c-0,0 28.877,97.142 28.877,97.142l90.543,0c21.267,0 40.207,13.453 47.211,33.535c7.003,20.081 0.538,42.395 -16.117,55.621l-76.965,61.12l29.877,100.506c6.218,20.919 -1.849,43.454 -19.931,55.674c-18.082,12.22 -42,11.3 -59.091,-2.272l-72.331,-57.441l-72.332,57.441c-17.091,13.572 -41.009,14.492 -59.091,2.272c-18.082,-12.22 -26.149,-34.755 -19.931,-55.674l29.877,-100.506l-76.965,-61.12c-16.654,-13.226 -23.12,-35.54 -16.117,-55.621c7.004,-20.082 25.944,-33.535 47.212,-33.535l90.542,0l28.877,-97.142c6.305,-21.209 25.801,-35.753 47.928,-35.753c22.126,0 41.622,14.544 47.927,35.753Zm-47.927,14.247l-39.506,132.895l-127.841,0l103.426,82.134l-39.506,132.895l103.427,-82.134l103.426,82.134l-39.506,-132.895l103.427,-82.134l-127.842,0l-39.505,-132.895Z" style="fill:#08083f;fill-opacity:0.5;"/><path d="M2998.38,2041.94l39.505,132.895l127.842,-0l-103.427,82.133l39.506,132.895l-103.426,-82.133l-103.427,82.133l39.506,-132.895l-103.426,-82.133l127.841,-0l39.506,-132.895Z" style="fill:#420742;fill-opacity:0;"/><path d="M3046.31,2027.7c-0,-0 28.877,97.142 28.877,97.142l90.543,-0c21.267,-0 40.207,13.453 47.211,33.534c7.003,20.081 0.538,42.395 -16.117,55.621l-76.965,61.12l29.877,100.506c6.218,20.919 -1.849,43.455 -19.931,55.674c-18.082,12.22 -42,11.3 -59.091,-2.271l-72.331,-57.441l-72.332,57.441c-17.091,13.571 -41.009,14.491 -59.091,2.271c-18.082,-12.219 -26.149,-34.755 -19.931,-55.674l29.877,-100.506l-76.965,-61.12c-16.654,-13.226 -23.12,-35.54 -16.117,-55.621c7.004,-20.081 25.944,-33.534 47.212,-33.534l90.542,-0l28.877,-97.142c6.305,-21.21 25.801,-35.753 47.928,-35.753c22.126,-0 41.622,14.543 47.927,35.753Zm-47.927,14.247l-39.506,132.895l-127.841,-0l103.426,82.133l-39.506,132.895l103.427,-82.133l103.426,82.133l-39.506,-132.895l103.427,-82.133l-127.842,-0l-39.505,-132.895Z" style="fill:#08083f;fill-opacity:0.5;"/><path d="M2998.38,2989.14l39.505,132.895l127.842,-0l-103.427,82.133l39.506,132.895l-103.426,-82.133l-103.427,82.133l39.506,-132.895l-103.426,-82.133l127.841,-0l39.506,-132.895Z" style="fill:#420742;fill-opacity:0;"/><path d="M3046.31,2974.89c-0,0 28.877,97.143 28.877,97.143l90.543,-0c21.267,-0 40.207,13.453 47.211,33.534c7.003,20.081 0.538,42.395 -16.117,55.621l-76.965,61.12l29.877,100.506c6.218,20.919 -1.849,43.455 -19.931,55.674c-18.082,12.22 -42,11.3 -59.091,-2.272l-72.331,-57.44l-72.332,57.44c-17.091,13.572 -41.009,14.492 -59.091,2.272c-18.082,-12.219 -26.149,-34.755 -19.931,-55.674l29.877,-100.506l-76.965,-61.12c-16.654,-13.226 -23.12,-35.54 -16.117,-55.621c7.004,-20.081 25.944,-33.534 47.212,-33.534l90.542,-0l28.877,-97.143c6.305,-21.209 25.801,-35.752 47.928,-35.752c22.126,-0 41.622,14.543 47.927,35.752Zm-47.927,14.248l-39.506,132.895l-127.841,-0l103.426,82.133l-39.506,132.895l103.427,-82.133l103.426,82.133l-39.506,-132.895l103.427,-82.133l-127.842,-0l-39.505,-132.895Z" style="fill:#08083f;fill-opacity:0.5;"/><path d="M2991.96,576.982l39.506,132.895l127.841,0l-103.426,82.134l39.505,132.895l-103.426,-82.134l-103.426,82.134l39.505,-132.895l-103.426,-82.134l127.842,0l39.505,-132.895Z" style="fill:#420742;fill-opacity:0;"/><path d="M3039.88,562.735c0,-0 28.878,97.142 28.878,97.142l90.542,0c21.268,0 40.208,13.453 47.211,33.534c7.004,20.082 0.538,42.395 -16.116,55.621l-76.965,61.121l29.877,100.505c6.218,20.919 -1.849,43.455 -19.931,55.675c-18.082,12.219 -42.001,11.3 -59.091,-2.272l-72.332,-57.441l-72.332,57.441c-17.09,13.572 -41.008,14.491 -59.09,2.272c-18.082,-12.22 -26.15,-34.756 -19.931,-55.675l29.877,-100.505l-76.965,-61.121c-16.655,-13.226 -23.12,-35.539 -16.117,-55.621c7.004,-20.081 25.944,-33.534 47.211,-33.534l90.543,0l28.877,-97.142c6.305,-21.21 25.8,-35.753 47.927,-35.753c22.127,0 41.623,14.543 47.927,35.753Zm-47.927,14.247l-39.505,132.895l-127.842,0l103.426,82.134l-39.505,132.895l103.426,-82.134l103.426,82.134l-39.505,-132.895l103.426,-82.134l-127.841,0l-39.506,-132.895Z" style="fill:#08083f;fill-opacity:0.5;"/><path d="M2998.38,1526.34l39.505,132.895l127.842,-0l-103.427,82.133l39.506,132.895l-103.426,-82.133l-103.427,82.133l39.506,-132.895l-103.426,-82.133l127.841,-0l39.506,-132.895Z" style="fill:#420742;fill-opacity:0;"/><path d="M3046.31,1512.1c-0,-0 28.877,97.142 28.877,97.142l90.543,-0c21.267,-0 40.207,13.453 47.211,33.534c7.003,20.081 0.538,42.395 -16.117,55.621l-76.965,61.12l29.877,100.506c6.218,20.919 -1.849,43.455 -19.931,55.674c-18.082,12.22 -42,11.3 -59.091,-2.271l-72.331,-57.441l-72.332,57.441c-17.091,13.571 -41.009,14.491 -59.091,2.271c-18.082,-12.219 -26.149,-34.755 -19.931,-55.674l29.877,-100.506l-76.965,-61.12c-16.654,-13.226 -23.12,-35.54 -16.117,-55.621c7.004,-20.081 25.944,-33.534 47.212,-33.534l90.542,-0l28.877,-97.142c6.305,-21.21 25.801,-35.753 47.928,-35.753c22.126,-0 41.622,14.543 47.927,35.753Zm-47.927,14.247l-39.506,132.895l-127.841,-0l103.426,82.133l-39.506,132.895l103.427,-82.133l103.426,82.133l-39.506,-132.895l103.427,-82.133l-127.842,-0l-39.505,-132.895Z" style="fill:#08083f;fill-opacity:0.5;"/><path d="M2998.38,2524.81l39.505,132.895l127.842,0l-103.427,82.134l39.506,132.895l-103.426,-82.134l-103.427,82.134l39.506,-132.895l-103.426,-82.134l127.841,0l39.506,-132.895Z" style="fill:#420742;fill-opacity:0;"/><path d="M3046.31,2510.56c-0,0 28.877,97.142 28.877,97.142l90.543,0c21.267,0 40.207,13.453 47.211,33.535c7.003,20.081 0.538,42.395 -16.117,55.62l-76.965,61.121l29.877,100.505c6.218,20.92 -1.849,43.455 -19.931,55.675c-18.082,12.219 -42,11.3 -59.091,-2.272l-72.331,-57.441l-72.332,57.441c-17.091,13.572 -41.009,14.491 -59.091,2.272c-18.082,-12.22 -26.149,-34.755 -19.931,-55.675l29.877,-100.505l-76.965,-61.121c-16.654,-13.225 -23.12,-35.539 -16.117,-55.62c7.004,-20.082 25.944,-33.535 47.212,-33.535l90.542,0l28.877,-97.142c6.305,-21.21 25.801,-35.753 47.928,-35.753c22.126,0 41.622,14.543 47.927,35.753Zm-47.927,14.247l-39.506,132.895l-127.841,0l103.426,82.134l-39.506,132.895l103.427,-82.134l103.426,82.134l-39.506,-132.895l103.427,-82.134l-127.842,0l-39.505,-132.895Z" style="fill:#08083f;fill-opacity:0.5;"/><path d="M3501.85,94.118l39.505,132.895l127.842,-0l-103.426,82.133l39.505,132.895l-103.426,-82.133l-103.426,82.133l39.505,-132.895l-103.426,-82.133l127.842,-0l39.505,-132.895Z" style="fill:#420742;fill-opacity:0;"/><path d="M3549.78,79.87c0,0 28.877,97.143 28.877,97.143l90.543,-0c21.268,-0 40.208,13.453 47.211,33.534c7.004,20.081 0.538,42.395 -16.117,55.621l-76.965,61.12l29.877,100.506c6.219,20.919 -1.849,43.455 -19.93,55.674c-18.082,12.22 -42.001,11.3 -59.091,-2.272l-72.332,-57.44l-72.332,57.44c-17.09,13.572 -41.008,14.492 -59.09,2.272c-18.082,-12.219 -26.15,-34.755 -19.931,-55.674l29.877,-100.506l-76.965,-61.12c-16.655,-13.226 -23.121,-35.54 -16.117,-55.621c7.004,-20.081 25.944,-33.534 47.211,-33.534l90.543,-0l28.877,-97.143c6.305,-21.209 25.8,-35.752 47.927,-35.752c22.127,-0 41.622,14.543 47.927,35.752Zm-47.927,14.248l-39.505,132.895l-127.842,-0l103.426,82.133l-39.505,132.895l103.426,-82.133l103.426,82.133l-39.505,-132.895l103.426,-82.133l-127.842,-0l-39.505,-132.895Z" style="fill:#08083f;fill-opacity:0.5;"/><path d="M3508.27,1043.48l39.506,132.895l127.841,0l-103.426,82.134l39.506,132.895l-103.427,-82.134l-103.426,82.134l39.506,-132.895l-103.427,-82.134l127.842,0l39.505,-132.895Z" style="fill:#420742;fill-opacity:0;"/><path d="M3556.2,1029.23c-0,0 28.877,97.142 28.877,97.142l90.542,0c21.268,0 40.208,13.453 47.211,33.535c7.004,20.081 0.538,42.395 -16.116,55.621l-76.965,61.12l29.877,100.506c6.218,20.919 -1.849,43.454 -19.931,55.674c-18.082,12.22 -42,11.3 -59.091,-2.272l-72.332,-57.441l-72.331,57.441c-17.091,13.572 -41.009,14.492 -59.091,2.272c-18.082,-12.22 -26.15,-34.755 -19.931,-55.674l29.877,-100.506l-76.965,-61.12c-16.655,-13.226 -23.12,-35.54 -16.117,-55.621c7.004,-20.082 25.944,-33.535 47.211,-33.535l90.543,0l28.877,-97.142c6.305,-21.209 25.801,-35.753 47.927,-35.753c22.127,0 41.623,14.544 47.928,35.753Zm-47.928,14.247l-39.505,132.895l-127.842,0l103.427,82.134l-39.506,132.895l103.426,-82.134l103.427,82.134l-39.506,-132.895l103.426,-82.134l-127.841,0l-39.506,-132.895Z" style="fill:#08083f;fill-opacity:0.5;"/><path d="M3508.27,2041.94l39.506,132.895l127.841,-0l-103.426,82.133l39.506,132.895l-103.427,-82.133l-103.426,82.133l39.506,-132.895l-103.427,-82.133l127.842,-0l39.505,-132.895Z" style="fill:#420742;fill-opacity:0;"/><path d="M3556.2,2027.7c-0,-0 28.877,97.142 28.877,97.142l90.542,-0c21.268,-0 40.208,13.453 47.211,33.534c7.004,20.081 0.538,42.395 -16.116,55.621l-76.965,61.12l29.877,100.506c6.218,20.919 -1.849,43.455 -19.931,55.674c-18.082,12.22 -42,11.3 -59.091,-2.271l-72.332,-57.441l-72.331,57.441c-17.091,13.571 -41.009,14.491 -59.091,2.271c-18.082,-12.219 -26.15,-34.755 -19.931,-55.674l29.877,-100.506l-76.965,-61.12c-16.655,-13.226 -23.12,-35.54 -16.117,-55.621c7.004,-20.081 25.944,-33.534 47.211,-33.534l90.543,-0l28.877,-97.142c6.305,-21.21 25.801,-35.753 47.927,-35.753c22.127,-0 41.623,14.543 47.928,35.753Zm-47.928,14.247l-39.505,132.895l-127.842,-0l103.427,82.133l-39.506,132.895l103.426,-82.133l103.427,82.133l-39.506,-132.895l103.426,-82.133l-127.841,-0l-39.506,-132.895Z" style="fill:#08083f;fill-opacity:0.5;"/><path d="M3508.27,2989.14l39.506,132.895l127.841,-0l-103.426,82.133l39.506,132.895l-103.427,-82.133l-103.426,82.133l39.506,-132.895l-103.427,-82.133l127.842,-0l39.505,-132.895Z" style="fill:#420742;fill-opacity:0;"/><path d="M3556.2,2974.89c-0,0 28.877,97.143 28.877,97.143l90.542,-0c21.268,-0 40.208,13.453 47.211,33.534c7.004,20.081 0.538,42.395 -16.116,55.621l-76.965,61.12l29.877,100.506c6.218,20.919 -1.849,43.455 -19.931,55.674c-18.082,12.22 -42,11.3 -59.091,-2.272l-72.332,-57.44l-72.331,57.44c-17.091,13.572 -41.009,14.492 -59.091,2.272c-18.082,-12.219 -26.15,-34.755 -19.931,-55.674l29.877,-100.506l-76.965,-61.12c-16.655,-13.226 -23.12,-35.54 -16.117,-55.621c7.004,-20.081 25.944,-33.534 47.211,-33.534l90.543,-0l28.877,-97.143c6.305,-21.209 25.801,-35.752 47.927,-35.752c22.127,-0 41.623,14.543 47.928,35.752Zm-47.928,14.248l-39.505,132.895l-127.842,-0l103.427,82.133l-39.506,132.895l103.426,-82.133l103.427,82.133l-39.506,-132.895l103.426,-82.133l-127.841,-0l-39.506,-132.895Z" style="fill:#08083f;fill-opacity:0.5;"/><path d="M3515.74,576.982l39.506,132.895l127.841,0l-103.426,82.134l39.506,132.895l-103.427,-82.134l-103.426,82.134l39.506,-132.895l-103.427,-82.134l127.842,0l39.505,-132.895Z" style="fill:#420742;fill-opacity:0;"/><path d="M3563.67,562.735c-0,-0 28.877,97.142 28.877,97.142l90.542,0c21.268,0 40.208,13.453 47.212,33.534c7.003,20.082 0.537,42.395 -16.117,55.621l-76.965,61.121l29.877,100.505c6.218,20.919 -1.849,43.455 -19.931,55.675c-18.082,12.219 -42,11.3 -59.091,-2.272l-72.332,-57.441l-72.331,57.441c-17.091,13.572 -41.009,14.491 -59.091,2.272c-18.082,-12.22 -26.149,-34.756 -19.931,-55.675l29.877,-100.505l-76.965,-61.121c-16.655,-13.226 -23.12,-35.539 -16.117,-55.621c7.004,-20.081 25.944,-33.534 47.211,-33.534l90.543,0l28.877,-97.142c6.305,-21.21 25.801,-35.753 47.927,-35.753c22.127,0 41.623,14.543 47.928,35.753Zm-47.928,14.247l-39.505,132.895l-127.842,0l103.427,82.134l-39.506,132.895l103.426,-82.134l103.427,82.134l-39.506,-132.895l103.426,-82.134l-127.841,0l-39.506,-132.895Z" style="fill:#08083f;fill-opacity:0.5;"/><path d="M3522.16,1526.34l39.505,132.895l127.842,-0l-103.426,82.133l39.505,132.895l-103.426,-82.133l-103.426,82.133l39.505,-132.895l-103.426,-82.133l127.841,-0l39.506,-132.895Z" style="fill:#420742;fill-opacity:0;"/><path d="M3570.09,1512.1c-0,-0 28.877,97.142 28.877,97.142l90.543,-0c21.267,-0 40.207,13.453 47.211,33.534c7.003,20.081 0.538,42.395 -16.117,55.621l-76.965,61.12l29.877,100.506c6.219,20.919 -1.849,43.455 -19.931,55.674c-18.082,12.22 -42,11.3 -59.09,-2.271l-72.332,-57.441l-72.332,57.441c-17.09,13.571 -41.009,14.491 -59.091,2.271c-18.082,-12.219 -26.149,-34.755 -19.931,-55.674l29.877,-100.506l-76.965,-61.12c-16.654,-13.226 -23.12,-35.54 -16.116,-55.621c7.003,-20.081 25.943,-33.534 47.211,-33.534l90.542,-0l28.878,-97.142c6.304,-21.21 25.8,-35.753 47.927,-35.753c22.127,-0 41.622,14.543 47.927,35.753Zm-47.927,14.247l-39.506,132.895l-127.841,-0l103.426,82.133l-39.505,132.895l103.426,-82.133l103.426,82.133l-39.505,-132.895l103.426,-82.133l-127.842,-0l-39.505,-132.895Z" style="fill:#08083f;fill-opacity:0.5;"/><path d="M3522.16,2524.81l39.505,132.895l127.842,0l-103.426,82.134l39.505,132.895l-103.426,-82.134l-103.426,82.134l39.505,-132.895l-103.426,-82.134l127.841,0l39.506,-132.895Z" style="fill:#420742;fill-opacity:0;"/><path d="M3570.09,2510.56c-0,0 28.877,97.142 28.877,97.142l90.543,0c21.267,0 40.207,13.453 47.211,33.535c7.003,20.081 0.538,42.395 -16.117,55.62l-76.965,61.121l29.877,100.505c6.219,20.92 -1.849,43.455 -19.931,55.675c-18.082,12.219 -42,11.3 -59.09,-2.272l-72.332,-57.441l-72.332,57.441c-17.09,13.572 -41.009,14.491 -59.091,2.272c-18.082,-12.22 -26.149,-34.755 -19.931,-55.675l29.877,-100.505l-76.965,-61.121c-16.654,-13.225 -23.12,-35.539 -16.116,-55.62c7.003,-20.082 25.943,-33.535 47.211,-33.535l90.542,0l28.878,-97.142c6.304,-21.21 25.8,-35.753 47.927,-35.753c22.127,0 41.622,14.543 47.927,35.753Zm-47.927,14.247l-39.506,132.895l-127.841,0l103.426,82.134l-39.505,132.895l103.426,-82.134l103.426,82.134l-39.505,-132.895l103.426,-82.134l-127.842,0l-39.505,-132.895Z" style="fill:#08083f;fill-opacity:0.5;"/><path d="M3976.53,94.118l39.506,132.895l127.841,-0l-103.426,82.133l39.506,132.895l-103.427,-82.133l-103.426,82.133l39.506,-132.895l-103.427,-82.133l127.842,-0l39.505,-132.895Z" style="fill:#420742;fill-opacity:0;"/><path d="M4024.46,79.87c-0,0 28.877,97.143 28.877,97.143l90.542,-0c21.268,-0 40.208,13.453 47.211,33.534c7.004,20.081 0.538,42.395 -16.116,55.621l-76.965,61.12l29.877,100.506c6.218,20.919 -1.849,43.455 -19.931,55.674c-18.082,12.22 -42,11.3 -59.091,-2.272l-72.332,-57.44l-72.331,57.44c-17.091,13.572 -41.009,14.492 -59.091,2.272c-18.082,-12.219 -26.15,-34.755 -19.931,-55.674l29.877,-100.506l-76.965,-61.12c-16.655,-13.226 -23.12,-35.54 -16.117,-55.621c7.004,-20.081 25.944,-33.534 47.211,-33.534l90.543,-0l28.877,-97.143c6.305,-21.209 25.801,-35.752 47.927,-35.752c22.127,-0 41.623,14.543 47.928,35.752Zm-47.928,14.248l-39.505,132.895l-127.842,-0l103.427,82.133l-39.506,132.895l103.426,-82.133l103.427,82.133l-39.506,-132.895l103.426,-82.133l-127.841,-0l-39.506,-132.895Z" style="fill:#08083f;fill-opacity:0.5;"/><path d="M3982.95,1043.48l39.505,132.895l127.842,0l-103.426,82.134l39.505,132.895l-103.426,-82.134l-103.426,82.134l39.505,-132.895l-103.426,-82.134l127.841,0l39.506,-132.895Z" style="fill:#420742;fill-opacity:0;"/><path d="M4030.88,1029.23c-0,0 28.877,97.142 28.877,97.142l90.543,0c21.267,0 40.207,13.453 47.211,33.535c7.003,20.081 0.538,42.395 -16.117,55.621l-76.965,61.12l29.877,100.506c6.219,20.919 -1.849,43.454 -19.931,55.674c-18.082,12.22 -42,11.3 -59.09,-2.272l-72.332,-57.441l-72.332,57.441c-17.09,13.572 -41.009,14.492 -59.091,2.272c-18.082,-12.22 -26.149,-34.755 -19.931,-55.674l29.877,-100.506l-76.965,-61.12c-16.654,-13.226 -23.12,-35.54 -16.116,-55.621c7.003,-20.082 25.943,-33.535 47.211,-33.535l90.542,0l28.877,-97.142c6.305,-21.209 25.801,-35.753 47.928,-35.753c22.127,0 41.622,14.544 47.927,35.753Zm-47.927,14.247l-39.506,132.895l-127.841,0l103.426,82.134l-39.505,132.895l103.426,-82.134l103.426,82.134l-39.505,-132.895l103.426,-82.134l-127.842,0l-39.505,-132.895Z" style="fill:#08083f;fill-opacity:0.5;"/><path d="M3982.95,2041.94l39.505,132.895l127.842,-0l-103.426,82.133l39.505,132.895l-103.426,-82.133l-103.426,82.133l39.505,-132.895l-103.426,-82.133l127.841,-0l39.506,-132.895Z" style="fill:#420742;fill-opacity:0;"/><path d="M4030.88,2027.7c-0,-0 28.877,97.142 28.877,97.142l90.543,-0c21.267,-0 40.207,13.453 47.211,33.534c7.003,20.081 0.538,42.395 -16.117,55.621l-76.965,61.12l29.877,100.506c6.219,20.919 -1.849,43.455 -19.931,55.674c-18.082,12.22 -42,11.3 -59.09,-2.271l-72.332,-57.441l-72.332,57.441c-17.09,13.571 -41.009,14.491 -59.091,2.271c-18.082,-12.219 -26.149,-34.755 -19.931,-55.674l29.877,-100.506l-76.965,-61.12c-16.654,-13.226 -23.12,-35.54 -16.116,-55.621c7.003,-20.081 25.943,-33.534 47.211,-33.534l90.542,-0l28.877,-97.142c6.305,-21.21 25.801,-35.753 47.928,-35.753c22.127,-0 41.622,14.543 47.927,35.753Zm-47.927,14.247l-39.506,132.895l-127.841,-0l103.426,82.133l-39.505,132.895l103.426,-82.133l103.426,82.133l-39.505,-132.895l103.426,-82.133l-127.842,-0l-39.505,-132.895Z" style="fill:#08083f;fill-opacity:0.5;"/><path d="M3982.95,2989.14l39.505,132.895l127.842,-0l-103.426,82.133l39.505,132.895l-103.426,-82.133l-103.426,82.133l39.505,-132.895l-103.426,-82.133l127.841,-0l39.506,-132.895Z" style="fill:#420742;fill-opacity:0;"/><path d="M4030.88,2974.89c-0,0 28.877,97.143 28.877,97.143l90.543,-0c21.267,-0 40.207,13.453 47.211,33.534c7.003,20.081 0.538,42.395 -16.117,55.621l-76.965,61.12l29.877,100.506c6.219,20.919 -1.849,43.455 -19.931,55.674c-18.082,12.22 -42,11.3 -59.09,-2.272l-72.332,-57.44l-72.332,57.44c-17.09,13.572 -41.009,14.492 -59.091,2.272c-18.082,-12.219 -26.149,-34.755 -19.931,-55.674l29.877,-100.506l-76.965,-61.12c-16.654,-13.226 -23.12,-35.54 -16.116,-55.621c7.003,-20.081 25.943,-33.534 47.211,-33.534l90.542,-0l28.877,-97.143c6.305,-21.209 25.801,-35.752 47.928,-35.752c22.127,-0 41.622,14.543 47.927,35.752Zm-47.927,14.248l-39.506,132.895l-127.841,-0l103.426,82.133l-39.505,132.895l103.426,-82.133l103.426,82.133l-39.505,-132.895l103.426,-82.133l-127.842,-0l-39.505,-132.895Z" style="fill:#08083f;fill-opacity:0.5;"/><path d="M3992.9,576.982l39.505,132.895l127.842,0l-103.426,82.134l39.505,132.895l-103.426,-82.134l-103.426,82.134l39.505,-132.895l-103.426,-82.134l127.841,0l39.506,-132.895Z" style="fill:#420742;fill-opacity:0;"/><path d="M4040.82,562.735c-0,-0 28.877,97.142 28.877,97.142l90.543,0c21.267,0 40.207,13.453 47.211,33.534c7.003,20.082 0.538,42.395 -16.117,55.621l-76.965,61.121l29.877,100.505c6.219,20.919 -1.849,43.455 -19.931,55.675c-18.082,12.219 -42,11.3 -59.091,-2.272l-72.331,-57.441l-72.332,57.441c-17.09,13.572 -41.009,14.491 -59.091,2.272c-18.082,-12.22 -26.149,-34.756 -19.931,-55.675l29.877,-100.505l-76.965,-61.121c-16.654,-13.226 -23.12,-35.539 -16.116,-55.621c7.003,-20.081 25.943,-33.534 47.211,-33.534l90.542,0l28.877,-97.142c6.305,-21.21 25.801,-35.753 47.928,-35.753c22.127,0 41.622,14.543 47.927,35.753Zm-47.927,14.247l-39.506,132.895l-127.841,0l103.426,82.134l-39.505,132.895l103.426,-82.134l103.426,82.134l-39.505,-132.895l103.426,-82.134l-127.842,0l-39.505,-132.895Z" style="fill:#08083f;fill-opacity:0.5;"/><path d="M3999.32,1526.34l39.505,132.895l127.842,-0l-103.426,82.133l39.505,132.895l-103.426,-82.133l-103.426,82.133l39.505,-132.895l-103.426,-82.133l127.842,-0l39.505,-132.895Z" style="fill:#420742;fill-opacity:0;"/><path d="M4047.24,1512.1c0,-0 28.877,97.142 28.877,97.142l90.543,-0c21.267,-0 40.207,13.453 47.211,33.534c7.004,20.081 0.538,42.395 -16.117,55.621l-76.965,61.12l29.877,100.506c6.219,20.919 -1.849,43.455 -19.931,55.674c-18.081,12.22 -42,11.3 -59.09,-2.271l-72.332,-57.441l-72.332,57.441c-17.09,13.571 -41.009,14.491 -59.09,2.271c-18.082,-12.219 -26.15,-34.755 -19.931,-55.674l29.877,-100.506l-76.965,-61.12c-16.655,-13.226 -23.121,-35.54 -16.117,-55.621c7.004,-20.081 25.944,-33.534 47.211,-33.534l90.543,-0l28.877,-97.142c6.305,-21.21 25.8,-35.753 47.927,-35.753c22.127,-0 41.622,14.543 47.927,35.753Zm-47.927,14.247l-39.505,132.895l-127.842,-0l103.426,82.133l-39.505,132.895l103.426,-82.133l103.426,82.133l-39.505,-132.895l103.426,-82.133l-127.842,-0l-39.505,-132.895Z" style="fill:#08083f;fill-opacity:0.5;"/><path d="M3999.32,2524.81l39.505,132.895l127.842,0l-103.426,82.134l39.505,132.895l-103.426,-82.134l-103.426,82.134l39.505,-132.895l-103.426,-82.134l127.842,0l39.505,-132.895Z" style="fill:#420742;fill-opacity:0;"/><path d="M4047.24,2510.56c0,0 28.877,97.142 28.877,97.142l90.543,0c21.267,0 40.207,13.453 47.211,33.535c7.004,20.081 0.538,42.395 -16.117,55.62l-76.965,61.121l29.877,100.505c6.219,20.92 -1.849,43.455 -19.931,55.675c-18.081,12.219 -42,11.3 -59.09,-2.272l-72.332,-57.441l-72.332,57.441c-17.09,13.572 -41.009,14.491 -59.09,2.272c-18.082,-12.22 -26.15,-34.755 -19.931,-55.675l29.877,-100.505l-76.965,-61.121c-16.655,-13.225 -23.121,-35.539 -16.117,-55.62c7.004,-20.082 25.944,-33.535 47.211,-33.535l90.543,0l28.877,-97.142c6.305,-21.21 25.8,-35.753 47.927,-35.753c22.127,0 41.622,14.543 47.927,35.753Zm-47.927,14.247l-39.505,132.895l-127.842,0l103.426,82.134l-39.505,132.895l103.426,-82.134l103.426,82.134l-39.505,-132.895l103.426,-82.134l-127.842,0l-39.505,-132.895Z" style="fill:#08083f;fill-opacity:0.5;"/></svg>