<?xml version="1.0" encoding="UTF-8" standalone="no"?>
<!DOCTYPE svg PUBLIC "-//W3C//DTD SVG 1.1//EN" "http://www.w3.org/Graphics/SVG/1.1/DTD/svg11.dtd">
<svg width="100%" height="100%" viewBox="0 0 191 209" version="1.1" xmlns="http://www.w3.org/2000/svg" xmlns:xlink="http://www.w3.org/1999/xlink" xml:space="preserve" xmlns:serif="http://www.serif.com/" style="fill-rule:evenodd;clip-rule:evenodd;stroke-linejoin:round;stroke-miterlimit:2;">
    <g transform="matrix(1,0,0,1,-390.213,-230.524)">
        <g transform="matrix(1,0,0,1,-158.39,55.6445)">
            <path d="M549.603,382.036L629.338,274.598L559.025,175.88L591.509,175.88L628.916,228.755C636.697,239.723 642.228,248.161 645.509,254.067C650.103,246.567 655.541,238.739 661.822,230.583L703.306,175.88L732.978,175.88L660.556,273.051L738.603,382.036L704.853,382.036L652.963,308.489C650.056,304.27 647.056,299.676 643.963,294.708C639.369,302.208 636.088,307.364 634.119,310.176L582.369,382.036L549.603,382.036Z" style="fill:rgb(196,0,0);fill-rule:nonzero;stroke:black;stroke-width:2px;"/>
        </g>
    </g>
</svg>
