<?xml version="1.0" encoding="UTF-8" standalone="no"?><!DOCTYPE svg PUBLIC "-//W3C//DTD SVG 1.1//EN" "http://www.w3.org/Graphics/SVG/1.1/DTD/svg11.dtd"><svg width="100%" height="100%" viewBox="0 0 2380 3178" version="1.1" xmlns="http://www.w3.org/2000/svg" xmlns:xlink="http://www.w3.org/1999/xlink" xml:space="preserve" xmlns:serif="http://www.serif.com/" style="fill-rule:evenodd;clip-rule:evenodd;stroke-linejoin:round;stroke-miterlimit:2;"><rect x="74.909" y="74.909" width="2230.18" height="3028.13" style="fill:#d62424;"/><path d="M2346.64,3144.59l-2313.28,-0l-0,-3111.24l2313.28,-0l-0,3111.24Zm-41.552,-3069.68l-2230.18,-0l-0,3028.13l2230.18,-0l-0,-3028.13Z" style="fill:#fff;"/><path d="M1190,705.088l154.347,551.373l499.474,-0l-404.083,340.767l154.346,551.372l-404.084,-340.767l-404.083,340.767l154.346,-551.372l-404.084,-340.767l499.475,-0l154.346,-551.373Z" style="fill:#d42121;"/><path d="M1230.01,693.887c0,-0 145.85,521.022 145.85,521.022l467.957,-0c17.45,-0 33.041,10.902 39.029,27.292c5.988,16.39 1.098,34.775 -12.241,46.024l-383.653,323.538l147.142,525.636c4.917,17.564 -2.196,36.282 -17.536,46.149c-15.341,9.866 -35.322,8.576 -49.265,-3.183l-377.297,-318.177l-377.296,318.177c-13.943,11.759 -33.925,13.049 -49.265,3.183c-15.34,-9.867 -22.453,-28.585 -17.536,-46.149l147.142,-525.636l-383.653,-323.538c-13.34,-11.249 -18.229,-29.634 -12.241,-46.024c5.988,-16.39 21.579,-27.292 39.028,-27.292l467.958,-0l145.85,-521.022c5.023,-17.945 21.379,-30.351 40.013,-30.351c18.635,-0 34.991,12.406 40.014,30.351Zm-40.014,11.201l-154.346,551.373l-499.475,-0l404.084,340.767l-154.346,551.372l404.083,-340.767l404.084,340.767l-154.346,-551.372l404.083,-340.767l-499.474,-0l-154.347,-551.373Z" style="fill:#5a0303;"/></svg>